SplineFontDB: 3.0
FontName: Boon-400i
FullName: Boon 400 Oblique
FamilyName: Boon
Weight: 400
Copyright: Copyright 2013-2015, Sungsit Sawaiwan (https://fontuni.com | uni@fontuni.com). This Font Software is licensed under the SIL Open Font License, Version 1.1 (http://scripts.sil.org/OFL).
Version: 1.0-beta2
ItalicAngle: -9
UnderlinePosition: -120
UnderlineWidth: 60
Ascent: 960
Descent: 240
InvalidEm: 0
woffMajor: 1
woffMinor: 0
UFOAscent: 960
UFODescent: -240
LayerCount: 2
Layer: 0 0 "Back" 1
Layer: 1 0 "Fore" 0
StyleMap: 0x0000
FSType: 0
OS2Version: 0
OS2_WeightWidthSlopeOnly: 0
OS2_UseTypoMetrics: 0
CreationTime: 1369324892
ModificationTime: 1445520796
PfmFamily: 33
TTFWeight: 400
TTFWidth: 5
LineGap: 90
VLineGap: 0
OS2TypoAscent: 960
OS2TypoAOffset: 0
OS2TypoDescent: -240
OS2TypoDOffset: 0
OS2TypoLinegap: 90
OS2WinAscent: 1320
OS2WinAOffset: 0
OS2WinDescent: 480
OS2WinDOffset: 0
HheadAscent: 1320
HheadAOffset: 0
HheadDescent: -480
HheadDOffset: 0
OS2CapHeight: 780
OS2XHeight: 600
OS2Vendor: 'FUni'
Lookup: 1 0 0 "ThaiRC.rd" { "ThaiRC.rd subtable"  } ['ss01' ('thai' <'dflt' > ) 'salt' ('thai' <'dflt' > ) 'ccmp' ('thai' <'PAL ' 'SAN ' > ) 'locl' ('thai' <'PAL ' 'SAN ' > ) ]
Lookup: 6 0 0 "ThaiContextRC.rd" { "ThaiContextRC.rd subtable"  } ['ccmp' ('thai' <'dflt' > ) ]
Lookup: 2 0 0 "ThaiDecomp" { "ThaiDecomp subtable"  } ['ccmp' ('thai' <'dflt' > ) ]
Lookup: 1 0 0 "ThaiT.0E4D" { "ThaiT.0E4D subtable"  } []
Lookup: 1 0 0 "Thai0E4D.0E48" { "Thai0E4D.0E48 subtable"  } []
Lookup: 1 0 0 "Thai0E4D.0E49" { "Thai0E4D.0E49 subtable"  } []
Lookup: 1 0 0 "Thai0E4D.0E4A" { "Thai0E4D.0E4A subtable"  } []
Lookup: 1 0 0 "Thai0E4D.0E4B" { "Thai0E4D.0E4B subtable"  } []
Lookup: 6 0 0 "ThaiContext.ro" { "ThaiContext.ro contextual 0"  "ThaiContext.ro contextual 1"  "ThaiContext.ro contextual 2"  "ThaiContext.ro contextual 3"  } ['ccmp' ('thai' <'dflt' > ) ]
Lookup: 1 0 0 "Thai.sd" { "Thai.sd subtable"  } []
Lookup: 1 0 0 "ThaiBV.sd" { "ThaiBV.sd subtable"  } []

StartChar: .notdef
Encoding: 844 -1 0
GlifName: _notdef
Width: 660
VWidth: 0
Flags: MW
LayerCount: 2
Fore
SplineSet
42 0 m 1
 137 600 l 1
 365 600 l 1
 593 600 l 1
 498 0 l 1
 270 0 l 1
 42 0 l 1
281 69 m 1
 424 69 l 1
 497 531 l 1
 354 531 l 1
 211 531 l 1
 138 69 l 1
 281 69 l 1
EndSplineSet
PickledDataWithLists: "(dp0
Vcom.fontlab.hintData
p1
(dp2
Vvhints
p3
(lp4
(dp5
Vwidth
p6
L10L
sVposition
p7
L160L
sa(dp8
g6
L10L
sg7
L190L
sa(dp9
g6
L10L
sg7
L520L
sa(dp10
g6
L10L
sg7
L550L
sasVhhints
p11
(lp12
(dp13
g6
L10L
sg7
L0L
sa(dp14
g6
L10L
sg7
L30L
sa(dp15
g6
L10L
sg7
L560L
sa(dp16
g6
L10L
sg7
L590L
sass."
EndChar

StartChar: exclam
Encoding: 4 33 5
GlifName: exclam
Width: 330
VWidth: 0
Flags: MW
LayerCount: 2
Fore
SplineSet
126 133 m 0
 163 133 188 112 188 78 c 0
 188 74 188 69 187 65 c 0
 180 23 146 -3 105 -3 c 0
 68 -3 42 18 42 53 c 0
 42 57 42 61 43 65 c 0
 50 107 85 133 126 133 c 0
178 810 m 1
 288 810 l 1
 179 270 l 1
 117 270 l 1
 178 810 l 1
EndSplineSet
PickledDataWithLists: "(dp0
Vcom.fontlab.hintData
p1
(dp2
Vvhints
p3
(lp4
(dp5
Vwidth
p6
L10L
sVposition
p7
L81L
sa(dp8
g6
L10L
sg7
L101L
sa(dp9
g6
L10L
sg7
L125L
sa(dp10
g6
L10L
sg7
L195L
sa(dp11
g6
L10L
sg7
L210L
sa(dp12
g6
L10L
sg7
L239L
sasVhhints
p13
(lp14
(dp15
g6
L10L
sg7
L-5L
sa(dp16
g6
L10L
sg7
L122L
sa(dp17
g6
L10L
sg7
L268L
sa(dp18
g6
L10L
sg7
L826L
sass."
EndChar

StartChar: quotedbl
Encoding: 5 34 6
GlifName: quotedbl
Width: 540
VWidth: 0
Flags: MW
LayerCount: 2
Fore
SplineSet
199 900 m 1
 287 900 l 1
 215 540 l 1
 157 540 l 1
 199 900 l 1
419 900 m 1
 507 900 l 1
 435 540 l 1
 377 540 l 1
 419 900 l 1
EndSplineSet
PickledDataWithLists: "(dp0
Vcom.fontlab.hintData
p1
(dp2
Vvhints
p3
(lp4
(dp5
Vwidth
p6
L10L
sVposition
p7
L107L
sa(dp8
g6
L10L
sg7
L196L
sa(dp9
g6
L10L
sg7
L304L
sa(dp10
g6
L10L
sg7
L313L
sa(dp11
g6
L10L
sg7
L393L
sasVhhints
p12
(lp13
(dp14
g6
L10L
sg7
L548L
sa(dp15
g6
L10L
sg7
L553L
sa(dp16
g6
L10L
sg7
L829L
sass."
EndChar

StartChar: numbersign
Encoding: 6 35 7
GlifName: numbersign
Width: 810
VWidth: 0
Flags: MW
LayerCount: 2
Fore
SplineSet
34 214 m 1
 44 276 l 1
 176 276 l 1
 274 504 l 1
 140 504 l 1
 150 566 l 1
 300 566 l 1
 392 780 l 1
 466 780 l 1
 374 566 l 1
 590 566 l 1
 682 780 l 1
 756 780 l 1
 664 566 l 1
 780 566 l 1
 770 504 l 1
 638 504 l 1
 540 276 l 1
 674 276 l 1
 664 214 l 1
 514 214 l 1
 422 0 l 1
 348 0 l 1
 440 214 l 1
 224 214 l 1
 132 0 l 1
 58 0 l 1
 150 214 l 1
 34 214 l 1
348 504 m 1
 250 276 l 1
 466 276 l 1
 564 504 l 1
 348 504 l 1
EndSplineSet
PickledDataWithLists: "(dp0
Vcom.fontlab.hintData
p1
(dp2
Vvhints
p3
(lp4
(dp5
Vwidth
p6
L10L
sVposition
p7
L111L
sa(dp8
g6
L10L
sg7
L329L
sa(dp9
g6
L10L
sg7
L381L
sa(dp10
g6
L10L
sg7
L599L
sa(dp11
g6
L10L
sg7
L649L
sa(dp12
g6
L10L
sg7
L689L
sasVhhints
p13
(lp14
(dp15
g6
L10L
sg7
L-29L
sa(dp16
g6
L10L
sg7
L-19L
sa(dp17
g6
L7L
sg7
L241L
sa(dp18
g6
L10L
sg7
L284L
sa(dp19
g6
L7L
sg7
L521L
sa(dp20
g6
L10L
sg7
L564L
sa(dp21
g6
L10L
sg7
L819L
sa(dp22
g6
L10L
sg7
L829L
sass."
EndChar

StartChar: dollar
Encoding: 7 36 8
GlifName: dollar
Width: 660
VWidth: 0
Flags: MW
LayerCount: 2
Fore
SplineSet
36 182 m 1
 130 188 l 1
 130 129 169 70 249 58 c 1
 298 368 l 1
 273 379 248 389 227 398 c 0
 172 422 116 470 116 554 c 0
 116 564 116 574 118 585 c 0
 135 691 225 780 365 792 c 1
 383 900 l 1
 452 900 l 1
 434 791 l 1
 567 775 611 673 611 605 c 0
 611 604 611 604 611 603 c 1
 516 596 l 1
 516 597 516 598 516 599 c 0
 516 654 485 705 423 720 c 1
 377 428 l 1
 403 417 429 407 450 400 c 0
 510 379 567 331 567 240 c 0
 567 228 566 214 564 200 c 0
 547 93 458 2 307 -11 c 1
 290 -120 l 1
 221 -120 l 1
 238 -12 l 1
 86 1 36 109 36 180 c 0
 36 181 36 181 36 182 c 1
312 455 m 1
 354 722 l 1
 281 712 224 666 211 585 c 0
 210 578 210 572 210 566 c 0
 210 507 256 479 292 463 c 0
 299 460 305 458 312 455 c 1
363 342 m 1
 318 58 l 1
 403 69 458 118 471 200 c 0
 472 209 473 216 473 224 c 0
 473 291 424 320 393 331 c 0
 383 334 373 338 363 342 c 1
EndSplineSet
PickledDataWithLists: "(dp0
Vcom.fontlab.hintData
p1
(dp2
Vvhints
p3
(lp4
(dp5
Vwidth
p6
L10L
sVposition
p7
L70L
sa(dp8
g6
L10L
sg7
L78L
sa(dp9
g6
L10L
sg7
L169L
sa(dp10
g6
L10L
sg7
L319L
sa(dp11
g6
L10L
sg7
L323L
sa(dp12
g6
L10L
sg7
L382L
sa(dp13
g6
L10L
sg7
L392L
sa(dp14
g6
L10L
sg7
L504L
sa(dp15
g6
L10L
sg7
L565L
sa(dp16
g6
L10L
sg7
L604L
sa(dp17
g6
L10L
sg7
L664L
sasVhhints
p18
(lp19
(dp20
g6
L10L
sg7
L-127L
sa(dp21
g6
L10L
sg7
L46L
sa(dp22
g6
L10L
sg7
L192L
sa(dp23
g6
L10L
sg7
L584L
sa(dp24
g6
L10L
sg7
L812L
sa(dp25
g6
L10L
sg7
L916L
sass."
EndChar

StartChar: percent
Encoding: 8 37 9
GlifName: percent
Width: 780
VWidth: 0
Flags: MW
LayerCount: 2
Fore
SplineSet
22 0 m 1
 23 5 l 1
 700 780 l 1
 761 780 l 1
 760 775 l 1
 83 0 l 1
 22 0 l 1
61 576 m 2
 64 594 l 2
 78 681 119 790 230 790 c 0
 316 790 339 726 339 656 c 0
 339 635 337 614 334 594 c 2
 331 576 l 2
 317 489 276 380 165 380 c 0
 79 380 56 444 56 514 c 0
 56 535 58 556 61 576 c 2
172 424 m 0
 218 424 257 480 272 576 c 2
 275 594 l 2
 278 615 280 633 280 650 c 0
 280 711 259 746 223 746 c 0
 177 746 138 690 123 594 c 2
 120 576 l 2
 117 555 115 537 115 520 c 0
 115 459 136 424 172 424 c 0
449 186 m 2
 452 204 l 2
 466 291 507 400 618 400 c 0
 704 400 727 336 727 266 c 0
 727 245 725 224 722 204 c 2
 719 186 l 2
 705 99 664 -10 553 -10 c 0
 467 -10 444 54 444 124 c 0
 444 145 446 166 449 186 c 2
560 34 m 0
 606 34 645 90 660 186 c 2
 663 204 l 2
 666 225 668 243 668 260 c 0
 668 321 647 356 611 356 c 0
 565 356 526 300 511 204 c 2
 508 186 l 2
 505 165 503 147 503 130 c 0
 503 69 524 34 560 34 c 0
EndSplineSet
PickledDataWithLists: "(dp0
Vcom.fontlab.hintData
p1
(dp2
Vvhints
p3
(lp4
(dp5
Vwidth
p6
L10L
sVposition
p7
L50L
sa(dp8
g6
L10L
sg7
L70L
sa(dp9
g6
L10L
sg7
L120L
sa(dp10
g6
L10L
sg7
L246L
sa(dp11
g6
L10L
sg7
L290L
sa(dp12
g6
L10L
sg7
L320L
sa(dp13
g6
L10L
sg7
L360L
sa(dp14
g6
L10L
sg7
L410L
sa(dp15
g6
L10L
sg7
L480L
sa(dp16
g6
L10L
sg7
L606L
sa(dp17
g6
L10L
sg7
L650L
sa(dp18
g6
L10L
sg7
L680L
sa(dp19
g6
L10L
sg7
L699L
sa(dp20
g6
L10L
sg7
L720L
sasVhhints
p21
(lp22
(dp23
g6
L10L
sg7
L-14L
sa(dp24
g6
L10L
sg7
L6L
sa(dp25
g6
L10L
sg7
L34L
sa(dp26
g6
L10L
sg7
L369L
sa(dp27
g6
L10L
sg7
L374L
sa(dp28
g6
L10L
sg7
L416L
sa(dp29
g6
L10L
sg7
L422L
sa(dp30
g6
L10L
sg7
L757L
sa(dp31
g6
L10L
sg7
L784L
sa(dp32
g6
L10L
sg7
L804L
sass."
EndChar

StartChar: ampersand
Encoding: 9 38 10
GlifName: ampersand
Width: 810
VWidth: 0
Flags: MW
LayerCount: 2
Fore
SplineSet
606 149 m 1
 671 68 723 5 723 5 c 2
 722 0 l 1
 616 0 l 1
 616 0 587 37 544 90 c 1
 464 25 364 -18 251 -18 c 0
 105 -18 36 51 36 138 c 0
 36 147 36 156 38 166 c 0
 56 282 178 362 285 425 c 1
 254 475 229 537 229 595 c 0
 229 605 229 615 231 625 c 0
 248 733 328 798 430 798 c 0
 532 798 575 738 575 674 c 0
 575 666 574 659 573 651 c 0
 557 552 488 479 390 418 c 1
 433 363 500 279 563 202 c 1
 609 261 642 333 661 405 c 1
 739 393 l 1
 717 308 671 221 606 149 c 1
504 140 m 1
 442 218 369 312 321 376 c 1
 219 312 142 243 130 166 c 0
 129 159 128 152 128 146 c 0
 128 86 175 52 262 52 c 0
 361 52 441 86 504 140 c 1
421 736 m 0
 357 736 323 683 313 623 c 0
 312 616 311 609 311 601 c 0
 311 558 330 509 355 467 c 1
 432 519 482 582 493 651 c 0
 494 657 494 663 494 669 c 0
 494 711 469 736 421 736 c 0
EndSplineSet
PickledDataWithLists: "(dp0
Vcom.fontlab.hintData
p1
(dp2
Vvhints
p3
(lp4
(dp5
Vwidth
p6
L10L
sVposition
p7
L66L
sa(dp8
g6
L10L
sg7
L164L
sa(dp9
g6
L10L
sg7
L202L
sa(dp10
g6
L10L
sg7
L296L
sa(dp11
g6
L10L
sg7
L450L
sa(dp12
g6
L10L
sg7
L538L
sa(dp13
g6
L10L
sg7
L695L
sa(dp14
g6
L10L
sg7
L749L
sasVhhints
p15
(lp16
(dp17
g6
L10L
sg7
L-25L
sa(dp18
g6
L10L
sg7
L39L
sa(dp19
g6
L10L
sg7
L389L
sa(dp20
g6
L10L
sg7
L734L
sa(dp21
g6
L10L
sg7
L796L
sass."
EndChar

StartChar: quotesingle
Encoding: 10 39 11
GlifName: quotesingle
Width: 330
VWidth: 0
Flags: MW
LayerCount: 2
Fore
SplineSet
204 900 m 1
 292 900 l 1
 220 540 l 1
 162 540 l 1
 204 900 l 1
EndSplineSet
PickledDataWithLists: "(dp0
Vcom.fontlab.hintData
p1
(dp2
Vvhints
p3
(lp4
(dp5
Vwidth
p6
L10L
sVposition
p7
L110L
sa(dp8
g6
L10L
sg7
L209L
sasVhhints
p9
(lp10
(dp11
g6
L10L
sg7
L544L
sa(dp12
g6
L10L
sg7
L832L
sass."
EndChar

StartChar: parenleft
Encoding: 11 40 12
GlifName: parenleft
Width: 390
VWidth: 0
Flags: MW
LayerCount: 2
Fore
SplineSet
74 390 m 0
 109 611 208 784 338 909 c 1
 392 886 l 1
 272 768 191 600 158 390 c 0
 149 332 144 278 144 227 c 0
 144 92 176 -20 235 -106 c 1
 174 -129 l 1
 105 -33 62 92 62 245 c 0
 62 291 66 339 74 390 c 0
EndSplineSet
PickledDataWithLists: "(dp0
Vcom.fontlab.hintData
p1
(dp2
Vvhints
p3
(lp4
(dp5
Vwidth
p6
L10L
sVposition
p7
L55L
sa(dp8
g6
L10L
sg7
L135L
sa(dp9
g6
L10L
sg7
L270L
sasVhhints
p10
(lp11
(dp12
g6
L10L
sg7
L-112L
sa(dp13
g6
L10L
sg7
L882L
sass."
Substitution2: "Latin.subs subtable" parenleft.subs
Substitution2: "Latin.subs subtable" parenleft.subs
Substitution2: "Latin.sups subtable" parenleft.sups
Substitution2: "Latin.sups subtable" parenleft.sups
EndChar

StartChar: parenright
Encoding: 12 41 13
GlifName: parenright
Width: 390
VWidth: 0
Flags: MW
LayerCount: 2
Fore
SplineSet
320 390 m 0
 285 169 186 -4 56 -129 c 1
 1 -106 l 1
 121 12 203 180 236 390 c 0
 245 447 249 501 249 552 c 0
 249 688 218 800 158 886 c 1
 220 909 l 1
 289 813 332 688 332 535 c 0
 332 489 328 441 320 390 c 0
EndSplineSet
PickledDataWithLists: "(dp0
Vcom.fontlab.hintData
p1
(dp2
Vvhints
p3
(lp4
(dp5
Vwidth
p6
L10L
sVposition
p7
L79L
sa(dp8
g6
L10L
sg7
L215L
sa(dp9
g6
L10L
sg7
L295L
sasVhhints
p10
(lp11
(dp12
g6
L10L
sg7
L-112L
sa(dp13
g6
L10L
sg7
L882L
sass."
Substitution2: "Latin.subs subtable" parenright.subs
Substitution2: "Latin.subs subtable" parenright.subs
Substitution2: "Latin.sups subtable" parenright.sups
Substitution2: "Latin.sups subtable" parenright.sups
EndChar

StartChar: asterisk
Encoding: 13 42 14
GlifName: asterisk
Width: 570
VWidth: 0
Flags: MW
LayerCount: 2
Fore
SplineSet
103 702 m 1
 139 778 l 1
 313 700 l 1
 329 900 l 1
 409 900 l 1
 360 700 l 1
 557 778 l 1
 570 702 l 1
 368 655 l 1
 475 503 l 1
 402 456 l 1
 325 628 l 1
 192 456 l 1
 136 503 l 1
 291 655 l 1
 103 702 l 1
EndSplineSet
PickledDataWithLists: "(dp0
Vcom.fontlab.hintData
p1
(dp2
Vvhints
p3
(lp4
(dp5
Vwidth
p6
L10L
sVposition
p7
L84L
sa(dp8
g6
L10L
sg7
L89L
sa(dp9
g6
L10L
sg7
L256L
sa(dp10
g6
L10L
sg7
L265L
sa(dp11
g6
L10L
sg7
L272L
sa(dp12
g6
L10L
sg7
L326L
sa(dp13
g6
L10L
sg7
L335L
sa(dp14
g6
L10L
sg7
L501L
sa(dp15
g6
L10L
sg7
L506L
sasVhhints
p16
(lp17
(dp18
g6
L10L
sg7
L392L
sa(dp19
g6
L10L
sg7
L488L
sa(dp20
g6
L10L
sg7
L495L
sa(dp21
g6
L10L
sg7
L735L
sa(dp22
g6
L10L
sg7
L742L
sa(dp23
g6
L10L
sg7
L839L
sass."
EndChar

StartChar: plus
Encoding: 14 43 15
GlifName: plus
Width: 600
VWidth: 0
Flags: MW
LayerCount: 2
Fore
SplineSet
89 328 m 1
 99 392 l 1
 259 392 l 1
 285 555 l 1
 371 555 l 1
 345 392 l 1
 505 392 l 1
 495 328 l 1
 335 328 l 1
 309 165 l 1
 223 165 l 1
 249 328 l 1
 89 328 l 1
EndSplineSet
PickledDataWithLists: "(dp0
Vcom.fontlab.hintData
p1
(dp2
Vvhints
p3
(lp4
(dp5
Vwidth
p6
L10L
sVposition
p7
L80L
sa(dp8
g6
L10L
sg7
L250L
sa(dp9
g6
L10L
sg7
L259L
sa(dp10
g6
L10L
sg7
L340L
sa(dp11
g6
L10L
sg7
L510L
sasVhhints
p12
(lp13
(dp14
g6
L10L
sg7
L145L
sa(dp15
g6
L10L
sg7
L302L
sa(dp16
g6
L10L
sg7
L362L
sa(dp17
g6
L10L
sg7
L370L
sa(dp18
g6
L10L
sg7
L525L
sass."
EndChar

StartChar: comma
Encoding: 15 44 16
GlifName: comma
Width: 330
VWidth: 0
Flags: MW
LayerCount: 2
Fore
SplineSet
42 63 m 0
 48 104 81 133 125 133 c 0
 177 133 198 96 198 51 c 0
 198 43 197 34 196 25 c 0
 180 -79 100 -152 29 -195 c 1
 7 -156 l 1
 61 -123 110 -72 129 1 c 1
 121 -2 112 -3 102 -3 c 0
 66 -3 41 18 41 52 c 0
 41 56 41 59 42 63 c 0
EndSplineSet
PickledDataWithLists: "(dp0
Vcom.fontlab.hintData
p1
(dp2
Vvhints
p3
(lp4
(dp5
Vwidth
p6
L10L
sVposition
p7
L61L
sa(dp8
g6
L10L
sg7
L170L
sa(dp9
g6
L10L
sg7
L251L
sasVhhints
p10
(lp11
(dp12
g6
L10L
sg7
L-182L
sa(dp13
g6
L10L
sg7
L48L
sa(dp14
g6
L10L
sg7
L117L
sass."
EndChar

StartChar: hyphen
Encoding: 16 45 17
GlifName: hyphen
Width: 600
VWidth: 0
Flags: MW
LayerCount: 2
Fore
SplineSet
100 395 m 1
 506 395 l 1
 494 325 l 1
 88 325 l 1
 100 395 l 1
EndSplineSet
PickledDataWithLists: "(dp0
Vcom.fontlab.hintData
p1
(dp2
Vvhints
p3
(lp4
(dp5
Vwidth
p6
L10L
sVposition
p7
L75L
sa(dp8
g6
L10L
sg7
L514L
sasVhhints
p9
(lp10
(dp11
g6
L10L
sg7
L301L
sa(dp12
g6
L10L
sg7
L363L
sa(dp13
g6
L10L
sg7
L371L
sass."
EndChar

StartChar: period
Encoding: 17 46 18
GlifName: period
Width: 330
VWidth: 0
Flags: MW
LayerCount: 2
Fore
SplineSet
126 133 m 0
 163 133 188 112 188 78 c 0
 188 74 188 69 187 65 c 0
 180 23 146 -3 105 -3 c 0
 68 -3 42 18 42 53 c 0
 42 57 42 61 43 65 c 0
 50 107 85 133 126 133 c 0
EndSplineSet
PickledDataWithLists: "(dp0
Vcom.fontlab.hintData
p1
(dp2
Vvhints
p3
(lp4
(dp5
Vwidth
p6
L10L
sVposition
p7
L81L
sa(dp8
g6
L10L
sg7
L239L
sasVhhints
p9
(lp10
(dp11
g6
L10L
sg7
L-5L
sa(dp12
g6
L10L
sg7
L122L
sass."
EndChar

StartChar: slash
Encoding: 18 47 19
GlifName: slash
Width: 510
VWidth: 0
Flags: MW
LayerCount: 2
Fore
SplineSet
-10 0 m 1
 -9 5 l 1
 443 780 l 1
 524 780 l 1
 523 775 l 1
 72 0 l 1
 -10 0 l 1
EndSplineSet
PickledDataWithLists: "(dp0
Vcom.fontlab.hintData
p1
(dp2
Vvhints
p3
(lp4
(dp5
Vwidth
p6
L10L
sVposition
p7
L41L
sa(dp8
g6
L10L
sg7
L429L
sasVhhints
p9
(lp10
(dp11
g6
L10L
sg7
L-29L
sa(dp12
g6
L10L
sg7
L818L
sass."
Substitution2: "LatinSlash.frac subtable" fraction
EndChar

StartChar: zero
Encoding: 19 48 20
GlifName: zero
Width: 660
VWidth: 0
Flags: MW
LayerCount: 2
Fore
SplineSet
66 374 m 2
 71 406 l 2
 100 587 184 798 396 798 c 0
 560 798 608 672 608 531 c 0
 608 490 604 447 597 406 c 2
 592 374 l 2
 563 193 479 -18 267 -18 c 0
 103 -18 55 108 55 249 c 0
 55 290 59 333 66 374 c 2
278 52 m 0
 386 52 467 178 498 374 c 2
 503 406 l 2
 510 449 513 488 513 523 c 0
 513 651 470 728 385 728 c 0
 277 728 196 602 165 406 c 2
 160 374 l 2
 153 331 150 292 150 257 c 0
 150 129 193 52 278 52 c 0
EndSplineSet
PickledDataWithLists: "(dp0
Vcom.fontlab.hintData
p1
(dp2
Vvhints
p3
(lp4
(dp5
Vwidth
p6
L10L
sVposition
p7
L66L
sa(dp8
g6
L10L
sg7
L164L
sa(dp9
g6
L10L
sg7
L456L
sa(dp10
g6
L10L
sg7
L546L
sa(dp11
g6
L10L
sg7
L564L
sa(dp12
g6
L10L
sg7
L644L
sasVhhints
p13
(lp14
(dp15
g6
L10L
sg7
L-24L
sa(dp16
g6
L10L
sg7
L46L
sa(dp17
g6
L10L
sg7
L742L
sa(dp18
g6
L10L
sg7
L811L
sass."
Substitution2: "Latin.dnom subtable" zero.dnom
Substitution2: "Latin.numr subtable" zero.numr
Substitution2: "Latin.subs subtable" zero.subs
Substitution2: "Latin.sups subtable" zero.sups
Substitution2: "Latin.pnum subtable" zero.pnum
EndChar

StartChar: one
Encoding: 20 49 21
GlifName: one
Width: 660
VWidth: 0
Flags: MW
LayerCount: 2
Fore
SplineSet
142 630 m 1
 428 786 l 1
 493 779 l 1
 382 74 l 1
 534 74 l 1
 522 0 l 1
 82 0 l 1
 94 74 l 1
 289 74 l 1
 385 681 l 1
 171 562 l 1
 142 630 l 1
EndSplineSet
PickledDataWithLists: "(dp0
Vcom.fontlab.hintData
p1
(dp2
Vvhints
p3
(lp4
(dp5
Vwidth
p6
L10L
sVposition
p7
L126L
sa(dp8
g6
L10L
sg7
L364L
sa(dp9
g6
L10L
sg7
L371L
sa(dp10
g6
L10L
sg7
L462L
sa(dp11
g6
L10L
sg7
L469L
sa(dp12
g6
L10L
sg7
L677L
sasVhhints
p13
(lp14
(dp15
g6
L10L
sg7
L-19L
sa(dp16
g6
L10L
sg7
L-9L
sa(dp17
g6
L10L
sg7
L49L
sa(dp18
g6
L10L
sg7
L57L
sa(dp19
g6
L10L
sg7
L591L
sa(dp20
g6
L10L
sg7
L802L
sass."
Substitution2: "Latin.dnom subtable" one.dnom
Substitution2: "Latin.numr subtable" one.numr
Substitution2: "Latin.subs subtable" one.subs
Substitution2: "Latin.sups subtable" one.sups
Substitution2: "Latin.pnum subtable" one.pnum
EndChar

StartChar: two
Encoding: 21 50 22
GlifName: two
Width: 660
VWidth: 0
Flags: MW
LayerCount: 2
Fore
SplineSet
23 36 m 0
 51 212 210 312 332 386 c 0
 418 438 500 492 514 580 c 0
 516 589 516 600 516 610 c 0
 516 667 488 728 385 728 c 0
 300 728 238 663 217 605 c 1
 122 614 l 1
 147 685 237 798 395 798 c 0
 574 798 608 687 608 614 c 0
 608 601 607 590 606 580 c 0
 586 455 465 379 381 327 c 0
 270 259 163 190 132 74 c 1
 534 74 l 1
 522 0 l 1
 22 0 l 1
 22 0 20 16 23 36 c 0
EndSplineSet
PickledDataWithLists: "(dp0
Vcom.fontlab.hintData
p1
(dp2
Vvhints
p3
(lp4
(dp5
Vwidth
p6
L10L
sVposition
p7
L71L
sa(dp8
g6
L10L
sg7
L81L
sa(dp9
g6
L10L
sg7
L501L
sa(dp10
g6
L10L
sg7
L599L
sa(dp11
g6
L10L
sg7
L639L
sasVhhints
p12
(lp13
(dp14
g6
L10L
sg7
L-13L
sa(dp15
g6
L10L
sg7
L61L
sa(dp16
g6
L10L
sg7
L74L
sa(dp17
g6
L10L
sg7
L620L
sa(dp18
g6
L10L
sg7
L740L
sa(dp19
g6
L10L
sg7
L809L
sass."
Substitution2: "Latin.dnom subtable" two.dnom
Substitution2: "Latin.numr subtable" two.numr
Substitution2: "Latin.subs subtable" two.subs
Substitution2: "Latin.sups subtable" two.sups
Substitution2: "Latin.pnum subtable" two.pnum
EndChar

StartChar: three
Encoding: 22 51 23
GlifName: three
Width: 660
VWidth: 0
Flags: MW
LayerCount: 2
Fore
SplineSet
6 122 m 1
 101 139 l 1
 108 106 135 44 249 44 c 0
 397 44 443 138 454 205 c 0
 455 214 456 223 456 232 c 0
 456 291 424 351 308 351 c 2
 208 351 l 1
 219 420 l 1
 309 420 l 2
 385 420 471 476 486 573 c 0
 488 582 488 593 488 603 c 0
 488 660 460 721 357 721 c 0
 272 721 209 655 188 597 c 1
 93 607 l 1
 118 678 208 791 366 791 c 0
 545 791 579 680 579 607 c 0
 579 594 578 583 577 573 c 0
 563 483 500 427 437 396 c 1
 526 367 552 298 552 240 c 0
 552 229 552 220 550 210 c 0
 538 132 472 -25 238 -25 c 0
 62 -25 15 78 6 122 c 1
EndSplineSet
PickledDataWithLists: "(dp0
Vcom.fontlab.hintData
p1
(dp2
Vvhints
p3
(lp4
(dp5
Vwidth
p6
L10L
sVposition
p7
L66L
sa(dp8
g6
L10L
sg7
L76L
sa(dp9
g6
L10L
sg7
L203L
sa(dp10
g6
L10L
sg7
L491L
sa(dp11
g6
L10L
sg7
L546L
sa(dp12
g6
L10L
sg7
L589L
sa(dp13
g6
L10L
sg7
L644L
sasVhhints
p14
(lp15
(dp16
g6
L10L
sg7
L-27L
sa(dp17
g6
L10L
sg7
L44L
sa(dp18
g6
L10L
sg7
L150L
sa(dp19
g6
L10L
sg7
L361L
sa(dp20
g6
L10L
sg7
L372L
sa(dp21
g6
L10L
sg7
L630L
sa(dp22
g6
L10L
sg7
L741L
sa(dp23
g6
L10L
sg7
L810L
sass."
Substitution2: "Latin.dnom subtable" three.dnom
Substitution2: "Latin.numr subtable" three.numr
Substitution2: "Latin.subs subtable" three.subs
Substitution2: "Latin.sups subtable" three.sups
Substitution2: "Latin.pnum subtable" three.pnum
EndChar

StartChar: four
Encoding: 23 52 24
GlifName: four
Width: 660
VWidth: 0
Flags: MW
LayerCount: 2
Fore
SplineSet
381 206 m 1
 18 206 l 1
 18 250 l 1
 484 786 l 1
 561 779 l 1
 481 274 l 1
 606 274 l 1
 596 206 l 1
 471 206 l 1
 438 0 l 1
 348 0 l 1
 381 206 l 1
393 274 m 1
 454 657 l 1
 123 274 l 1
 393 274 l 1
EndSplineSet
PickledDataWithLists: "(dp0
Vcom.fontlab.hintData
p1
(dp2
Vvhints
p3
(lp4
(dp5
Vwidth
p6
L10L
sVposition
p7
L31L
sa(dp8
g6
L10L
sg7
L276L
sa(dp9
g6
L10L
sg7
L374L
sa(dp10
g6
L10L
sg7
L455L
sa(dp11
g6
L10L
sg7
L554L
sa(dp12
g6
L10L
sg7
L679L
sasVhhints
p13
(lp14
(dp15
g6
L10L
sg7
L-30L
sa(dp16
g6
L10L
sg7
L174L
sa(dp17
g6
L10L
sg7
L243L
sa(dp18
g6
L10L
sg7
L259L
sa(dp19
g6
L10L
sg7
L609L
sa(dp20
g6
L10L
sg7
L819L
sass."
Substitution2: "Latin.dnom subtable" four.dnom
Substitution2: "Latin.numr subtable" four.numr
Substitution2: "Latin.subs subtable" four.subs
Substitution2: "Latin.sups subtable" four.sups
Substitution2: "Latin.pnum subtable" four.pnum
EndChar

StartChar: five
Encoding: 24 53 25
GlifName: five
Width: 660
VWidth: 0
Flags: MW
LayerCount: 2
Fore
SplineSet
27 129 m 1
 122 146 l 1
 129 113 156 51 270 51 c 0
 418 51 467 154 479 231 c 0
 481 246 483 261 483 276 c 0
 483 344 454 412 346 412 c 0
 270 412 195 359 160 317 c 1
 96 354 l 1
 178 780 l 1
 618 780 l 1
 607 711 l 1
 254 711 l 1
 199 421 l 1
 242 450 301 479 373 479 c 0
 542 479 577 362 577 279 c 0
 577 263 576 248 574 236 c 0
 561 152 493 -18 259 -18 c 0
 83 -18 36 85 27 129 c 1
EndSplineSet
PickledDataWithLists: "(dp0
Vcom.fontlab.hintData
p1
(dp2
Vvhints
p3
(lp4
(dp5
Vwidth
p6
L10L
sVposition
p7
L76L
sa(dp8
g6
L10L
sg7
L106L
sa(dp9
g6
L10L
sg7
L125L
sa(dp10
g6
L10L
sg7
L226L
sa(dp11
g6
L10L
sg7
L541L
sa(dp12
g6
L10L
sg7
L614L
sa(dp13
g6
L10L
sg7
L639L
sasVhhints
p14
(lp15
(dp16
g6
L10L
sg7
L-26L
sa(dp17
g6
L10L
sg7
L43L
sa(dp18
g6
L10L
sg7
L150L
sa(dp19
g6
L10L
sg7
L334L
sa(dp20
g6
L10L
sg7
L409L
sa(dp21
g6
L10L
sg7
L477L
sa(dp22
g6
L10L
sg7
L716L
sa(dp23
g6
L10L
sg7
L784L
sa(dp24
g6
L10L
sg7
L795L
sass."
Substitution2: "Latin.dnom subtable" five.dnom
Substitution2: "Latin.numr subtable" five.numr
Substitution2: "Latin.subs subtable" five.subs
Substitution2: "Latin.sups subtable" five.sups
Substitution2: "Latin.pnum subtable" five.pnum
EndChar

StartChar: six
Encoding: 25 54 26
GlifName: six
Width: 660
VWidth: 0
Flags: MW
LayerCount: 2
Fore
SplineSet
75 294 m 2
 97 438 l 2
 118 570 180 798 410 798 c 0
 578 798 613 686 620 642 c 1
 526 627 l 1
 520 666 497 728 399 728 c 0
 272 728 215 592 191 438 c 2
 186 405 l 1
 233 448 296 477 373 477 c 0
 528 477 578 375 578 277 c 0
 578 261 576 245 574 230 c 0
 552 94 446 -18 281 -18 c 0
 138 -18 68 63 68 207 c 0
 68 234 70 263 75 294 c 2
165 266 m 1
 162 245 161 226 161 208 c 0
 161 87 219 52 292 52 c 0
 384 52 462 111 481 230 c 0
 483 245 485 260 485 274 c 0
 485 350 448 411 347 411 c 0
 262 411 194 352 165 266 c 1
EndSplineSet
PickledDataWithLists: "(dp0
Vcom.fontlab.hintData
p1
(dp2
Vvhints
p3
(lp4
(dp5
Vwidth
p6
L10L
sVposition
p7
L32L
sa(dp8
g6
L10L
sg7
L90L
sa(dp9
g6
L10L
sg7
L188L
sa(dp10
g6
L10L
sg7
L464L
sa(dp11
g6
L10L
sg7
L560L
sa(dp12
g6
L10L
sg7
L658L
sasVhhints
p13
(lp14
(dp15
g6
L10L
sg7
L-29L
sa(dp16
g6
L10L
sg7
L39L
sa(dp17
g6
L10L
sg7
L251L
sa(dp18
g6
L10L
sg7
L397L
sa(dp19
g6
L10L
sg7
L466L
sa(dp20
g6
L10L
sg7
L819L
sass."
Substitution2: "Latin.dnom subtable" six.dnom
Substitution2: "Latin.numr subtable" six.numr
Substitution2: "Latin.subs subtable" six.subs
Substitution2: "Latin.sups subtable" six.sups
Substitution2: "Latin.pnum subtable" six.pnum
EndChar

StartChar: seven
Encoding: 26 55 27
GlifName: seven
Width: 660
VWidth: 0
Flags: MW
LayerCount: 2
Fore
SplineSet
124 706 m 1
 136 780 l 1
 634 780 l 1
 632 728 l 1
 496 576 324 283 286 45 c 2
 279 0 l 1
 181 0 l 1
 188 45 l 2
 223 268 385 542 517 706 c 1
 124 706 l 1
EndSplineSet
PickledDataWithLists: "(dp0
Vcom.fontlab.hintData
p1
(dp2
Vvhints
p3
(lp4
(dp5
Vwidth
p6
L10L
sVposition
p7
L69L
sa(dp8
g6
L10L
sg7
L199L
sa(dp9
g6
L10L
sg7
L274L
sa(dp10
g6
L10L
sg7
L648L
sasVhhints
p11
(lp12
(dp13
g6
L10L
sg7
L-19L
sa(dp14
g6
L10L
sg7
L554L
sa(dp15
g6
L10L
sg7
L716L
sa(dp16
g6
L10L
sg7
L784L
sa(dp17
g6
L10L
sg7
L795L
sass."
Substitution2: "Latin.dnom subtable" seven.dnom
Substitution2: "Latin.numr subtable" seven.numr
Substitution2: "Latin.subs subtable" seven.subs
Substitution2: "Latin.sups subtable" seven.sups
Substitution2: "Latin.pnum subtable" seven.pnum
EndChar

StartChar: eight
Encoding: 27 56 28
GlifName: eight
Width: 660
VWidth: 0
Flags: MW
LayerCount: 2
Fore
SplineSet
267 -18 m 0
 114 -18 25 61 25 167 c 0
 25 177 26 187 28 198 c 0
 49 329 155 381 228 401 c 1
 172 424 122 471 122 552 c 0
 122 563 123 574 125 586 c 0
 144 704 252 798 396 798 c 0
 526 798 604 722 604 620 c 0
 604 609 603 598 601 586 c 0
 585 484 512 427 440 401 c 1
 500 383 577 339 577 236 c 0
 577 224 576 211 574 198 c 0
 555 77 435 -18 267 -18 c 0
278 50 m 0
 387 50 463 106 478 198 c 0
 480 210 481 221 481 231 c 0
 481 307 431 340 380 353 c 0
 366 358 347 363 328 369 c 1
 307 363 288 358 272 353 c 0
 210 338 140 298 124 198 c 0
 122 189 122 180 122 171 c 0
 122 95 180 50 278 50 c 0
386 730 m 0
 307 730 233 682 218 586 c 0
 217 576 216 568 216 559 c 0
 216 492 258 455 301 443 c 0
 313 440 325 436 338 432 c 1
 353 436 367 440 379 443 c 0
 432 456 495 502 508 586 c 0
 510 596 510 606 510 615 c 0
 510 692 457 730 386 730 c 0
EndSplineSet
PickledDataWithLists: "(dp0
Vcom.fontlab.hintData
p1
(dp2
Vvhints
p3
(lp4
(dp5
Vwidth
p6
L10L
sVposition
p7
L76L
sa(dp8
g6
L10L
sg7
L87L
sa(dp9
g6
L10L
sg7
L174L
sa(dp10
g6
L10L
sg7
L185L
sa(dp11
g6
L10L
sg7
L549L
sa(dp12
g6
L10L
sg7
L584L
sa(dp13
g6
L10L
sg7
L594L
sa(dp14
g6
L10L
sg7
L649L
sasVhhints
p15
(lp16
(dp17
g6
L10L
sg7
L-24L
sa(dp18
g6
L10L
sg7
L44L
sa(dp19
g6
L9L
sg7
L394L
sa(dp20
g6
L10L
sg7
L610L
sa(dp21
g6
L10L
sg7
L651L
sa(dp22
g6
L10L
sg7
L741L
sa(dp23
g6
L10L
sg7
L809L
sass."
Substitution2: "Latin.dnom subtable" eight.dnom
Substitution2: "Latin.numr subtable" eight.numr
Substitution2: "Latin.subs subtable" eight.subs
Substitution2: "Latin.sups subtable" eight.sups
Substitution2: "Latin.pnum subtable" eight.pnum
EndChar

StartChar: nine
Encoding: 28 57 29
GlifName: nine
Width: 660
VWidth: 0
Flags: MW
LayerCount: 2
Fore
SplineSet
589 486 m 2
 566 342 l 2
 545 210 483 -18 253 -18 c 0
 85 -18 51 94 44 138 c 1
 137 153 l 1
 143 114 166 52 264 52 c 0
 391 52 448 188 472 342 c 2
 477 375 l 1
 430 332 368 303 291 303 c 0
 136 303 85 405 85 504 c 0
 85 520 87 535 89 550 c 0
 111 686 217 798 382 798 c 0
 525 798 596 717 596 573 c 0
 596 546 594 517 589 486 c 2
498 514 m 1
 501 535 502 554 502 572 c 0
 502 693 444 728 371 728 c 0
 279 728 201 669 182 550 c 0
 180 535 178 520 178 506 c 0
 178 430 215 369 316 369 c 0
 401 369 469 428 498 514 c 1
EndSplineSet
PickledDataWithLists: "(dp0
Vcom.fontlab.hintData
p1
(dp2
Vvhints
p3
(lp4
(dp5
Vwidth
p6
L10L
sVposition
p7
L52L
sa(dp8
g6
L10L
sg7
L150L
sa(dp9
g6
L10L
sg7
L246L
sa(dp10
g6
L10L
sg7
L521L
sa(dp11
g6
L10L
sg7
L620L
sa(dp12
g6
L10L
sg7
L678L
sasVhhints
p13
(lp14
(dp15
g6
L10L
sg7
L-29L
sa(dp16
g6
L10L
sg7
L324L
sa(dp17
g6
L10L
sg7
L393L
sa(dp18
g6
L10L
sg7
L539L
sa(dp19
g6
L10L
sg7
L751L
sa(dp20
g6
L10L
sg7
L819L
sass."
Substitution2: "Latin.dnom subtable" nine.dnom
Substitution2: "Latin.numr subtable" nine.numr
Substitution2: "Latin.subs subtable" nine.subs
Substitution2: "Latin.sups subtable" nine.sups
Substitution2: "Latin.pnum subtable" nine.pnum
EndChar

StartChar: colon
Encoding: 29 58 30
GlifName: colon
Width: 330
VWidth: 0
Flags: MW
LayerCount: 2
Fore
SplineSet
126 133 m 0
 163 133 188 112 188 78 c 0
 188 74 188 69 187 65 c 0
 180 23 146 -3 105 -3 c 0
 68 -3 42 18 42 53 c 0
 42 57 42 61 43 65 c 0
 50 107 85 133 126 133 c 0
193 553 m 0
 230 553 255 532 255 498 c 0
 255 494 255 489 254 485 c 0
 247 443 212 417 171 417 c 0
 134 417 109 438 109 472 c 0
 109 476 109 481 110 485 c 0
 117 527 152 553 193 553 c 0
EndSplineSet
PickledDataWithLists: "(dp0
Vcom.fontlab.hintData
p1
(dp2
Vvhints
p3
(lp4
(dp5
Vwidth
p6
L10L
sVposition
p7
L81L
sa(dp8
g6
L10L
sg7
L238L
sasVhhints
p9
(lp10
(dp11
g6
L10L
sg7
L-5L
sa(dp12
g6
L10L
sg7
L122L
sa(dp13
g6
L10L
sg7
L475L
sa(dp14
g6
L10L
sg7
L602L
sass."
EndChar

StartChar: semicolon
Encoding: 30 59 31
GlifName: semicolon
Width: 330
VWidth: 0
Flags: MW
LayerCount: 2
Fore
SplineSet
193 553 m 0
 230 553 255 532 255 498 c 0
 255 494 255 489 254 485 c 0
 247 443 212 417 171 417 c 0
 134 417 109 438 109 472 c 0
 109 476 109 481 110 485 c 0
 117 527 152 553 193 553 c 0
42 63 m 0
 48 104 81 133 125 133 c 0
 177 133 198 96 198 51 c 0
 198 43 197 34 196 25 c 0
 180 -79 100 -152 29 -195 c 1
 7 -156 l 1
 61 -123 110 -72 129 1 c 1
 121 -2 112 -3 102 -3 c 0
 66 -3 41 18 41 52 c 0
 41 56 41 59 42 63 c 0
EndSplineSet
PickledDataWithLists: "(dp0
Vcom.fontlab.hintData
p1
(dp2
Vvhints
p3
(lp4
(dp5
Vwidth
p6
L10L
sVposition
p7
L61L
sa(dp8
g6
L10L
sg7
L81L
sa(dp9
g6
L10L
sg7
L170L
sa(dp10
g6
L10L
sg7
L239L
sa(dp11
g6
L10L
sg7
L251L
sasVhhints
p12
(lp13
(dp14
g6
L10L
sg7
L-182L
sa(dp15
g6
L10L
sg7
L48L
sa(dp16
g6
L10L
sg7
L117L
sa(dp17
g6
L10L
sg7
L475L
sa(dp18
g6
L10L
sg7
L602L
sass."
EndChar

StartChar: less
Encoding: 31 60 32
GlifName: less
Width: 600
VWidth: 0
Flags: HMW
LayerCount: 2
Fore
SplineSet
90 334 m 1
 94 360 l 1
 98 386 l 1
 523 618 l 1
 529 548 l 1
 180 360 l 1
 469 172 l 1
 441 102 l 1
 90 334 l 1
EndSplineSet
PickledDataWithLists: "(dp0
Vcom.fontlab.hintData
p1
(dp2
Vvhints
p3
(lp4
(dp5
Vwidth
p6
L10L
sVposition
p7
L63L
sa(dp8
g6
L10L
sg7
L514L
sa(dp9
g6
L10L
sg7
L524L
sasVhhints
p10
(lp11
(dp12
g6
L10L
sg7
L65L
sa(dp13
g6
L10L
sg7
L606L
sass."
EndChar

StartChar: equal
Encoding: 32 61 33
GlifName: equal
Width: 600
VWidth: 0
Flags: MW
LayerCount: 2
Fore
SplineSet
104 422 m 1
 114 489 l 1
 520 489 l 1
 510 422 l 1
 104 422 l 1
74 231 m 1
 84 298 l 1
 490 298 l 1
 480 231 l 1
 74 231 l 1
EndSplineSet
PickledDataWithLists: "(dp0
Vcom.fontlab.hintData
p1
(dp2
Vvhints
p3
(lp4
(dp5
Vwidth
p6
L10L
sVposition
p7
L75L
sa(dp8
g6
L10L
sg7
L514L
sasVhhints
p9
(lp10
(dp11
g6
L10L
sg7
L201L
sa(dp12
g6
L10L
sg7
L263L
sa(dp13
g6
L10L
sg7
L271L
sa(dp14
g6
L10L
sg7
L401L
sa(dp15
g6
L10L
sg7
L463L
sa(dp16
g6
L10L
sg7
L471L
sass."
EndChar

StartChar: greater
Encoding: 33 62 34
GlifName: greater
Width: 600
VWidth: 0
Flags: HMW
LayerCount: 2
Fore
SplineSet
504 386 m 1
 500 360 l 1
 496 334 l 1
 71 102 l 1
 65 172 l 1
 414 360 l 1
 125 548 l 1
 153 618 l 1
 504 386 l 1
EndSplineSet
PickledDataWithLists: "(dp0
Vcom.fontlab.hintData
p1
(dp2
Vvhints
p3
(lp4
(dp5
Vwidth
p6
L10L
sVposition
p7
L66L
sa(dp8
g6
L10L
sg7
L76L
sa(dp9
g6
L10L
sg7
L527L
sasVhhints
p10
(lp11
(dp12
g6
L10L
sg7
L64L
sa(dp13
g6
L10L
sg7
L605L
sass."
EndChar

StartChar: question
Encoding: 34 63 35
GlifName: question
Width: 570
VWidth: 0
Flags: MW
LayerCount: 2
Fore
SplineSet
246 133 m 0
 283 133 308 112 308 78 c 0
 308 74 308 69 307 65 c 0
 300 23 266 -3 225 -3 c 0
 188 -3 162 18 162 53 c 0
 162 57 162 61 163 65 c 0
 170 107 205 133 246 133 c 0
105 650 m 0
 121 752 219 828 355 828 c 0
 470 828 541 770 541 672 c 0
 541 661 540 649 538 636 c 0
 512 472 300 430 281 309 c 0
 280 303 280 296 280 290 c 0
 280 276 282 263 286 250 c 1
 209 241 l 1
 203 258 200 275 200 292 c 0
 200 299 201 307 202 314 c 0
 227 470 421 501 442 633 c 0
 444 644 445 654 445 663 c 0
 445 732 397 757 342 757 c 0
 269 757 212 720 201 650 c 0
 200 640 199 630 199 620 c 0
 199 608 200 596 204 585 c 1
 111 561 l 1
 106 580 103 600 103 620 c 0
 103 630 103 640 105 650 c 0
EndSplineSet
PickledDataWithLists: "(dp0
Vcom.fontlab.hintData
p1
(dp2
Vvhints
p3
(lp4
(dp5
Vwidth
p6
L10L
sVposition
p7
L11L
sa(dp8
g6
L10L
sg7
L98L
sa(dp9
g6
L10L
sg7
L120L
sa(dp10
g6
L10L
sg7
L152L
sa(dp11
g6
L10L
sg7
L161L
sa(dp12
g6
L10L
sg7
L241L
sa(dp13
g6
L10L
sg7
L254L
sa(dp14
g6
L10L
sg7
L310L
sa(dp15
g6
L10L
sg7
L351L
sa(dp16
g6
L10L
sg7
L439L
sasVhhints
p17
(lp18
(dp19
g6
L10L
sg7
L-5L
sa(dp20
g6
L10L
sg7
L122L
sa(dp21
g6
L10L
sg7
L255L
sa(dp22
g6
L10L
sg7
L594L
sa(dp23
g6
L10L
sg7
L784L
sa(dp24
g6
L10L
sg7
L846L
sass."
EndChar

StartChar: at
Encoding: 35 64 36
GlifName: at
Width: 1020
VWidth: 0
Flags: MW
LayerCount: 2
Fore
SplineSet
62 236 m 0
 102 491 321 780 623 780 c 0
 844 780 944 641 944 472 c 0
 944 448 942 423 938 398 c 0
 912 233 786 40 645 40 c 0
 588 40 572 72 572 113 c 0
 572 116 572 118 572 121 c 1
 530 71 479 35 418 35 c 0
 308 35 270 108 270 187 c 0
 270 201 271 215 273 229 c 0
 295 367 422 561 614 561 c 0
 692 561 720 511 720 461 c 0
 720 454 719 446 718 439 c 0
 711 396 689 341 672 299 c 0
 650 234 636 186 631 153 c 0
 629 140 628 130 628 121 c 0
 628 96 637 87 653 87 c 0
 735 87 858 236 884 398 c 0
 888 422 890 445 890 467 c 0
 890 618 803 732 615 732 c 0
 357 732 154 478 116 236 c 0
 112 209 110 183 110 157 c 0
 110 -10 202 -142 420 -142 c 0
 490 -142 580 -105 609 -89 c 1
 633 -128 l 1
 596 -149 500 -190 412 -190 c 0
 158 -190 55 -32 55 152 c 0
 55 179 58 208 62 236 c 0
426 89 m 0
 504 89 563 178 610 307 c 0
 625 347 649 407 654 439 c 0
 655 445 655 451 655 456 c 0
 655 491 635 508 605 508 c 0
 485 508 364 363 343 229 c 0
 341 216 340 203 340 191 c 0
 340 126 372 89 426 89 c 0
EndSplineSet
PickledDataWithLists: "(dp0
Vcom.fontlab.hintData
p1
(dp2
Vvhints
p3
(lp4
(dp5
Vwidth
p6
L10L
sVposition
p7
L74L
sa(dp8
g6
L10L
sg7
L143L
sa(dp9
g6
L10L
sg7
L293L
sa(dp10
g6
L10L
sg7
L372L
sa(dp11
g6
L10L
sg7
L622L
sa(dp12
g6
L10L
sg7
L670L
sa(dp13
g6
L10L
sg7
L702L
sa(dp14
g6
L10L
sg7
L726L
sa(dp15
g6
L10L
sg7
L865L
sa(dp16
g6
L10L
sg7
L935L
sasVhhints
p17
(lp18
(dp19
g6
L10L
sg7
L-179L
sa(dp20
g6
L10L
sg7
L-131L
sa(dp21
g6
L10L
sg7
L-76L
sa(dp22
g6
L10L
sg7
L38L
sa(dp23
g6
L10L
sg7
L92L
sa(dp24
g6
L10L
sg7
L352L
sa(dp25
g6
L10L
sg7
L399L
sa(dp26
g6
L10L
sg7
L490L
sa(dp27
g6
L10L
sg7
L544L
sa(dp28
g6
L10L
sg7
L711L
sa(dp29
g6
L10L
sg7
L759L
sass."
EndChar

StartChar: A
Encoding: 36 65 37
GlifName: A_
Width: 750
VWidth: 0
Flags: MW
AnchorPoint: "LatinOgonek.mark" 610 0 basechar 0
AnchorPoint: "LatinBelow.mark" 315 0 basechar 0
AnchorPoint: "LatinAbove.mark" 339 150 basechar 0
LayerCount: 2
Fore
SplineSet
667 0 m 1
 559 0 l 1
 523 176 l 1
 163 176 l 1
 71 0 l 1
 -37 0 l 1
 -36 6 l 1
 399 780 l 1
 479 780 l 1
 668 6 l 1
 667 0 l 1
509 244 m 1
 421 670 l 1
 199 244 l 1
 509 244 l 1
EndSplineSet
PickledDataWithLists: "(dp0
Vcom.fontlab.hintData
p1
(dp2
Vvhints
p3
(lp4
(dp5
Vwidth
p6
L10L
sVposition
p7
L33L
sa(dp8
g6
L10L
sg7
L39L
sa(dp9
g6
L10L
sg7
L763L
sasVhhints
p10
(lp11
(dp12
g6
L10L
sg7
L-16L
sa(dp13
g6
L10L
sg7
L3L
sa(dp14
g6
L10L
sg7
L179L
sa(dp15
g6
L10L
sg7
L209L
sa(dp16
g6
L10L
sg7
L271L
sa(dp17
g6
L10L
sg7
L810L
sass."
EndChar

StartChar: B
Encoding: 37 66 38
GlifName: B_
Width: 745
VWidth: 0
Flags: MW
AnchorPoint: "LatinBelow.mark" 260 0 basechar 0
AnchorPoint: "LatinAbove.mark" 284 150 basechar 0
LayerCount: 2
Fore
SplineSet
503 430 m 1
 600 405 661 347 661 257 c 0
 661 246 660 234 658 221 c 0
 635 73 489 -9 309 -9 c 0
 197 -9 66 -2 38 0 c 1
 162 780 l 1
 186 782 303 789 403 789 c 0
 539 789 644 733 644 623 c 0
 644 614 644 604 642 594 c 0
 629 512 573 459 503 430 c 1
380 444 m 1
 455 452 535 497 549 587 c 0
 550 595 551 604 551 611 c 0
 551 688 482 721 382 721 c 0
 327 721 269 718 241 716 c 1
 198 439 l 1
 249 442 316 444 380 444 c 1
138 64 m 1
 180 62 250 60 310 60 c 0
 438 60 547 105 565 221 c 0
 566 231 567 239 567 248 c 0
 567 344 478 380 360 380 c 0
 300 380 230 378 188 376 c 1
 138 64 l 1
EndSplineSet
PickledDataWithLists: "(dp0
Vcom.fontlab.hintData
p1
(dp2
Vvhints
p3
(lp4
(dp5
Vwidth
p6
L10L
sVposition
p7
L26L
sa(dp8
g6
L10L
sg7
L116L
sa(dp9
g6
L10L
sg7
L121L
sa(dp10
g6
L10L
sg7
L223L
sa(dp11
g6
L10L
sg7
L537L
sa(dp12
g6
L10L
sg7
L636L
sa(dp13
g6
L10L
sg7
L735L
sasVhhints
p14
(lp15
(dp16
g6
L10L
sg7
L-22L
sa(dp17
g6
L10L
sg7
L49L
sa(dp18
g6
L10L
sg7
L395L
sa(dp19
g6
L10L
sg7
L634L
sa(dp20
g6
L10L
sg7
L661L
sa(dp21
g6
L10L
sg7
L742L
sa(dp22
g6
L10L
sg7
L809L
sass."
Colour: ff00
EndChar

StartChar: C
Encoding: 38 67 39
GlifName: C_
Width: 755
VWidth: 0
Flags: MW
AnchorPoint: "LatinCedilla.mark" 352 0 basechar 0
AnchorPoint: "LatinBelow.mark" 350 0 basechar 0
AnchorPoint: "LatinAbove.mark" 374 150 basechar 0
LayerCount: 2
Fore
SplineSet
72 405 m 2
 102 593 215 797 479 797 c 0
 673 797 741 671 742 591 c 1
 642 581 l 1
 640 642 590 724 468 724 c 0
 300 724 202 592 172 405 c 2
 167 373 l 2
 162 341 159 312 159 284 c 0
 159 146 222 54 362 54 c 0
 484 54 559 136 581 197 c 1
 678 187 l 1
 651 107 544 -19 350 -19 c 0
 130 -19 59 123 59 279 c 0
 59 310 62 342 67 373 c 2
 72 405 l 2
EndSplineSet
PickledDataWithLists: "(dp0
Vcom.fontlab.hintData
p1
(dp2
Vvhints
p3
(lp4
(dp5
Vwidth
p6
L10L
sVposition
p7
L68L
sa(dp8
g6
L10L
sg7
L172L
sa(dp9
g6
L10L
sg7
L569L
sa(dp10
g6
L10L
sg7
L673L
sa(dp11
g6
L10L
sg7
L707L
sasVhhints
p12
(lp13
(dp14
g6
L10L
sg7
L-20L
sa(dp15
g6
L10L
sg7
L52L
sa(dp16
g6
L10L
sg7
L169L
sa(dp17
g6
L10L
sg7
L586L
sa(dp18
g6
L10L
sg7
L739L
sa(dp19
g6
L10L
sg7
L811L
sass."
Colour: ff00
EndChar

StartChar: D
Encoding: 39 68 40
GlifName: D_
Width: 770
VWidth: 0
Flags: MW
AnchorPoint: "LatinBelow.mark" 260 0 basechar 0
AnchorPoint: "LatinAbove.mark" 284 150 basechar 0
LayerCount: 2
Fore
SplineSet
143 64 m 1
 173 63 212 61 240 61 c 0
 474 61 579 195 607 374 c 2
 612 406 l 2
 616 432 618 457 618 481 c 0
 618 621 544 719 344 719 c 0
 316 719 276 717 246 716 c 1
 143 64 l 1
162 780 m 1
 162 780 271 789 355 789 c 0
 623 789 713 644 713 482 c 0
 713 457 711 431 707 406 c 2
 702 374 l 2
 672 184 538 -9 229 -9 c 0
 145 -9 38 0 38 0 c 1
 162 780 l 1
EndSplineSet
PickledDataWithLists: "(dp0
Vcom.fontlab.hintData
p1
(dp2
Vvhints
p3
(lp4
(dp5
Vwidth
p6
L10L
sVposition
p7
L26L
sa(dp8
g6
L10L
sg7
L116L
sa(dp9
g6
L10L
sg7
L121L
sa(dp10
g6
L10L
sg7
L223L
sa(dp11
g6
L10L
sg7
L630L
sa(dp12
g6
L10L
sg7
L729L
sasVhhints
p13
(lp14
(dp15
g6
L10L
sg7
L-21L
sa(dp16
g6
L10L
sg7
L49L
sa(dp17
g6
L10L
sg7
L634L
sa(dp18
g6
L10L
sg7
L661L
sa(dp19
g6
L10L
sg7
L742L
sa(dp20
g6
L10L
sg7
L810L
sass."
EndChar

StartChar: E
Encoding: 40 69 41
GlifName: E_
Width: 675
VWidth: 0
Flags: MW
AnchorPoint: "LatinOgonek.mark" 485 0 basechar 0
AnchorPoint: "LatinBelow.mark" 290 0 basechar 0
AnchorPoint: "LatinAbove.mark" 314 150 basechar 0
LayerCount: 2
Fore
SplineSet
38 0 m 1
 162 780 l 1
 662 780 l 1
 650 706 l 1
 246 706 l 1
 201 420 l 1
 571 420 l 1
 559 350 l 1
 189 350 l 1
 146 74 l 1
 565 74 l 1
 553 0 l 1
 38 0 l 1
EndSplineSet
PickledDataWithLists: "(dp0
Vcom.fontlab.hintData
p1
(dp2
Vvhints
p3
(lp4
(dp5
Vwidth
p6
L10L
sVposition
p7
L66L
sa(dp8
g6
L10L
sg7
L106L
sa(dp9
g6
L10L
sg7
L121L
sa(dp10
g6
L10L
sg7
L204L
sa(dp11
g6
L10L
sg7
L220L
sa(dp12
g6
L10L
sg7
L564L
sa(dp13
g6
L10L
sg7
L644L
sa(dp14
g6
L10L
sg7
L674L
sasVhhints
p15
(lp16
(dp17
g6
L10L
sg7
L-24L
sa(dp18
g6
L10L
sg7
L-9L
sa(dp19
g6
L10L
sg7
L46L
sa(dp20
g6
L10L
sg7
L59L
sa(dp21
g6
L10L
sg7
L361L
sa(dp22
g6
L10L
sg7
L423L
sa(dp23
g6
L10L
sg7
L726L
sa(dp24
g6
L10L
sg7
L794L
sa(dp25
g6
L10L
sg7
L799L
sa(dp26
g6
L10L
sg7
L804L
sass."
Colour: ff00
EndChar

StartChar: F
Encoding: 41 70 42
GlifName: F_
Width: 640
VWidth: 0
Flags: MW
AnchorPoint: "LatinBelow.mark" 100 0 basechar 0
AnchorPoint: "LatinAbove.mark" 304 150 basechar 0
LayerCount: 2
Fore
SplineSet
38 0 m 1
 162 780 l 1
 652 780 l 1
 640 706 l 1
 246 706 l 1
 201 422 l 1
 561 422 l 1
 549 348 l 1
 189 348 l 1
 134 0 l 1
 38 0 l 1
EndSplineSet
PickledDataWithLists: "(dp0
Vcom.fontlab.hintData
p1
(dp2
Vvhints
p3
(lp4
(dp5
Vwidth
p6
L10L
sVposition
p7
L59L
sa(dp8
g6
L10L
sg7
L66L
sa(dp9
g6
L10L
sg7
L116L
sa(dp10
g6
L10L
sg7
L124L
sa(dp11
g6
L10L
sg7
L214L
sa(dp12
g6
L10L
sg7
L222L
sa(dp13
g6
L10L
sg7
L564L
sa(dp14
g6
L10L
sg7
L644L
sasVhhints
p15
(lp16
(dp17
g6
L10L
sg7
L-14L
sa(dp18
g6
L10L
sg7
L355L
sa(dp19
g6
L10L
sg7
L360L
sa(dp20
g6
L10L
sg7
L423L
sa(dp21
g6
L10L
sg7
L726L
sa(dp22
g6
L10L
sg7
L794L
sa(dp23
g6
L10L
sg7
L799L
sa(dp24
g6
L10L
sg7
L804L
sass."
Colour: ff00
EndChar

StartChar: G
Encoding: 42 71 43
GlifName: G_
Width: 770
VWidth: 0
Flags: MW
AnchorPoint: "LatinBelow.mark" 350 0 basechar 0
AnchorPoint: "LatinAbove.mark" 374 150 basechar 0
LayerCount: 2
Fore
SplineSet
411 311 m 1
 422 379 l 1
 703 379 l 1
 665 138 l 1
 625 74 522 -18 350 -18 c 0
 130 -18 59 123 59 279 c 0
 59 310 62 342 67 373 c 2
 72 407 l 2
 102 595 215 798 479 798 c 0
 673 798 741 672 742 592 c 1
 643 583 l 1
 641 644 592 726 468 726 c 0
 298 726 200 596 170 407 c 2
 165 373 l 2
 160 341 157 311 157 283 c 0
 157 144 221 54 362 54 c 0
 480 54 544 103 579 147 c 1
 605 311 l 1
 411 311 l 1
EndSplineSet
PickledDataWithLists: "(dp0
Vcom.fontlab.hintData
p1
(dp2
Vvhints
p3
(lp4
(dp5
Vwidth
p6
L10L
sVposition
p7
L71L
sa(dp8
g6
L10L
sg7
L169L
sa(dp9
g6
L10L
sg7
L386L
sa(dp10
g6
L10L
sg7
L572L
sa(dp11
g6
L10L
sg7
L615L
sa(dp12
g6
L10L
sg7
L670L
sa(dp13
g6
L10L
sg7
L715L
sasVhhints
p14
(lp15
(dp16
g6
L10L
sg7
L-24L
sa(dp17
g6
L10L
sg7
L44L
sa(dp18
g6
L10L
sg7
L290L
sa(dp19
g6
L10L
sg7
L390L
sa(dp20
g6
L10L
sg7
L587L
sa(dp21
g6
L10L
sg7
L741L
sa(dp22
g6
L10L
sg7
L810L
sass."
Colour: ff00
EndChar

StartChar: H
Encoding: 43 72 44
GlifName: H_
Width: 790
VWidth: 0
Flags: MW
AnchorPoint: "LatinBelow.mark" 335 0 basechar 0
AnchorPoint: "LatinAbove.mark" 359 150 basechar 0
LayerCount: 2
Fore
SplineSet
37 0 m 1
 161 780 l 1
 257 780 l 1
 201 427 l 1
 605 427 l 1
 661 780 l 1
 757 780 l 1
 633 0 l 1
 537 0 l 1
 593 353 l 1
 189 353 l 1
 133 0 l 1
 37 0 l 1
EndSplineSet
PickledDataWithLists: "(dp0
Vcom.fontlab.hintData
p1
(dp2
Vvhints
p3
(lp4
(dp5
Vwidth
p6
L10L
sVposition
p7
L66L
sa(dp8
g6
L10L
sg7
L101L
sa(dp9
g6
L10L
sg7
L111L
sa(dp10
g6
L10L
sg7
L211L
sa(dp11
g6
L10L
sg7
L605L
sa(dp12
g6
L10L
sg7
L704L
sa(dp13
g6
L10L
sg7
L744L
sasVhhints
p14
(lp15
(dp16
g6
L10L
sg7
L-14L
sa(dp17
g6
L10L
sg7
L355L
sa(dp18
g6
L10L
sg7
L423L
sa(dp19
g6
L10L
sg7
L794L
sa(dp20
g6
L10L
sg7
L799L
sass."
Colour: ff00
EndChar

StartChar: I
Encoding: 44 73 45
GlifName: I_
Width: 320
VWidth: 0
Flags: MW
AnchorPoint: "LatinOgonek.mark" 105 0 basechar 0
AnchorPoint: "LatinBelow.mark" 100 0 basechar 0
AnchorPoint: "LatinAbove.mark" 124 150 basechar 0
LayerCount: 2
Fore
SplineSet
52 0 m 1
 176 780 l 1
 272 780 l 1
 148 0 l 1
 52 0 l 1
EndSplineSet
PickledDataWithLists: "(dp0
Vcom.fontlab.hintData
p1
(dp2
Vvhints
p3
(lp4
(dp5
Vwidth
p6
L10L
sVposition
p7
L53L
sa(dp8
g6
L10L
sg7
L77L
sa(dp9
g6
L10L
sg7
L188L
sa(dp10
g6
L10L
sg7
L194L
sa(dp11
g6
L10L
sg7
L282L
sa(dp12
g6
L10L
sg7
L288L
sa(dp13
g6
L10L
sg7
L414L
sasVhhints
p14
(lp15
(dp16
g6
L10L
sg7
L-3L
sa(dp17
g6
L10L
sg7
L3L
sa(dp18
g6
L10L
sg7
L59L
sa(dp19
g6
L10L
sg7
L67L
sa(dp20
g6
L10L
sg7
L729L
sa(dp21
g6
L10L
sg7
L788L
sass."
Colour: ff00
EndChar

StartChar: J
Encoding: 45 74 46
GlifName: J_
Width: 520
VWidth: 0
Flags: MW
AnchorPoint: "LatinBelow.mark" 170 0 basechar 0
AnchorPoint: "LatinAbove.mark" 324 150 basechar 0
LayerCount: 2
Fore
SplineSet
-10 136 m 1
 87 143 l 1
 87 85 118 53 174 53 c 0
 230 53 281 84 293 162 c 2
 391 781 l 1
 487 781 l 1
 389 162 l 2
 373 63 288 -17 163 -17 c 0
 40 -17 -10 61 -10 134 c 0
 -10 135 -10 135 -10 136 c 1
EndSplineSet
PickledDataWithLists: "(dp0
Vcom.fontlab.hintData
p1
(dp2
Vvhints
p3
(lp4
(dp5
Vwidth
p6
L10L
sVposition
p7
L16L
sa(dp8
g6
L10L
sg7
L152L
sa(dp9
g6
L10L
sg7
L318L
sa(dp10
g6
L10L
sg7
L412L
sa(dp11
g6
L10L
sg7
L492L
sasVhhints
p12
(lp13
(dp14
g6
L10L
sg7
L-14L
sa(dp15
g6
L9L
sg7
L55L
sa(dp16
g6
L10L
sg7
L129L
sa(dp17
g6
L10L
sg7
L730L
sa(dp18
g6
L10L
sg7
L788L
sass."
Colour: ff00
EndChar

StartChar: K
Encoding: 46 75 47
GlifName: K_
Width: 715
VWidth: 0
Flags: MW
AnchorPoint: "LatinBelow.mark" 300 0 basechar 0
AnchorPoint: "LatinAbove.mark" 324 150 basechar 0
LayerCount: 2
Fore
SplineSet
37 0 m 1
 161 780 l 1
 253 780 l 1
 189 378 l 1
 612 780 l 1
 716 772 l 1
 716 768 l 1
 367 452 l 1
 643 5 l 1
 642 0 l 1
 529 0 l 1
 295 388 l 1
 173 276 l 1
 129 0 l 1
 37 0 l 1
EndSplineSet
PickledDataWithLists: "(dp0
Vcom.fontlab.hintData
p1
(dp2
Vvhints
p3
(lp4
(dp5
Vwidth
p6
L10L
sVposition
p7
L64L
sa(dp8
g6
L10L
sg7
L86L
sa(dp9
g6
L10L
sg7
L116L
sa(dp10
g6
L10L
sg7
L211L
sa(dp11
g6
L10L
sg7
L219L
sa(dp12
g6
L10L
sg7
L679L
sa(dp13
g6
L10L
sg7
L734L
sasVhhints
p14
(lp15
(dp16
g6
L10L
sg7
L-14L
sa(dp17
g6
L10L
sg7
L-9L
sa(dp18
g6
L10L
sg7
L799L
sass."
Colour: ff00
EndChar

StartChar: L
Encoding: 47 76 48
GlifName: L_
Width: 570
VWidth: 0
Flags: MW
AnchorPoint: "LatinBelow.mark" 260 0 basechar 0
AnchorPoint: "LatinAbove.mark" 124 150 basechar 0
LayerCount: 2
Fore
SplineSet
38 0 m 1
 162 780 l 1
 258 780 l 1
 146 74 l 1
 490 74 l 1
 478 0 l 1
 38 0 l 1
EndSplineSet
PickledDataWithLists: "(dp0
Vcom.fontlab.hintData
p1
(dp2
Vvhints
p3
(lp4
(dp5
Vwidth
p6
L10L
sVposition
p7
L126L
sa(dp8
g6
L10L
sg7
L131L
sa(dp9
g6
L10L
sg7
L144L
sa(dp10
g6
L10L
sg7
L224L
sa(dp11
g6
L10L
sg7
L242L
sa(dp12
g6
L10L
sg7
L624L
sasVhhints
p13
(lp14
(dp15
g6
L10L
sg7
L-23L
sa(dp16
g6
L10L
sg7
L-9L
sa(dp17
g6
L10L
sg7
L45L
sa(dp18
g6
L10L
sg7
L59L
sa(dp19
g6
L10L
sg7
L794L
sass."
Colour: ff00
EndChar

StartChar: M
Encoding: 48 77 49
GlifName: M_
Width: 880
VWidth: 0
Flags: MW
AnchorPoint: "LatinBelow.mark" 380 0 basechar 0
AnchorPoint: "LatinAbove.mark" 404 150 basechar 0
LayerCount: 2
Fore
SplineSet
723 0 m 1
 629 0 l 1
 724 600 l 1
 435 195 l 1
 387 195 l 1
 226 600 l 1
 131 0 l 1
 37 0 l 1
 159 771 l 1
 241 780 l 1
 427 294 l 1
 767 780 l 1
 845 771 l 1
 723 0 l 1
EndSplineSet
PickledDataWithLists: "(dp0
Vcom.fontlab.hintData
p1
(dp2
Vvhints
p3
(lp4
(dp5
Vwidth
p6
L10L
sVposition
p7
L66L
sa(dp8
g6
L10L
sg7
L102L
sa(dp9
g6
L10L
sg7
L197L
sa(dp10
g6
L10L
sg7
L691L
sa(dp11
g6
L10L
sg7
L785L
sa(dp12
g6
L10L
sg7
L824L
sasVhhints
p13
(lp14
(dp15
g6
L10L
sg7
L-19L
sa(dp16
g6
L10L
sg7
L-9L
sa(dp17
g6
L10L
sg7
L137L
sa(dp18
g6
L20L
sg7
L604L
sa(dp19
g6
L10L
sg7
L783L
sa(dp20
g6
L10L
sg7
L795L
sass."
Colour: ff00
EndChar

StartChar: N
Encoding: 49 78 50
GlifName: N_
Width: 790
VWidth: 0
Flags: MW
AnchorPoint: "LatinBelow.mark" 335 0 basechar 0
AnchorPoint: "LatinAbove.mark" 359 150 basechar 0
LayerCount: 2
Fore
SplineSet
38 0 m 1
 160 771 l 1
 244 780 l 1
 563 152 l 1
 663 780 l 1
 756 780 l 1
 632 0 l 1
 550 0 l 1
 230 628 l 1
 131 0 l 1
 38 0 l 1
EndSplineSet
PickledDataWithLists: "(dp0
Vcom.fontlab.hintData
p1
(dp2
Vvhints
p3
(lp4
(dp5
Vwidth
p6
L10L
sVposition
p7
L97L
sa(dp8
g6
L10L
sg7
L111L
sa(dp9
g6
L10L
sg7
L209L
sa(dp10
g6
L10L
sg7
L601L
sa(dp11
g6
L10L
sg7
L613L
sa(dp12
g6
L10L
sg7
L699L
sa(dp13
g6
L10L
sg7
L711L
sasVhhints
p14
(lp15
(dp16
g6
L10L
sg7
L-14L
sa(dp17
g6
L10L
sg7
L-8L
sa(dp18
g6
L10L
sg7
L794L
sass."
Colour: ff00
EndChar

StartChar: O
Encoding: 50 79 51
GlifName: O_
Width: 820
VWidth: 0
Flags: MW
AnchorPoint: "LatinOgonek.mark" 420 0 basechar 0
AnchorPoint: "LatinBelow.mark" 350 0 basechar 0
AnchorPoint: "LatinAbove.mark" 374 150 basechar 0
LayerCount: 2
Fore
SplineSet
67 372 m 2
 73 408 l 2
 102 594 213 798 476 798 c 0
 695 798 765 656 765 501 c 0
 765 470 762 439 757 408 c 2
 751 372 l 2
 722 186 610 -18 347 -18 c 0
 128 -18 59 123 59 278 c 0
 59 309 62 341 67 372 c 2
359 54 m 0
 528 54 624 186 653 372 c 2
 659 408 l 2
 664 439 666 469 666 497 c 0
 666 634 605 726 465 726 c 0
 296 726 200 594 171 408 c 2
 165 372 l 2
 160 341 158 311 158 283 c 0
 158 146 219 54 359 54 c 0
EndSplineSet
PickledDataWithLists: "(dp0
Vcom.fontlab.hintData
p1
(dp2
Vvhints
p3
(lp4
(dp5
Vwidth
p6
L10L
sVposition
p7
L66L
sa(dp8
g6
L10L
sg7
L164L
sa(dp9
g6
L10L
sg7
L572L
sa(dp10
g6
L10L
sg7
L659L
sa(dp11
g6
L10L
sg7
L690L
sa(dp12
g6
L10L
sg7
L757L
sasVhhints
p13
(lp14
(dp15
g6
L10L
sg7
L-22L
sa(dp16
g6
L10L
sg7
L47L
sa(dp17
g6
L10L
sg7
L742L
sa(dp18
g6
L10L
sg7
L811L
sass."
Colour: ff00
EndChar

StartChar: P
Encoding: 51 80 52
GlifName: P_
Width: 710
VWidth: 0
Flags: MW
AnchorPoint: "LatinBelow.mark" 100 0 basechar 0
AnchorPoint: "LatinAbove.mark" 324 150 basechar 0
LayerCount: 2
Fore
SplineSet
196 402 m 1
 232 400 286 398 343 398 c 0
 471 398 579 443 597 559 c 0
 599 569 599 578 599 587 c 0
 599 683 511 720 394 720 c 0
 337 720 281 718 245 716 c 1
 196 402 l 1
185 333 m 1
 132 0 l 1
 38 0 l 1
 92 338 l 1
 162 780 l 1
 190 782 303 789 415 789 c 0
 580 789 695 720 695 594 c 0
 695 583 694 571 692 559 c 0
 669 411 522 329 342 329 c 0
 286 329 231 331 185 333 c 1
EndSplineSet
PickledDataWithLists: "(dp0
Vcom.fontlab.hintData
p1
(dp2
Vvhints
p3
(lp4
(dp5
Vwidth
p6
L10L
sVposition
p7
L26L
sa(dp8
g6
L10L
sg7
L36L
sa(dp9
g6
L10L
sg7
L116L
sa(dp10
g6
L10L
sg7
L130L
sa(dp11
g6
L10L
sg7
L228L
sa(dp12
g6
L10L
sg7
L592L
sa(dp13
g6
L10L
sg7
L693L
sasVhhints
p14
(lp15
(dp16
g6
L10L
sg7
L-24L
sa(dp17
g6
L10L
sg7
L302L
sa(dp18
g6
L10L
sg7
L369L
sa(dp19
g6
L10L
sg7
L429L
sa(dp20
g6
L10L
sg7
L634L
sa(dp21
g6
L10L
sg7
L661L
sa(dp22
g6
L10L
sg7
L744L
sa(dp23
g6
L10L
sg7
L813L
sass."
Colour: ff00
EndChar

StartChar: Q
Encoding: 52 81 53
GlifName: Q_
Width: 820
VWidth: 0
Flags: MW
AnchorPoint: "LatinBelow.mark" 350 0 basechar 0
AnchorPoint: "LatinAbove.mark" 374 150 basechar 0
LayerCount: 2
Fore
SplineSet
67 372 m 2
 73 408 l 2
 102 594 213 798 476 798 c 0
 695 798 765 656 765 501 c 0
 765 470 762 439 757 408 c 2
 751 372 l 2
 737 283 703 189 643 116 c 1
 740 29 l 1
 690 -25 l 1
 593 65 l 1
 532 14 452 -18 347 -18 c 0
 128 -18 59 123 59 278 c 0
 59 309 62 341 67 372 c 2
374 269 m 1
 420 319 l 1
 580 173 l 1
 616 226 641 294 653 372 c 2
 659 408 l 2
 664 439 666 469 666 497 c 0
 666 634 605 726 465 726 c 0
 296 726 200 594 171 408 c 2
 165 372 l 2
 160 341 158 311 158 283 c 0
 158 146 219 54 359 54 c 0
 431 54 489 77 535 119 c 1
 374 269 l 1
EndSplineSet
PickledDataWithLists: "(dp0
Vcom.fontlab.hintData
p1
(dp2
Vvhints
p3
(lp4
(dp5
Vwidth
p6
L10L
sVposition
p7
L66L
sa(dp8
g6
L10L
sg7
L164L
sa(dp9
g6
L10L
sg7
L407L
sa(dp10
g6
L10L
sg7
L491L
sa(dp11
g6
L10L
sg7
L675L
sa(dp12
g6
L10L
sg7
L690L
sa(dp13
g6
L10L
sg7
L760L
sa(dp14
g6
L10L
sg7
L769L
sasVhhints
p15
(lp16
(dp17
g6
L10L
sg7
L-206L
sa(dp18
g6
L10L
sg7
L-17L
sa(dp19
g6
L10L
sg7
L46L
sa(dp20
g6
L10L
sg7
L514L
sa(dp21
g6
L10L
sg7
L576L
sa(dp22
g6
L10L
sg7
L598L
sa(dp23
g6
L10L
sg7
L742L
sa(dp24
g6
L10L
sg7
L811L
sass."
Colour: ff00
EndChar

StartChar: R
Encoding: 53 82 54
GlifName: R_
Width: 730
VWidth: 0
Flags: MW
AnchorPoint: "LatinBelow.mark" 300 0 basechar 0
AnchorPoint: "LatinAbove.mark" 324 150 basechar 0
LayerCount: 2
Fore
SplineSet
196 402 m 1
 232 400 286 398 343 398 c 0
 471 398 579 443 597 559 c 0
 599 569 599 578 599 587 c 0
 599 683 511 720 394 720 c 0
 337 720 281 718 245 716 c 1
 196 402 l 1
310 329 m 1
 265 330 222 331 185 333 c 1
 132 0 l 1
 38 0 l 1
 92 338 l 1
 162 780 l 1
 190 782 303 789 415 789 c 0
 580 789 695 720 695 594 c 0
 695 583 694 571 692 559 c 0
 672 431 559 352 413 333 c 1
 634 5 l 1
 633 0 l 1
 525 0 l 1
 310 329 l 1
EndSplineSet
PickledDataWithLists: "(dp0
Vcom.fontlab.hintData
p1
(dp2
Vvhints
p3
(lp4
(dp5
Vwidth
p6
L10L
sVposition
p7
L26L
sa(dp8
g6
L10L
sg7
L116L
sa(dp9
g6
L10L
sg7
L126L
sa(dp10
g6
L10L
sg7
L228L
sa(dp11
g6
L10L
sg7
L605L
sa(dp12
g6
L10L
sg7
L705L
sa(dp13
g6
L10L
sg7
L734L
sasVhhints
p14
(lp15
(dp16
g6
L10L
sg7
L-29L
sa(dp17
g6
L10L
sg7
L-24L
sa(dp18
g6
L10L
sg7
L332L
sa(dp19
g6
L10L
sg7
L401L
sa(dp20
g6
L10L
sg7
L430L
sa(dp21
g6
L10L
sg7
L634L
sa(dp22
g6
L10L
sg7
L661L
sa(dp23
g6
L10L
sg7
L745L
sa(dp24
g6
L10L
sg7
L812L
sass."
Colour: ff00
EndChar

StartChar: S
Encoding: 54 83 55
GlifName: S_
Width: 710
VWidth: 0
Flags: MW
AnchorPoint: "LatinCedilla.mark" 320 0 basechar 0
AnchorPoint: "LatinBelow.mark" 295 0 basechar 0
AnchorPoint: "LatinAbove.mark" 319 150 basechar 0
LayerCount: 2
Fore
SplineSet
30 177 m 1
 126 190 l 1
 126 128 177 52 303 52 c 0
 434 52 511 109 525 197 c 0
 526 205 527 214 527 221 c 0
 527 286 478 314 438 327 c 0
 383 343 300 370 244 392 c 0
 184 416 111 463 111 554 c 0
 111 563 111 573 113 583 c 0
 133 707 257 798 421 798 c 0
 593 798 661 685 663 607 c 1
 566 594 l 1
 564 656 516 728 410 728 c 0
 298 728 220 672 207 587 c 0
 206 581 206 575 206 569 c 0
 206 512 253 487 298 469 c 0
 351 449 433 421 484 405 c 0
 550 383 622 334 622 236 c 0
 622 225 621 213 619 201 c 0
 599 75 476 -18 292 -18 c 0
 103 -18 32 97 30 177 c 1
EndSplineSet
PickledDataWithLists: "(dp0
Vcom.fontlab.hintData
p1
(dp2
Vvhints
p3
(lp4
(dp5
Vwidth
p6
L10L
sVposition
p7
L60L
sa(dp8
g6
L10L
sg7
L68L
sa(dp9
g6
L10L
sg7
L159L
sa(dp10
g6
L10L
sg7
L494L
sa(dp11
g6
L10L
sg7
L555L
sa(dp12
g6
L10L
sg7
L594L
sa(dp13
g6
L10L
sg7
L654L
sasVhhints
p14
(lp15
(dp16
g6
L10L
sg7
L-22L
sa(dp17
g6
L10L
sg7
L46L
sa(dp18
g6
L10L
sg7
L192L
sa(dp19
g6
L10L
sg7
L584L
sa(dp20
g6
L10L
sg7
L744L
sa(dp21
g6
L10L
sg7
L812L
sass."
Colour: ff00
EndChar

StartChar: T
Encoding: 55 84 56
GlifName: T_
Width: 620
VWidth: 0
Flags: MW
AnchorPoint: "LatinCedilla.mark" 260 0 basechar 0
AnchorPoint: "LatinBelow.mark" 250 0 basechar 0
AnchorPoint: "LatinAbove.mark" 274 150 basechar 0
LayerCount: 2
Fore
SplineSet
89 708 m 1
 101 780 l 1
 647 780 l 1
 635 708 l 1
 410 708 l 1
 298 0 l 1
 202 0 l 1
 314 708 l 1
 89 708 l 1
EndSplineSet
PickledDataWithLists: "(dp0
Vcom.fontlab.hintData
p1
(dp2
Vvhints
p3
(lp4
(dp5
Vwidth
p6
L10L
sVposition
p7
L25L
sa(dp8
g6
L10L
sg7
L301L
sa(dp9
g6
L10L
sg7
L306L
sa(dp10
g6
L10L
sg7
L407L
sa(dp11
g6
L10L
sg7
L674L
sasVhhints
p12
(lp13
(dp14
g6
L10L
sg7
L-19L
sa(dp15
g6
L10L
sg7
L722L
sa(dp16
g6
L10L
sg7
L731L
sa(dp17
g6
L10L
sg7
L790L
sa(dp18
g6
L10L
sg7
L800L
sass."
Colour: ff00
EndChar

StartChar: U
Encoding: 56 85 57
GlifName: U_
Width: 770
VWidth: 0
Flags: MW
AnchorPoint: "LatinOgonek.mark" 420 0 basechar 0
AnchorPoint: "LatinBelow.mark" 325 0 basechar 0
AnchorPoint: "LatinAbove.mark" 349 150 basechar 0
LayerCount: 2
Fore
SplineSet
64 236 m 2
 151 780 l 1
 247 780 l 1
 160 236 l 2
 158 224 157 212 157 201 c 0
 157 105 228 54 334 54 c 0
 452 54 545 118 564 236 c 2
 651 780 l 1
 747 780 l 1
 660 236 l 2
 637 90 502 -18 322 -18 c 0
 159 -18 61 71 61 196 c 0
 61 209 62 222 64 236 c 2
EndSplineSet
PickledDataWithLists: "(dp0
Vcom.fontlab.hintData
p1
(dp2
Vvhints
p3
(lp4
(dp5
Vwidth
p6
L10L
sVposition
p7
L96L
sa(dp8
g6
L10L
sg7
L107L
sa(dp9
g6
L10L
sg7
L194L
sa(dp10
g6
L10L
sg7
L205L
sa(dp11
g6
L10L
sg7
L603L
sa(dp12
g6
L10L
sg7
L616L
sa(dp13
g6
L10L
sg7
L704L
sa(dp14
g6
L10L
sg7
L714L
sasVhhints
p15
(lp16
(dp17
g6
L10L
sg7
L-24L
sa(dp18
g6
L10L
sg7
L44L
sa(dp19
g6
L10L
sg7
L789L
sass."
EndChar

StartChar: V
Encoding: 57 86 58
GlifName: V_
Width: 750
VWidth: 0
Flags: MW
AnchorPoint: "LatinBelow.mark" 315 0 basechar 0
AnchorPoint: "LatinAbove.mark" 339 150 basechar 0
LayerCount: 2
Fore
SplineSet
89 764 m 1
 90 771 l 1
 204 780 l 1
 333 116 l 1
 674 780 l 1
 784 771 l 1
 783 764 l 1
 356 0 l 1
 274 0 l 1
 89 764 l 1
EndSplineSet
PickledDataWithLists: "(dp0
Vcom.fontlab.hintData
p1
(dp2
Vvhints
p3
(lp4
(dp5
Vwidth
p6
L10L
sVposition
p7
L41L
sa(dp8
g6
L10L
sg7
L759L
sasVhhints
p9
(lp10
(dp11
g6
L10L
sg7
L-21L
sa(dp12
g6
L10L
sg7
L781L
sa(dp13
g6
L10L
sg7
L794L
sass."
EndChar

StartChar: W
Encoding: 58 87 59
GlifName: W_
Width: 1060
VWidth: 0
Flags: MW
AnchorPoint: "LatinBelow.mark" 470 0 basechar 0
AnchorPoint: "LatinAbove.mark" 494 150 basechar 0
LayerCount: 2
Fore
SplineSet
1089 765 m 1
 738 0 l 1
 654 0 l 1
 569 624 l 1
 286 0 l 1
 202 0 l 1
 93 765 l 1
 94 771 l 1
 200 780 l 1
 271 129 l 1
 550 760 l 1
 630 760 l 1
 709 129 l 1
 988 780 l 1
 1090 771 l 1
 1089 765 l 1
EndSplineSet
PickledDataWithLists: "(dp0
Vcom.fontlab.hintData
p1
(dp2
Vvhints
p3
(lp4
(dp5
Vwidth
p6
L10L
sVposition
p7
L46L
sa(dp8
g6
L10L
sg7
L1045L
sasVhhints
p9
(lp10
(dp11
g6
L10L
sg7
L-10L
sa(dp12
g6
L10L
sg7
L762L
sa(dp13
g6
L10L
sg7
L790L
sass."
Colour: ff00
EndChar

StartChar: X
Encoding: 59 88 60
GlifName: X_
Width: 740
VWidth: 0
Flags: MW
AnchorPoint: "LatinBelow.mark" 310 0 basechar 0
AnchorPoint: "LatinAbove.mark" 334 150 basechar 0
LayerCount: 2
Fore
SplineSet
124 764 m 1
 125 770 l 1
 232 780 l 1
 386 475 l 1
 637 780 l 1
 740 770 l 1
 739 764 l 1
 430 415 l 1
 669 6 l 1
 668 0 l 1
 557 0 l 1
 365 340 l 1
 64 0 l 1
 -47 0 l 1
 -46 6 l 1
 323 415 l 1
 124 764 l 1
EndSplineSet
PickledDataWithLists: "(dp0
Vcom.fontlab.hintData
p1
(dp2
Vvhints
p3
(lp4
(dp5
Vwidth
p6
L10L
sVposition
p7
L31L
sa(dp8
g6
L10L
sg7
L91L
sa(dp9
g6
L10L
sg7
L687L
sa(dp10
g6
L10L
sg7
L734L
sasVhhints
p11
(lp12
(dp13
g6
L10L
sg7
L-9L
sa(dp14
g6
L10L
sg7
L4L
sa(dp15
g6
L10L
sg7
L789L
sass."
Colour: ff00
EndChar

StartChar: Y
Encoding: 60 89 61
GlifName: Y_
Width: 670
VWidth: 0
Flags: MW
AnchorPoint: "LatinBelow.mark" 275 0 basechar 0
AnchorPoint: "LatinAbove.mark" 299 150 basechar 0
LayerCount: 2
Fore
SplineSet
79 765 m 1
 80 772 l 1
 189 780 l 1
 337 392 l 1
 609 780 l 1
 714 772 l 1
 713 765 l 1
 371 301 l 1
 323 0 l 1
 227 0 l 1
 275 301 l 1
 79 765 l 1
EndSplineSet
PickledDataWithLists: "(dp0
Vcom.fontlab.hintData
p1
(dp2
Vvhints
p3
(lp4
(dp5
Vwidth
p6
L10L
sVposition
p7
L35L
sa(dp8
g6
L10L
sg7
L310L
sa(dp9
g6
L10L
sg7
L408L
sa(dp10
g6
L10L
sg7
L414L
sa(dp11
g6
L10L
sg7
L675L
sasVhhints
p12
(lp13
(dp14
g6
L10L
sg7
L-20L
sa(dp15
g6
L10L
sg7
L789L
sa(dp16
g6
L10L
sg7
L800L
sass."
EndChar

StartChar: Z
Encoding: 61 90 62
GlifName: Z_
Width: 670
VWidth: 0
Flags: MW
AnchorPoint: "LatinBelow.mark" 275 0 basechar 0
AnchorPoint: "LatinAbove.mark" 299 150 basechar 0
LayerCount: 2
Fore
SplineSet
-8 55 m 1
 542 706 l 1
 119 706 l 1
 131 780 l 1
 675 780 l 1
 673 725 l 1
 123 74 l 1
 580 74 l 1
 568 0 l 1
 -10 0 l 1
 -8 55 l 1
EndSplineSet
PickledDataWithLists: "(dp0
Vcom.fontlab.hintData
p1
(dp2
Vvhints
p3
(lp4
(dp5
Vwidth
p6
L10L
sVposition
p7
L46L
sa(dp8
g6
L10L
sg7
L66L
sa(dp9
g6
L10L
sg7
L679L
sa(dp10
g6
L10L
sg7
L699L
sasVhhints
p11
(lp12
(dp13
g6
L10L
sg7
L-13L
sa(dp14
g6
L10L
sg7
L64L
sa(dp15
g6
L10L
sg7
L75L
sa(dp16
g6
L10L
sg7
L709L
sa(dp17
g6
L10L
sg7
L779L
sa(dp18
g6
L10L
sg7
L785L
sa(dp19
g6
L10L
sg7
L790L
sass."
Colour: ff00
EndChar

StartChar: bracketleft
Encoding: 62 91 63
GlifName: bracketleft
Width: 435
VWidth: 0
Flags: MW
LayerCount: 2
Fore
SplineSet
48 -120 m 1
 210 900 l 1
 420 900 l 1
 411 844 l 1
 279 844 l 1
 135 -64 l 1
 265 -64 l 1
 256 -120 l 1
 48 -120 l 1
EndSplineSet
PickledDataWithLists: "(dp0
Vcom.fontlab.hintData
p1
(dp2
Vvhints
p3
(lp4
(dp5
Vwidth
p6
L10L
sVposition
p7
L71L
sa(dp8
g6
L10L
sg7
L92L
sa(dp9
g6
L10L
sg7
L161L
sa(dp10
g6
L10L
sg7
L289L
sasVhhints
p11
(lp12
(dp13
g6
L10L
sg7
L-91L
sa(dp14
g6
L10L
sg7
L-44L
sa(dp15
g6
L10L
sg7
L830L
sa(dp16
g6
L10L
sg7
L877L
sass."
EndChar

StartChar: backslash
Encoding: 63 92 64
GlifName: backslash
Width: 510
VWidth: 0
Flags: MW
LayerCount: 2
Fore
SplineSet
400 0 m 1
 318 0 l 1
 113 775 l 1
 114 780 l 1
 195 780 l 1
 401 5 l 1
 400 0 l 1
EndSplineSet
PickledDataWithLists: "(dp0
Vcom.fontlab.hintData
p1
(dp2
Vvhints
p3
(lp4
(dp5
Vwidth
p6
L10L
sVposition
p7
L40L
sa(dp8
g6
L10L
sg7
L430L
sasVhhints
p9
(lp10
(dp11
g6
L10L
sg7
L-29L
sa(dp12
g6
L10L
sg7
L819L
sass."
EndChar

StartChar: bracketright
Encoding: 64 93 65
GlifName: bracketright
Width: 435
VWidth: 0
Flags: MW
LayerCount: 2
Fore
SplineSet
391 900 m 1
 229 -120 l 1
 19 -120 l 1
 28 -64 l 1
 160 -64 l 1
 304 844 l 1
 174 844 l 1
 183 900 l 1
 391 900 l 1
EndSplineSet
PickledDataWithLists: "(dp0
Vcom.fontlab.hintData
p1
(dp2
Vvhints
p3
(lp4
(dp5
Vwidth
p6
L10L
sVposition
p7
L61L
sa(dp8
g6
L10L
sg7
L189L
sa(dp9
g6
L10L
sg7
L258L
sa(dp10
g6
L10L
sg7
L279L
sasVhhints
p11
(lp12
(dp13
g6
L10L
sg7
L-90L
sa(dp14
g6
L10L
sg7
L-42L
sa(dp15
g6
L10L
sg7
L829L
sa(dp16
g6
L10L
sg7
L879L
sass."
EndChar

StartChar: asciicircum
Encoding: 65 94 66
GlifName: asciicircum
Width: 630
VWidth: 0
Flags: MW
LayerCount: 2
Fore
SplineSet
70 586 m 1
 376 883 l 1
 413 883 l 1
 625 586 l 1
 573 553 l 1
 379 786 l 1
 111 553 l 1
 70 586 l 1
EndSplineSet
PickledDataWithLists: "(dp0
Vcom.fontlab.hintData
p1
(dp2
Vvhints
p3
(lp4
(dp5
Vwidth
p6
L10L
sVposition
p7
L23L
sasVhhints
p8
(lp9
(dp10
g6
L10L
sg7
L532L
sa(dp11
g6
L10L
sg7
L839L
sass."
EndChar

StartChar: underscore
Encoding: 66 95 67
GlifName: underscore
Width: 600
VWidth: 0
Flags: MW
LayerCount: 2
Fore
SplineSet
-60 0 m 25
 540 0 l 25
 529 -70 l 25
 -71 -70 l 25
 -60 0 l 25
EndSplineSet
PickledDataWithLists: "(dp0
Vcom.fontlab.hintData
p1
(dp2
Vvhints
p3
(lp4
(dp5
Vwidth
p6
L10L
sVposition
p7
L30L
sa(dp8
g6
L10L
sg7
L559L
sasVhhints
p9
(lp10
(dp11
g6
L10L
sg7
L-69L
sa(dp12
g6
L10L
sg7
L-6L
sa(dp13
g6
L10L
sg7
L1L
sass."
EndChar

StartChar: grave
Encoding: 67 96 68
GlifName: grave
Width: 390
VWidth: 0
Flags: MW
LayerCount: 2
Fore
SplineSet
79 830 m 1
 157 882 l 1
 386 586 l 1
 334 553 l 1
 79 830 l 1
EndSplineSet
PickledDataWithLists: "(dp0
Vcom.fontlab.hintData
p1
(dp2
Vvhints
p3
(lp4
(dp5
Vwidth
p6
L10L
sVposition
p7
L20L
sasVhhints
p8
(lp9
(dp10
g6
L10L
sg7
L541L
sa(dp11
g6
L10L
sg7
L838L
sass."
EndChar

StartChar: a
Encoding: 68 97 69
GlifName: a
Width: 625
VWidth: 0
Flags: MW
AnchorPoint: "LatinOgonek.mark" 455 0 basechar 0
AnchorPoint: "LatinBelow.mark" 270 0 basechar 0
AnchorPoint: "LatinAbove.mark" 250 0 basechar 0
LayerCount: 2
Fore
SplineSet
30 172 m 0
 42 249 116 320 242 320 c 0
 315 320 385 314 435 308 c 1
 453 422 l 2
 454 431 455 440 455 448 c 0
 455 519 402 552 327 552 c 0
 247 552 189 505 166 429 c 1
 77 435 l 1
 105 528 194 618 338 618 c 0
 466 618 543 551 543 454 c 0
 543 444 542 433 540 422 c 2
 495 137 l 2
 493 125 492 114 492 105 c 0
 492 68 509 52 550 47 c 1
 519 -13 l 1
 475 -8 418 14 416 89 c 1
 372 35 307 -13 213 -13 c 0
 97 -13 27 43 27 138 c 0
 27 149 28 160 30 172 c 0
430 252 m 1
 386 258 318 266 238 266 c 0
 180 266 128 232 118 171 c 0
 117 162 116 153 116 145 c 0
 116 75 168 43 232 43 c 0
 339 43 397 133 423 210 c 1
 430 252 l 1
EndSplineSet
PickledDataWithLists: "(dp0
Vcom.fontlab.hintData
p1
(dp2
Vvhints
p3
(lp4
(dp5
Vwidth
p6
L10L
sVposition
p7
L60L
sa(dp8
g6
L10L
sg7
L149L
sa(dp9
g6
L10L
sg7
L441L
sa(dp10
g6
L10L
sg7
L529L
sa(dp11
g6
L10L
sg7
L649L
sasVhhints
p12
(lp13
(dp14
g6
L10L
sg7
L-21L
sa(dp15
g6
L10L
sg7
L-11L
sa(dp16
g6
L10L
sg7
L41L
sa(dp17
g6
L10L
sg7
L362L
sa(dp18
g6
L10L
sg7
L432L
sa(dp19
g6
L10L
sg7
L549L
sa(dp20
g6
L10L
sg7
L611L
sass."
Substitution2: "Latin.ss20 subtable" uni0251
Substitution2: "Latin.ss19 subtable" uni0251
Colour: ff00
EndChar

StartChar: b
Encoding: 69 98 70
GlifName: b
Width: 675
VWidth: 0
Flags: MW
AnchorPoint: "LatinBelow.mark" 300 0 basechar 0
AnchorPoint: "LatinAbove.mark" 104 180 basechar 0
LayerCount: 2
Fore
SplineSet
602 312 m 2
 599 288 l 2
 577 146 487 -13 301 -13 c 0
 211 -13 161 42 134 106 c 1
 110 0 l 1
 33 0 l 1
 161 810 l 1
 248 810 l 1
 200 504 l 1
 247 563 315 613 400 613 c 0
 556 613 608 501 608 382 c 0
 608 359 606 335 602 312 c 2
180 378 m 1
 155 222 l 1
 161 140 202 54 302 54 c 0
 414 54 486 144 509 288 c 2
 512 312 l 2
 516 337 518 360 518 381 c 0
 518 484 472 546 379 546 c 0
 279 546 212 460 180 378 c 1
EndSplineSet
PickledDataWithLists: "(dp0
Vcom.fontlab.hintData
p1
(dp2
Vvhints
p3
(lp4
(dp5
Vwidth
p6
L10L
sVposition
p7
L81L
sa(dp8
g6
L10L
sg7
L91L
sa(dp9
g6
L10L
sg7
L179L
sa(dp10
g6
L10L
sg7
L211L
sa(dp11
g6
L10L
sg7
L504L
sa(dp12
g6
L10L
sg7
L593L
sasVhhints
p13
(lp14
(dp15
g6
L10L
sg7
L-21L
sa(dp16
g6
L10L
sg7
L41L
sa(dp17
g6
L10L
sg7
L524L
sa(dp18
g6
L10L
sg7
L546L
sa(dp19
g6
L10L
sg7
L607L
sa(dp20
g6
L10L
sg7
L836L
sass."
Colour: ff00
EndChar

StartChar: c
Encoding: 70 99 71
GlifName: c
Width: 605
VWidth: 0
Flags: MW
AnchorPoint: "LatinCedilla.mark" 270 0 basechar 0
AnchorPoint: "LatinBelow.mark" 270 0 basechar 0
AnchorPoint: "LatinAbove.mark" 270 0 basechar 0
LayerCount: 2
Fore
SplineSet
48 287 m 2
 53 313 l 2
 75 455 160 618 369 618 c 0
 523 618 575 518 575 455 c 1
 484 447 l 1
 483 493 444 551 358 551 c 0
 241 551 168 456 145 313 c 2
 140 287 l 2
 136 263 134 240 134 219 c 0
 134 115 182 49 279 49 c 0
 365 49 422 107 437 153 c 1
 526 145 l 1
 506 82 422 -18 268 -18 c 0
 94 -18 42 94 42 214 c 0
 42 238 44 263 48 287 c 2
EndSplineSet
PickledDataWithLists: "(dp0
Vcom.fontlab.hintData
p1
(dp2
Vvhints
p3
(lp4
(dp5
Vwidth
p6
L10L
sVposition
p7
L58L
sa(dp8
g6
L10L
sg7
L152L
sa(dp9
g6
L10L
sg7
L433L
sa(dp10
g6
L10L
sg7
L527L
sa(dp11
g6
L10L
sg7
L552L
sasVhhints
p12
(lp13
(dp14
g6
L10L
sg7
L-22L
sa(dp15
g6
L10L
sg7
L44L
sa(dp16
g6
L10L
sg7
L133L
sa(dp17
g6
L10L
sg7
L433L
sa(dp18
g6
L10L
sg7
L548L
sa(dp19
g6
L10L
sg7
L614L
sass."
Colour: ff00
EndChar

StartChar: d
Encoding: 71 100 72
GlifName: d
Width: 680
VWidth: 0
Flags: MW
AnchorPoint: "LatinBelow.mark" 300 0 basechar 0
AnchorPoint: "LatinAbove.mark" 494 180 basechar 0
LayerCount: 2
Fore
SplineSet
48 288 m 2
 51 312 l 2
 73 454 163 613 349 613 c 0
 437 613 487 561 514 500 c 1
 563 810 l 1
 650 810 l 1
 544 137 l 2
 542 125 541 114 541 105 c 0
 541 68 558 52 599 47 c 1
 568 -13 l 1
 524 -7 463 15 463 94 c 0
 463 100 463 107 464 114 c 1
 415 47 344 -13 250 -13 c 0
 94 -13 42 99 42 218 c 0
 42 241 44 265 48 288 c 2
495 378 m 1
 489 460 448 546 348 546 c 0
 236 546 164 456 141 312 c 2
 138 288 l 2
 134 263 132 240 132 219 c 0
 132 116 178 54 271 54 c 0
 371 54 438 140 470 222 c 1
 495 378 l 1
EndSplineSet
PickledDataWithLists: "(dp0
Vcom.fontlab.hintData
p1
(dp2
Vvhints
p3
(lp4
(dp5
Vwidth
p6
L10L
sVposition
p7
L61L
sa(dp8
g6
L10L
sg7
L149L
sa(dp9
g6
L10L
sg7
L476L
sa(dp10
g6
L10L
sg7
L564L
sa(dp11
g6
L10L
sg7
L679L
sasVhhints
p12
(lp13
(dp14
g6
L10L
sg7
L-21L
sa(dp15
g6
L10L
sg7
L41L
sa(dp16
g6
L10L
sg7
L544L
sa(dp17
g6
L10L
sg7
L606L
sa(dp18
g6
L10L
sg7
L836L
sass."
Colour: ff00
EndChar

StartChar: e
Encoding: 72 101 73
GlifName: e
Width: 640
VWidth: 0
Flags: MW
AnchorPoint: "LatinOgonek.mark" 350 0 basechar 0
AnchorPoint: "LatinBelow.mark" 270 0 basechar 0
AnchorPoint: "LatinAbove.mark" 270 0 basechar 0
LayerCount: 2
Fore
SplineSet
48 286 m 2
 53 314 l 2
 75 456 162 618 365 618 c 0
 511 618 579 524 579 410 c 0
 579 394 578 378 575 362 c 0
 571 337 565 311 556 286 c 1
 136 286 l 1
 132 261 130 239 130 217 c 0
 130 114 175 47 274 47 c 0
 364 47 422 107 437 153 c 1
 523 145 l 1
 502 81 416 -18 264 -18 c 0
 93 -18 42 93 42 212 c 0
 42 237 44 262 48 286 c 2
146 344 m 1
 487 344 l 1
 488 351 489 357 490 363 c 0
 493 380 494 395 494 410 c 0
 494 504 440 554 355 554 c 0
 245 554 174 470 146 344 c 1
EndSplineSet
PickledDataWithLists: "(dp0
Vcom.fontlab.hintData
p1
(dp2
Vvhints
p3
(lp4
(dp5
Vwidth
p6
L10L
sVposition
p7
L45L
sa(dp8
g6
L10L
sg7
L71L
sa(dp9
g6
L10L
sg7
L159L
sa(dp10
g6
L10L
sg7
L471L
sa(dp11
g6
L10L
sg7
L559L
sa(dp12
g6
L10L
sg7
L570L
sasVhhints
p13
(lp14
(dp15
g6
L10L
sg7
L-20L
sa(dp16
g6
L10L
sg7
L42L
sa(dp17
g6
L10L
sg7
L131L
sa(dp18
g6
L10L
sg7
L552L
sa(dp19
g6
L10L
sg7
L613L
sass."
Colour: ff00
EndChar

StartChar: f
Encoding: 73 102 74
GlifName: f
Width: 400
VWidth: 0
Flags: MW
AnchorPoint: "LatinBelow.mark" 120 0 basechar 0
AnchorPoint: "LatinAbove.mark" 239 180 basechar 0
LayerCount: 2
Fore
SplineSet
61 542 m 1
 70 600 l 1
 165 600 l 1
 178 683 l 2
 188 743 238 828 354 828 c 0
 431 828 472 794 484 784 c 1
 437 735 l 1
 425 744 398 765 350 765 c 0
 302 765 272 729 265 683 c 2
 252 600 l 1
 410 600 l 1
 401 542 l 1
 246 542 l 1
 160 0 l 1
 70 0 l 1
 156 542 l 1
 61 542 l 1
EndSplineSet
PickledDataWithLists: "(dp0
Vcom.fontlab.hintData
p1
(dp2
Vvhints
p3
(lp4
(dp5
Vwidth
p6
L10L
sVposition
p7
L20L
sa(dp8
g6
L10L
sg7
L132L
sa(dp9
g6
L10L
sg7
L166L
sa(dp10
g6
L9L
sg7
L219L
sa(dp11
g6
L10L
sg7
L255L
sa(dp12
g6
L10L
sg7
L399L
sa(dp13
g6
L10L
sg7
L469L
sasVhhints
p14
(lp15
(dp16
g6
L10L
sg7
L-20L
sa(dp17
g6
L10L
sg7
L521L
sa(dp18
g6
L10L
sg7
L586L
sa(dp19
g6
L10L
sg7
L591L
sa(dp20
g6
L10L
sg7
L759L
sa(dp21
g6
L10L
sg7
L803L
sa(dp22
g6
L10L
sg7
L864L
sass."
Colour: ff00
EndChar

StartChar: h
Encoding: 75 104 76
GlifName: h
Width: 665
VWidth: 0
Flags: MW
AnchorPoint: "LatinBelow.mark" 300 0 basechar 0
AnchorPoint: "LatinAbove.mark" 104 180 basechar 0
LayerCount: 2
Fore
SplineSet
33 0 m 1
 161 810 l 1
 249 810 l 1
 190 433 l 1
 246 524 335 613 453 613 c 0
 555 613 598 548 598 463 c 0
 598 449 597 435 595 421 c 2
 528 0 l 1
 438 0 l 1
 504 418 l 2
 506 430 507 441 507 451 c 0
 507 515 471 541 419 541 c 0
 310 541 206 412 171 301 c 1
 123 0 l 1
 33 0 l 1
EndSplineSet
PickledDataWithLists: "(dp0
Vcom.fontlab.hintData
p1
(dp2
Vvhints
p3
(lp4
(dp5
Vwidth
p6
L10L
sVposition
p7
L65L
sa(dp8
g6
L10L
sg7
L106L
sa(dp9
g6
L10L
sg7
L187L
sa(dp10
g6
L10L
sg7
L491L
sa(dp11
g6
L10L
sg7
L496L
sa(dp12
g6
L10L
sg7
L579L
sa(dp13
g6
L10L
sg7
L584L
sasVhhints
p14
(lp15
(dp16
g6
L10L
sg7
L-14L
sa(dp17
g6
L10L
sg7
L549L
sa(dp18
g6
L10L
sg7
L611L
sa(dp19
g6
L10L
sg7
L836L
sass."
Colour: ff00
EndChar

StartChar: i
Encoding: 76 105 77
GlifName: i
Width: 300
VWidth: 0
GlyphClass: 3
Flags: MW
AnchorPoint: "LatinOgonek.mark" 95 0 basechar 0
AnchorPoint: "LatinBelow.mark" 90 0 basechar 0
AnchorPoint: "LatinAbove.mark" 119 180 basechar 0
LayerCount: 2
Fore
SplineSet
45 0 m 1
 140 600 l 1
 230 600 l 1
 135 0 l 1
 45 0 l 1
224 848 m 0
 261 848 287 827 287 792 c 0
 287 788 287 784 286 780 c 0
 279 738 244 712 203 712 c 0
 166 712 141 733 141 767 c 0
 141 771 141 776 142 780 c 0
 149 822 183 848 224 848 c 0
EndSplineSet
PickledDataWithLists: "(dp0
Vcom.fontlab.hintData
p1
(dp2
Vvhints
p3
(lp4
(dp5
Vwidth
p6
L10L
sVposition
p7
L86L
sa(dp8
g6
L10L
sg7
L116L
sa(dp9
g6
L10L
sg7
L204L
sa(dp10
g6
L10L
sg7
L234L
sa(dp11
g6
L10L
sg7
L244L
sasVhhints
p12
(lp13
(dp14
g6
L10L
sg7
L-21L
sa(dp15
g6
L10L
sg7
L595L
sa(dp16
g6
L10L
sg7
L725L
sa(dp17
g6
L20L
sg7
L826L
sa(dp18
g6
L10L
sg7
L852L
sass."
Substitution2: "Latin.ij.dotless subtable" dotlessi
Ligature2: "Latin.ij subtable" dotlessi uni0307
EndChar

StartChar: j
Encoding: 77 106 78
GlifName: j
Width: 310
VWidth: 0
GlyphClass: 3
Flags: MW
AnchorPoint: "LatinBelow.mark" 61 -180 basechar 0
AnchorPoint: "LatinAbove.mark" 119 180 basechar 0
LayerCount: 2
Fore
SplineSet
-85 -164 m 1
 -12 -140 40 -102 53 -19 c 2
 151 600 l 1
 241 600 l 1
 142 -24 l 2
 125 -133 32 -195 -66 -223 c 1
 -85 -164 l 1
235 848 m 0
 272 848 298 827 298 792 c 0
 298 788 298 784 297 780 c 0
 290 738 255 712 214 712 c 0
 177 712 152 733 152 767 c 0
 152 771 152 776 153 780 c 0
 160 822 194 848 235 848 c 0
EndSplineSet
PickledDataWithLists: "(dp0
Vcom.fontlab.hintData
p1
(dp2
Vvhints
p3
(lp4
(dp5
Vwidth
p6
L10L
sVposition
p7
L31L
sa(dp8
g6
L10L
sg7
L86L
sa(dp9
g6
L10L
sg7
L126L
sa(dp10
g6
L10L
sg7
L146L
sa(dp11
g6
L10L
sg7
L234L
sa(dp12
g6
L10L
sg7
L244L
sasVhhints
p13
(lp14
(dp15
g6
L10L
sg7
L-246L
sa(dp16
g6
L10L
sg7
L596L
sa(dp17
g6
L10L
sg7
L725L
sa(dp18
g6
L20L
sg7
L826L
sa(dp19
g6
L10L
sg7
L852L
sass."
Substitution2: "Latin.ij.dotless subtable" uni0237
Ligature2: "Latin.ij subtable" uni0237 uni200D uni0307
Ligature2: "Latin.ij subtable" uni0237 uni0307
Ligature2: "Latin.ij subtable" dotlessi uni200D uni0307
EndChar

StartChar: k
Encoding: 78 107 79
GlifName: k
Width: 605
VWidth: 0
Flags: MW
AnchorPoint: "LatinBelow.mark" 300 0 basechar 0
AnchorPoint: "LatinAbove.mark" 104 180 basechar 0
LayerCount: 2
Fore
SplineSet
42 0 m 1
 170 810 l 1
 256 810 l 1
 176 305 l 1
 494 600 l 1
 591 594 l 1
 590 590 l 1
 315 345 l 1
 533 4 l 1
 532 0 l 1
 428 0 l 1
 248 287 l 1
 161 209 l 1
 128 0 l 1
 42 0 l 1
EndSplineSet
PickledDataWithLists: "(dp0
Vcom.fontlab.hintData
p1
(dp2
Vvhints
p3
(lp4
(dp5
Vwidth
p6
L10L
sVposition
p7
L75L
sa(dp8
g6
L10L
sg7
L105L
sa(dp9
g6
L10L
sg7
L194L
sa(dp10
g6
L10L
sg7
L539L
sa(dp11
g6
L10L
sg7
L580L
sasVhhints
p12
(lp13
(dp14
g6
L10L
sg7
L-11L
sa(dp15
g6
L10L
sg7
L596L
sa(dp16
g6
L10L
sg7
L836L
sass."
Colour: ff00
EndChar

StartChar: l
Encoding: 79 108 80
GlifName: l
Width: 315
VWidth: 0
Flags: MW
AnchorPoint: "LatinBelow.mark" 130 0 basechar 0
AnchorPoint: "LatinAbove.mark" 109 180 basechar 0
LayerCount: 2
Fore
SplineSet
59 122 m 2
 168 810 l 1
 258 810 l 1
 151 130 l 2
 150 124 149 118 149 113 c 0
 149 67 187 52 247 47 c 1
 220 -13 l 1
 149 -7 57 12 57 99 c 0
 57 106 58 114 59 122 c 2
EndSplineSet
PickledDataWithLists: "(dp0
Vcom.fontlab.hintData
p1
(dp2
Vvhints
p3
(lp4
(dp5
Vwidth
p6
L10L
sVposition
p7
L106L
sa(dp8
g6
L10L
sg7
L111L
sa(dp9
g6
L10L
sg7
L194L
sa(dp10
g6
L10L
sg7
L199L
sa(dp11
g6
L10L
sg7
L315L
sasVhhints
p12
(lp13
(dp14
g6
L10L
sg7
L-23L
sa(dp15
g6
L10L
sg7
L830L
sass."
EndChar

StartChar: m
Encoding: 80 109 81
GlifName: m
Width: 945
VWidth: 0
Flags: MW
AnchorPoint: "LatinBelow.mark" 420 0 basechar 0
AnchorPoint: "LatinAbove.mark" 420 0 basechar 0
LayerCount: 2
Fore
SplineSet
116 595 m 1
 200 603 l 1
 191 464 l 1
 235 540 301 607 398 607 c 0
 490 607 534 546 535 467 c 1
 579 542 645 607 740 607 c 0
 835 607 877 543 877 461 c 0
 877 448 876 434 874 420 c 2
 807 0 l 1
 717 0 l 1
 783 418 l 2
 785 431 786 442 786 452 c 0
 786 512 753 536 707 536 c 0
 617 536 549 428 517 328 c 1
 465 0 l 1
 375 0 l 1
 441 418 l 2
 443 430 444 442 444 452 c 0
 444 513 410 536 364 536 c 0
 272 536 204 423 173 322 c 1
 122 0 l 1
 32 0 l 1
 99 420 l 1
 116 595 l 1
EndSplineSet
PickledDataWithLists: "(dp0
Vcom.fontlab.hintData
p1
(dp2
Vvhints
p3
(lp4
(dp5
Vwidth
p6
L10L
sVposition
p7
L76L
sa(dp8
g6
L10L
sg7
L96L
sa(dp9
g6
L10L
sg7
L167L
sa(dp10
g6
L10L
sg7
L436L
sa(dp11
g6
L10L
sg7
L441L
sa(dp12
g6
L10L
sg7
L776L
sa(dp13
g6
L10L
sg7
L781L
sa(dp14
g6
L10L
sg7
L864L
sa(dp15
g6
L10L
sg7
L869L
sasVhhints
p16
(lp17
(dp18
g6
L10L
sg7
L-19L
sa(dp19
g6
L10L
sg7
L-10L
sa(dp20
g6
L10L
sg7
L549L
sa(dp21
g6
L10L
sg7
L606L
sa(dp22
g6
L10L
sg7
L611L
sass."
Colour: ff00
EndChar

StartChar: n
Encoding: 81 110 82
GlifName: n
Width: 655
VWidth: 0
Flags: MW
AnchorPoint: "LatinBelow.mark" 300 0 basechar 0
AnchorPoint: "LatinAbove.mark" 270 0 basechar 0
LayerCount: 2
Fore
SplineSet
32 0 m 1
 99 420 l 1
 116 595 l 1
 200 603 l 1
 189 438 l 1
 243 527 329 613 444 613 c 0
 543 613 587 548 587 463 c 0
 587 449 586 435 584 421 c 2
 517 0 l 1
 427 0 l 1
 493 418 l 2
 495 430 496 442 496 452 c 0
 496 515 460 541 411 541 c 0
 304 541 205 413 170 302 c 1
 122 0 l 1
 32 0 l 1
EndSplineSet
PickledDataWithLists: "(dp0
Vcom.fontlab.hintData
p1
(dp2
Vvhints
p3
(lp4
(dp5
Vwidth
p6
L10L
sVposition
p7
L55L
sa(dp8
g6
L10L
sg7
L96L
sa(dp9
g6
L10L
sg7
L481L
sa(dp10
g6
L10L
sg7
L486L
sa(dp11
g6
L10L
sg7
L569L
sa(dp12
g6
L10L
sg7
L574L
sasVhhints
p13
(lp14
(dp15
g6
L10L
sg7
L-15L
sa(dp16
g6
L10L
sg7
L-10L
sa(dp17
g6
L10L
sg7
L549L
sa(dp18
g6
L10L
sg7
L606L
sa(dp19
g6
L10L
sg7
L611L
sass."
Substitution2: "Latin.sups subtable" n.sups
Substitution2: "Latin.sups subtable" n.sups
Colour: ff00
EndChar

StartChar: o
Encoding: 82 111 83
GlifName: o
Width: 660
VWidth: 0
Flags: MW
AnchorPoint: "LatinOgonek.mark" 340 0 basechar 0
AnchorPoint: "LatinBelow.mark" 270 0 basechar 0
AnchorPoint: "LatinAbove.mark" 270 0 basechar 0
LayerCount: 2
Fore
SplineSet
47 286 m 2
 52 314 l 2
 74 456 160 618 368 618 c 0
 541 618 594 506 594 386 c 0
 594 362 592 338 588 314 c 2
 583 286 l 2
 561 144 475 -18 267 -18 c 0
 94 -18 41 94 41 214 c 0
 41 238 43 262 47 286 c 2
278 48 m 0
 398 48 470 143 493 286 c 2
 498 314 l 2
 502 338 504 361 504 382 c 0
 504 486 457 552 357 552 c 0
 237 552 165 457 142 314 c 2
 137 286 l 2
 133 262 131 239 131 218 c 0
 131 114 178 48 278 48 c 0
EndSplineSet
PickledDataWithLists: "(dp0
Vcom.fontlab.hintData
p1
(dp2
Vvhints
p3
(lp4
(dp5
Vwidth
p6
L10L
sVposition
p7
L61L
sa(dp8
g6
L10L
sg7
L149L
sa(dp9
g6
L10L
sg7
L441L
sa(dp10
g6
L10L
sg7
L506L
sa(dp11
g6
L10L
sg7
L594L
sasVhhints
p12
(lp13
(dp14
g6
L10L
sg7
L-21L
sa(dp15
g6
L9L
sg7
L42L
sa(dp16
g6
L10L
sg7
L552L
sa(dp17
g6
L10L
sg7
L614L
sass."
Colour: ff00
EndChar

StartChar: p
Encoding: 83 112 84
GlifName: p
Width: 675
VWidth: 0
Flags: MW
AnchorPoint: "LatinBelow.mark" 61 -180 basechar 0
AnchorPoint: "LatinAbove.mark" 270 0 basechar 0
LayerCount: 2
Fore
SplineSet
602 312 m 2
 599 288 l 2
 577 146 487 -13 301 -13 c 0
 216 -13 166 37 138 96 c 1
 90 -210 l 1
 -0 -210 l 1
 100 420 l 1
 117 595 l 1
 201 603 l 1
 194 497 l 1
 242 559 311 613 400 613 c 0
 556 613 608 501 608 382 c 0
 608 359 606 335 602 312 c 2
156 210 m 1
 165 132 207 54 302 54 c 0
 414 54 486 144 509 288 c 2
 512 312 l 2
 516 337 518 360 518 381 c 0
 518 484 472 546 379 546 c 0
 284 546 218 468 185 390 c 1
 156 210 l 1
EndSplineSet
PickledDataWithLists: "(dp0
Vcom.fontlab.hintData
p1
(dp2
Vvhints
p3
(lp4
(dp5
Vwidth
p6
L10L
sVposition
p7
L41L
sa(dp8
g6
L10L
sg7
L101L
sa(dp9
g6
L10L
sg7
L108L
sa(dp10
g6
L10L
sg7
L193L
sa(dp11
g6
L10L
sg7
L523L
sa(dp12
g6
L10L
sg7
L612L
sasVhhints
p13
(lp14
(dp15
g6
L10L
sg7
L-246L
sa(dp16
g6
L10L
sg7
L-16L
sa(dp17
g6
L10L
sg7
L46L
sa(dp18
g6
L10L
sg7
L549L
sa(dp19
g6
L10L
sg7
L610L
sass."
Colour: ff00
EndChar

StartChar: q
Encoding: 84 113 85
GlifName: q
Width: 675
VWidth: 0
Flags: MW
AnchorPoint: "LatinBelow.mark" 437 -240 basechar 0
AnchorPoint: "LatinAbove.mark" 300 0 basechar 0
LayerCount: 2
Fore
SplineSet
48 288 m 2
 51 312 l 2
 73 454 163 613 349 613 c 0
 439 613 489 558 516 494 c 1
 540 600 l 1
 617 600 l 1
 489 -210 l 1
 402 -210 l 1
 450 96 l 1
 403 37 335 -13 250 -13 c 0
 94 -13 42 99 42 218 c 0
 42 241 44 265 48 288 c 2
470 222 m 1
 495 378 l 1
 489 460 448 546 348 546 c 0
 236 546 164 456 141 312 c 2
 138 288 l 2
 134 263 132 240 132 219 c 0
 132 116 178 54 271 54 c 0
 371 54 438 140 470 222 c 1
EndSplineSet
PickledDataWithLists: "(dp0
Vcom.fontlab.hintData
p1
(dp2
Vvhints
p3
(lp4
(dp5
Vwidth
p6
L10L
sVposition
p7
L59L
sa(dp8
g6
L10L
sg7
L149L
sa(dp9
g6
L10L
sg7
L444L
sa(dp10
g6
L10L
sg7
L459L
sa(dp11
g6
L10L
sg7
L471L
sa(dp12
g6
L10L
sg7
L547L
sa(dp13
g6
L10L
sg7
L559L
sa(dp14
g6
L10L
sg7
L649L
sasVhhints
p15
(lp16
(dp17
g6
L10L
sg7
L-261L
sa(dp18
g6
L10L
sg7
L-184L
sa(dp19
g6
L10L
sg7
L-17L
sa(dp20
g6
L10L
sg7
L44L
sa(dp21
g6
L10L
sg7
L66L
sa(dp22
g6
L10L
sg7
L549L
sa(dp23
g6
L10L
sg7
L611L
sass."
Colour: ff00
EndChar

StartChar: r
Encoding: 85 114 86
GlifName: r
Width: 435
VWidth: 0
Flags: MW
AnchorPoint: "LatinBelow.mark" 110 0 basechar 0
AnchorPoint: "LatinAbove.mark" 180 0 basechar 0
LayerCount: 2
Fore
SplineSet
111 594 m 1
 189 603 l 1
 199 453 l 1
 236 535 297 613 394 613 c 0
 422 613 443 607 462 598 c 1
 416 524 l 1
 403 531 388 535 368 535 c 0
 280 535 222 428 194 327 c 1
 142 0 l 1
 52 0 l 1
 120 427 l 1
 111 594 l 1
EndSplineSet
PickledDataWithLists: "(dp0
Vcom.fontlab.hintData
p1
(dp2
Vvhints
p3
(lp4
(dp5
Vwidth
p6
L10L
sVposition
p7
L20L
sa(dp8
g6
L10L
sg7
L171L
sa(dp9
g6
L10L
sg7
L261L
sa(dp10
g6
L10L
sg7
L479L
sasVhhints
p11
(lp12
(dp13
g6
L10L
sg7
L-13L
sa(dp14
g6
L10L
sg7
L524L
sa(dp15
g6
L10L
sg7
L549L
sa(dp16
g6
L10L
sg7
L596L
sa(dp17
g6
L10L
sg7
L611L
sass."
Colour: ff00
EndChar

StartChar: s
Encoding: 86 115 87
GlifName: s
Width: 570
VWidth: 0
Flags: MW
AnchorPoint: "LatinCedilla.mark" 250 0 basechar 0
AnchorPoint: "LatinBelow.mark" 225 0 basechar 0
AnchorPoint: "LatinAbove.mark" 225 0 basechar 0
LayerCount: 2
Fore
SplineSet
14 137 m 1
 103 147 l 1
 104 100 142 47 235 47 c 0
 327 47 385 89 395 153 c 0
 396 159 396 165 396 170 c 0
 396 218 358 240 329 249 c 0
 286 263 224 281 183 297 c 0
 135 315 77 351 77 424 c 0
 77 432 78 440 79 448 c 0
 95 546 190 618 322 618 c 0
 462 618 514 529 515 467 c 1
 426 455 l 1
 425 501 392 553 312 553 c 0
 232 553 175 514 165 451 c 0
 164 447 164 442 164 438 c 0
 164 396 200 374 231 363 c 0
 273 349 336 329 374 317 c 0
 428 300 484 264 484 185 c 0
 484 176 484 166 482 155 c 0
 466 56 365 -18 221 -18 c 0
 69 -18 16 73 14 137 c 1
EndSplineSet
PickledDataWithLists: "(dp0
Vcom.fontlab.hintData
p1
(dp2
Vvhints
p3
(lp4
(dp5
Vwidth
p6
L10L
sVposition
p7
L60L
sa(dp8
g6
L10L
sg7
L139L
sa(dp9
g6
L10L
sg7
L381L
sa(dp10
g6
L10L
sg7
L431L
sa(dp11
g6
L10L
sg7
L470L
sa(dp12
g6
L10L
sg7
L516L
sasVhhints
p13
(lp14
(dp15
g6
L10L
sg7
L-20L
sa(dp16
g6
L10L
sg7
L42L
sa(dp17
g6
L10L
sg7
L151L
sa(dp18
g6
L10L
sg7
L434L
sa(dp19
g6
L10L
sg7
L554L
sa(dp20
g6
L10L
sg7
L616L
sass."
Colour: ff00
EndChar

StartChar: t
Encoding: 87 116 88
GlifName: t
Width: 415
VWidth: 0
Flags: MW
AnchorPoint: "LatinCedilla.mark" 210 0 basechar 0
AnchorPoint: "LatinBelow.mark" 220 0 basechar 0
AnchorPoint: "LatinAbove.mark" 139 120 basechar 0
LayerCount: 2
Fore
SplineSet
61 542 m 1
 70 600 l 1
 168 600 l 1
 188 728 l 1
 275 735 l 1
 254 600 l 1
 410 600 l 1
 401 542 l 1
 246 542 l 1
 181 133 l 2
 179 121 178 111 178 102 c 0
 178 63 196 52 230 52 c 0
 274 52 318 69 336 79 c 1
 348 19 l 1
 318 3 267 -13 209 -13 c 0
 134 -13 86 16 86 89 c 0
 86 99 87 110 89 121 c 2
 156 542 l 1
 61 542 l 1
EndSplineSet
PickledDataWithLists: "(dp0
Vcom.fontlab.hintData
p1
(dp2
Vvhints
p3
(lp4
(dp5
Vwidth
p6
L10L
sVposition
p7
L20L
sa(dp8
g6
L10L
sg7
L131L
sa(dp9
g6
L10L
sg7
L136L
sa(dp10
g6
L10L
sg7
L141L
sa(dp11
g6
L10L
sg7
L219L
sa(dp12
g6
L10L
sg7
L225L
sa(dp13
g6
L10L
sg7
L399L
sa(dp14
g6
L10L
sg7
L439L
sasVhhints
p15
(lp16
(dp17
g6
L10L
sg7
L-18L
sa(dp18
g6
L10L
sg7
L41L
sa(dp19
g6
L10L
sg7
L86L
sa(dp20
g6
L10L
sg7
L524L
sa(dp21
g6
L10L
sg7
L586L
sa(dp22
g6
L10L
sg7
L741L
sass."
Colour: ff00
EndChar

StartChar: u
Encoding: 88 117 89
GlifName: u
Width: 620
VWidth: 0
Flags: MW
AnchorPoint: "LatinOgonek.mark" 320 0 basechar 0
AnchorPoint: "LatinBelow.mark" 250 0 basechar 0
AnchorPoint: "LatinAbove.mark" 250 0 basechar 0
LayerCount: 2
Fore
SplineSet
41 184 m 2
 107 600 l 1
 197 600 l 1
 131 184 l 2
 130 175 129 165 129 157 c 0
 129 85 181 48 258 48 c 0
 344 48 413 94 427 184 c 2
 493 600 l 1
 583 600 l 1
 517 184 l 2
 499 69 393 -18 247 -18 c 0
 115 -18 38 53 38 152 c 0
 38 162 39 173 41 184 c 2
EndSplineSet
PickledDataWithLists: "(dp0
Vcom.fontlab.hintData
p1
(dp2
Vvhints
p3
(lp4
(dp5
Vwidth
p6
L10L
sVposition
p7
L81L
sa(dp8
g6
L10L
sg7
L86L
sa(dp9
g6
L10L
sg7
L174L
sa(dp10
g6
L10L
sg7
L471L
sa(dp11
g6
L10L
sg7
L649L
sasVhhints
p12
(lp13
(dp14
g6
L10L
sg7
L-21L
sa(dp15
g6
L10L
sg7
L-16L
sa(dp16
g6
L10L
sg7
L41L
sa(dp17
g6
L10L
sg7
L601L
sass."
EndChar

StartChar: v
Encoding: 89 118 90
GlifName: v
Width: 600
VWidth: 0
Flags: MW
AnchorPoint: "LatinBelow.mark" 240 0 basechar 0
AnchorPoint: "LatinAbove.mark" 240 0 basechar 0
LayerCount: 2
Fore
SplineSet
50 588 m 1
 51 593 l 1
 150 600 l 1
 260 96 l 1
 530 600 l 1
 627 593 l 1
 626 588 l 1
 281 0 l 1
 209 0 l 1
 50 588 l 1
EndSplineSet
PickledDataWithLists: "(dp0
Vcom.fontlab.hintData
p1
(dp2
Vvhints
p3
(lp4
(dp5
Vwidth
p6
L10L
sVposition
p7
L35L
sa(dp8
g6
L10L
sg7
L584L
sasVhhints
p9
(lp10
(dp11
g6
L10L
sg7
L-18L
sa(dp12
g6
L10L
sg7
L581L
sa(dp13
g6
L10L
sg7
L591L
sass."
Colour: ff00
EndChar

StartChar: w
Encoding: 90 119 91
GlifName: w
Width: 830
VWidth: 0
Flags: MW
AnchorPoint: "LatinBelow.mark" 355 0 basechar 0
AnchorPoint: "LatinAbove.mark" 355 0 basechar 0
LayerCount: 2
Fore
SplineSet
836 588 m 1
 567 0 l 1
 489 0 l 1
 428 461 l 1
 221 0 l 1
 143 0 l 1
 60 588 l 1
 61 592 l 1
 158 600 l 1
 208 125 l 1
 412 585 l 1
 484 585 l 1
 542 125 l 1
 742 600 l 1
 837 592 l 1
 836 588 l 1
EndSplineSet
PickledDataWithLists: "(dp0
Vcom.fontlab.hintData
p1
(dp2
Vvhints
p3
(lp4
(dp5
Vwidth
p6
L10L
sVposition
p7
L41L
sa(dp8
g6
L10L
sg7
L790L
sasVhhints
p9
(lp10
(dp11
g6
L10L
sg7
L-11L
sa(dp12
g6
L10L
sg7
L568L
sa(dp13
g6
L10L
sg7
L590L
sass."
Colour: ff00
EndChar

StartChar: x
Encoding: 91 120 92
GlifName: x
Width: 600
VWidth: 0
Flags: MW
AnchorPoint: "LatinBelow.mark" 240 0 basechar 0
AnchorPoint: "LatinAbove.mark" 240 0 basechar 0
LayerCount: 2
Fore
SplineSet
91 588 m 1
 92 593 l 1
 189 600 l 1
 300 380 l 1
 482 600 l 1
 577 593 l 1
 576 588 l 1
 341 324 l 1
 524 4 l 1
 523 0 l 1
 422 0 l 1
 280 255 l 1
 59 0 l 1
 -42 0 l 1
 -41 4 l 1
 242 324 l 1
 91 588 l 1
EndSplineSet
PickledDataWithLists: "(dp0
Vcom.fontlab.hintData
p1
(dp2
Vvhints
p3
(lp4
(dp5
Vwidth
p6
L10L
sVposition
p7
L26L
sa(dp8
g6
L10L
sg7
L71L
sa(dp9
g6
L10L
sg7
L524L
sa(dp10
g6
L10L
sg7
L559L
sasVhhints
p11
(lp12
(dp13
g6
L10L
sg7
L-6L
sa(dp14
g6
L10L
sg7
L5L
sa(dp15
g6
L10L
sg7
L591L
sass."
Colour: ff00
EndChar

StartChar: y
Encoding: 92 121 93
GlifName: y
Width: 600
VWidth: 0
Flags: MW
AnchorPoint: "LatinBelow.mark" 211 -180 basechar 0
AnchorPoint: "LatinAbove.mark" 240 0 basechar 0
LayerCount: 2
Fore
SplineSet
55 588 m 1
 56 593 l 1
 155 600 l 1
 255 103 l 1
 516 600 l 1
 612 593 l 1
 611 588 l 1
 263 -29 l 2
 212 -113 149 -228 42 -228 c 0
 -8 -228 -36 -206 -57 -186 c 1
 -5 -131 l 1
 10 -147 25 -165 50 -165 c 0
 98 -165 143 -96 192 -12 c 2
 201 3 l 1
 55 588 l 1
EndSplineSet
PickledDataWithLists: "(dp0
Vcom.fontlab.hintData
p1
(dp2
Vvhints
p3
(lp4
(dp5
Vwidth
p6
L10L
sVposition
p7
L56L
sa(dp8
g6
L10L
sg7
L130L
sasVhhints
p9
(lp10
(dp11
g6
L10L
sg7
L-257L
sa(dp12
g6
L10L
sg7
L-195L
sa(dp13
g6
L10L
sg7
L-164L
sa(dp14
g6
L10L
sg7
L4L
sa(dp15
g6
L10L
sg7
L584L
sa(dp16
g6
L10L
sg7
L595L
sass."
Colour: ff00
EndChar

StartChar: z
Encoding: 93 122 94
GlifName: z
Width: 530
VWidth: 0
Flags: MW
AnchorPoint: "LatinBelow.mark" 205 0 basechar 0
AnchorPoint: "LatinAbove.mark" 205 0 basechar 0
LayerCount: 2
Fore
SplineSet
-16 46 m 1
 392 536 l 1
 82 536 l 1
 92 600 l 1
 514 600 l 1
 513 554 l 1
 106 64 l 1
 442 64 l 1
 432 0 l 1
 -17 0 l 1
 -16 46 l 1
EndSplineSet
PickledDataWithLists: "(dp0
Vcom.fontlab.hintData
p1
(dp2
Vvhints
p3
(lp4
(dp5
Vwidth
p6
L10L
sVposition
p7
L46L
sa(dp8
g6
L10L
sg7
L61L
sa(dp9
g6
L10L
sg7
L531L
sa(dp10
g6
L10L
sg7
L544L
sasVhhints
p11
(lp12
(dp13
g6
L10L
sg7
L-17L
sa(dp14
g6
L10L
sg7
L51L
sa(dp15
g6
L10L
sg7
L59L
sa(dp16
g6
L15L
sg7
L525L
sa(dp17
g6
L10L
sg7
L587L
sa(dp18
g6
L10L
sg7
L592L
sass."
Colour: ff00
EndChar

StartChar: braceleft
Encoding: 94 123 95
GlifName: braceleft
Width: 390
VWidth: 0
Flags: MW
LayerCount: 2
Fore
SplineSet
51 373 m 1
 54 390 l 1
 56 407 l 1
 99 414 161 452 175 538 c 0
 176 544 176 552 176 561 c 0
 176 595 171 646 171 690 c 0
 171 707 172 724 174 738 c 0
 189 834 253 900 345 900 c 2
 390 900 l 1
 382 852 l 1
 347 852 l 2
 311 852 268 828 253 732 c 0
 251 720 250 705 250 688 c 0
 250 652 254 609 254 573 c 0
 254 557 253 542 251 530 c 0
 239 456 193 410 143 390 c 1
 181 373 210 336 210 280 c 0
 210 271 209 261 207 250 c 0
 199 200 153 100 145 48 c 0
 143 32 141 19 141 7 c 0
 141 -55 171 -72 201 -72 c 2
 236 -72 l 1
 228 -120 l 1
 183 -120 l 2
 103 -120 61 -71 61 5 c 0
 61 17 62 29 64 42 c 0
 74 102 122 202 128 242 c 0
 130 252 130 261 130 270 c 0
 130 336 87 367 51 373 c 1
EndSplineSet
PickledDataWithLists: "(dp0
Vcom.fontlab.hintData
p1
(dp2
Vvhints
p3
(lp4
(dp5
Vwidth
p6
L10L
sVposition
p7
L22L
sa(dp8
g6
L10L
sg7
L112L
sa(dp9
g6
L10L
sg7
L128L
sa(dp10
g6
L10L
sg7
L182L
sa(dp11
g6
L10L
sg7
L197L
sa(dp12
g6
L10L
sg7
L205L
sa(dp13
g6
L10L
sg7
L289L
sasVhhints
p14
(lp15
(dp16
g6
L10L
sg7
L-89L
sa(dp17
g6
L10L
sg7
L-41L
sa(dp18
g6
L10L
sg7
L830L
sa(dp19
g6
L10L
sg7
L879L
sass."
EndChar

StartChar: bar
Encoding: 95 124 96
GlifName: bar
Width: 360
VWidth: 0
Flags: MW
LayerCount: 2
Fore
SplineSet
61 -120 m 1
 223 900 l 1
 303 900 l 1
 141 -120 l 1
 61 -120 l 1
EndSplineSet
PickledDataWithLists: "(dp0
Vcom.fontlab.hintData
p1
(dp2
Vvhints
p3
(lp4
(dp5
Vwidth
p6
L10L
sVposition
p7
L131L
sa(dp8
g6
L10L
sg7
L209L
sa(dp9
g6
L10L
sg7
L216L
sasVhhints
p10
(lp11
(dp12
g6
L10L
sg7
L-92L
sa(dp13
g6
L10L
sg7
L882L
sass."
EndChar

StartChar: braceright
Encoding: 96 125 97
GlifName: braceright
Width: 390
VWidth: 0
Flags: MW
LayerCount: 2
Fore
SplineSet
342 407 m 1
 340 390 l 1
 337 373 l 1
 294 366 232 328 218 242 c 0
 217 236 217 228 217 220 c 0
 217 185 223 134 223 88 c 0
 223 72 222 56 220 42 c 0
 205 -54 141 -120 49 -120 c 2
 4 -120 l 1
 12 -72 l 1
 47 -72 l 2
 83 -72 126 -48 141 48 c 0
 143 60 144 75 144 92 c 0
 144 128 140 171 140 207 c 0
 140 223 141 238 143 250 c 0
 155 324 201 370 251 390 c 1
 213 407 184 444 184 500 c 0
 184 509 185 519 187 530 c 0
 195 580 241 680 249 732 c 0
 251 748 253 761 253 773 c 0
 253 835 223 852 193 852 c 2
 158 852 l 1
 166 900 l 1
 211 900 l 2
 291 900 333 851 333 775 c 0
 333 763 332 751 330 738 c 0
 320 678 271 578 265 538 c 0
 263 528 263 519 263 510 c 0
 263 444 306 413 342 407 c 1
EndSplineSet
PickledDataWithLists: "(dp0
Vcom.fontlab.hintData
p1
(dp2
Vvhints
p3
(lp4
(dp5
Vwidth
p6
L10L
sVposition
p7
L61L
sa(dp8
g6
L10L
sg7
L145L
sa(dp9
g6
L10L
sg7
L153L
sa(dp10
g6
L10L
sg7
L166L
sa(dp11
g6
L10L
sg7
L216L
sa(dp12
g6
L10L
sg7
L222L
sa(dp13
g6
L10L
sg7
L237L
sa(dp14
g6
L10L
sg7
L328L
sasVhhints
p15
(lp16
(dp17
g6
L10L
sg7
L-89L
sa(dp18
g6
L10L
sg7
L-41L
sa(dp19
g6
L10L
sg7
L831L
sa(dp20
g6
L10L
sg7
L879L
sass."
EndChar

StartChar: asciitilde
Encoding: 97 126 98
GlifName: asciitilde
Width: 600
VWidth: 0
Flags: MW
LayerCount: 2
Fore
SplineSet
44 329 m 1
 78 395 129 481 216 481 c 0
 274 481 306 442 330 414 c 0
 355 384 375 365 400 365 c 0
 442 365 480 420 502 469 c 1
 558 451 l 1
 526 385 472 299 386 299 c 0
 328 299 296 338 272 366 c 0
 247 396 229 415 204 415 c 0
 162 415 123 361 100 311 c 1
 44 329 l 1
EndSplineSet
PickledDataWithLists: "(dp0
Vcom.fontlab.hintData
p1
(dp2
Vvhints
p3
(lp4
(dp5
Vwidth
p6
L10L
sVposition
p7
L51L
sa(dp8
g6
L10L
sg7
L539L
sasVhhints
p9
(lp10
(dp11
g6
L10L
sg7
L249L
sa(dp12
g6
L10L
sg7
L260L
sa(dp13
g6
L10L
sg7
L311L
sa(dp14
g6
L10L
sg7
L359L
sa(dp15
g6
L10L
sg7
L411L
sa(dp16
g6
L10L
sg7
L421L
sass."
EndChar

StartChar: copyright
Encoding: 107 169 100
GlifName: copyright
Width: 1020
VWidth: 0
Flags: MW
LayerCount: 2
Fore
SplineSet
346 412 m 2
 361 504 417 608 553 608 c 0
 653 608 687 543 689 503 c 1
 626 497 l 1
 624 525 601 562 546 562 c 0
 470 562 424 504 409 412 c 2
 407 396 l 2
 404 380 403 365 403 351 c 0
 403 285 433 244 496 244 c 0
 551 244 586 282 596 310 c 1
 657 304 l 1
 643 264 589 199 489 199 c 0
 376 199 340 272 340 350 c 0
 340 365 342 381 344 396 c 2
 346 412 l 2
449 -4 m 0
 223 -4 91 134 91 330 c 0
 91 354 93 379 97 405 c 0
 134 639 325 814 579 814 c 0
 805 814 937 676 937 480 c 0
 937 456 935 431 931 405 c 0
 894 171 703 -4 449 -4 c 0
457 44 m 0
 677 44 843 191 877 405 c 0
 881 429 883 453 883 475 c 0
 883 651 766 766 571 766 c 0
 351 766 185 619 151 405 c 0
 147 381 145 357 145 335 c 0
 145 159 262 44 457 44 c 0
EndSplineSet
PickledDataWithLists: "(dp0
Vcom.fontlab.hintData
p1
(dp2
Vvhints
p3
(lp4
(dp5
Vwidth
p6
L10L
sVposition
p7
L83L
sa(dp8
g6
L10L
sg7
L147L
sa(dp9
g6
L10L
sg7
L315L
sa(dp10
g6
L10L
sg7
L395L
sa(dp11
g6
L10L
sg7
L565L
sa(dp12
g6
L10L
sg7
L645L
sa(dp13
g6
L10L
sg7
L661L
sa(dp14
g6
L10L
sg7
L798L
sa(dp15
g6
L10L
sg7
L863L
sa(dp16
g6
L10L
sg7
L927L
sasVhhints
p17
(lp18
(dp19
g6
L10L
sg7
L-27L
sa(dp20
g6
L10L
sg7
L17L
sa(dp21
g6
L10L
sg7
L170L
sa(dp22
g6
L10L
sg7
L224L
sa(dp23
g6
L10L
sg7
L283L
sa(dp24
g6
L10L
sg7
L472L
sa(dp25
g6
L10L
sg7
L549L
sa(dp26
g6
L10L
sg7
L603L
sa(dp27
g6
L10L
sg7
L773L
sa(dp28
g6
L10L
sg7
L817L
sass."
EndChar

StartChar: registered
Encoding: 112 174 101
GlifName: registered
Width: 870
VWidth: 0
Flags: MW
LayerCount: 2
Fore
SplineSet
418 270 m 0
 234 270 127 382 127 540 c 0
 127 559 129 580 132 600 c 0
 162 788 316 930 522 930 c 0
 706 930 813 818 813 660 c 0
 813 641 811 620 808 600 c 0
 778 412 624 270 418 270 c 0
424 308 m 0
 600 308 735 426 763 600 c 0
 766 620 768 639 768 657 c 0
 768 799 672 892 516 892 c 0
 340 892 205 774 177 600 c 0
 174 580 172 561 172 543 c 0
 172 401 268 308 424 308 c 0
441 560 m 1
 424 560 408 560 394 561 c 1
 368 400 l 1
 308 400 l 1
 334 564 l 1
 370 790 l 1
 379 790 441 794 501 794 c 0
 587 794 644 758 644 695 c 0
 644 689 643 683 642 677 c 0
 632 614 579 574 506 563 c 1
 614 403 l 1
 613 400 l 1
 545 400 l 1
 441 560 l 1
401 605 m 1
 417 604 440 603 464 603 c 0
 524 603 573 621 582 677 c 0
 583 682 583 687 583 691 c 0
 583 736 542 752 487 752 c 0
 463 752 440 751 424 750 c 1
 401 605 l 1
EndSplineSet
PickledDataWithLists: "(dp0
Vcom.fontlab.hintData
p1
(dp2
Vvhints
p3
(lp4
(dp5
Vwidth
p6
L10L
sVposition
p7
L90L
sa(dp8
g6
L10L
sg7
L140L
sa(dp9
g6
L10L
sg7
L263L
sa(dp10
g6
L10L
sg7
L301L
sa(dp11
g6
L10L
sg7
L303L
sa(dp12
g6
L10L
sg7
L363L
sa(dp13
g6
L10L
sg7
L480L
sa(dp14
g6
L10L
sg7
L544L
sa(dp15
g6
L10L
sg7
L557L
sa(dp16
g6
L10L
sg7
L628L
sa(dp17
g6
L10L
sg7
L677L
sa(dp18
g6
L10L
sg7
L727L
sasVhhints
p19
(lp20
(dp21
g6
L10L
sg7
L319L
sa(dp22
g6
L10L
sg7
L351L
sa(dp23
g6
L10L
sg7
L469L
sa(dp24
g6
L20L
sg7
L596L
sa(dp25
g6
L10L
sg7
L644L
sa(dp26
g6
L10L
sg7
L654L
sa(dp27
g6
L11L
sg7
L725L
sa(dp28
g6
L10L
sg7
L757L
sa(dp29
g6
L10L
sg7
L799L
sa(dp30
g6
L10L
sg7
L919L
sa(dp31
g6
L10L
sg7
L951L
sass."
EndChar

StartChar: guillemotleft
Encoding: 109 171 102
GlifName: guillemotleft
Width: 780
VWidth: 0
Flags: HMW
LayerCount: 2
Fore
SplineSet
76 342 m 1
 82 378 l 1
 421 638 l 1
 446 592 l 1
 175 360 l 1
 372 128 l 1
 333 82 l 1
 76 342 l 1
361 342 m 1
 367 378 l 1
 705 638 l 1
 731 592 l 1
 460 360 l 1
 657 128 l 1
 617 82 l 1
 361 342 l 1
EndSplineSet
PickledDataWithLists: "(dp0
Vcom.fontlab.hintData
p1
(dp2
Vvhints
p3
(lp4
(dp5
Vwidth
p6
L10L
sVposition
p7
L66L
sa(dp8
g6
L10L
sg7
L336L
sa(dp9
g6
L10L
sg7
L356L
sa(dp10
g6
L10L
sg7
L368L
sa(dp11
g6
L10L
sg7
L626L
sa(dp12
g6
L10L
sg7
L638L
sasVhhints
p13
(lp14
(dp15
g6
L10L
sg7
L65L
sa(dp16
g6
L10L
sg7
L605L
sass."
EndChar

StartChar: guillemotright
Encoding: 125 187 103
GlifName: guillemotright
Width: 780
VWidth: 0
Flags: HMW
LayerCount: 2
Fore
SplineSet
698 378 m 1
 692 342 l 1
 353 82 l 1
 328 128 l 1
 599 360 l 1
 402 592 l 1
 441 638 l 1
 698 378 l 1
413 378 m 1
 407 342 l 1
 69 82 l 1
 43 128 l 1
 314 360 l 1
 117 592 l 1
 157 638 l 1
 413 378 l 1
EndSplineSet
PickledDataWithLists: "(dp0
Vcom.fontlab.hintData
p1
(dp2
Vvhints
p3
(lp4
(dp5
Vwidth
p6
L10L
sVposition
p7
L72L
sa(dp8
g6
L10L
sg7
L84L
sa(dp9
g6
L10L
sg7
L342L
sa(dp10
g6
L10L
sg7
L354L
sa(dp11
g6
L10L
sg7
L374L
sa(dp12
g6
L10L
sg7
L644L
sasVhhints
p13
(lp14
(dp15
g6
L10L
sg7
L64L
sa(dp16
g6
L10L
sg7
L605L
sass."
EndChar

StartChar: uni2010
Encoding: 704 8208 111
GlifName: uni2010
Width: 600
VWidth: 0
Flags: MW
LayerCount: 2
Fore
SplineSet
100 395 m 1
 506 395 l 1
 494 325 l 1
 88 325 l 1
 100 395 l 1
EndSplineSet
PickledDataWithLists: "(dp0
Vcom.fontlab.hintData
p1
(dp2
Vvhints
p3
(lp4
(dp5
Vwidth
p6
L10L
sVposition
p7
L75L
sa(dp8
g6
L10L
sg7
L514L
sasVhhints
p9
(lp10
(dp11
g6
L10L
sg7
L301L
sa(dp12
g6
L10L
sg7
L363L
sa(dp13
g6
L10L
sg7
L371L
sass."
EndChar

StartChar: uni2011
Encoding: 705 8209 112
GlifName: uni2011
Width: 600
VWidth: 0
Flags: MW
LayerCount: 2
Fore
SplineSet
100 395 m 1
 506 395 l 1
 494 325 l 1
 88 325 l 1
 100 395 l 1
EndSplineSet
PickledDataWithLists: "(dp0
Vcom.fontlab.hintData
p1
(dp2
Vvhints
p3
(lp4
(dp5
Vwidth
p6
L10L
sVposition
p7
L75L
sa(dp8
g6
L10L
sg7
L514L
sasVhhints
p9
(lp10
(dp11
g6
L10L
sg7
L301L
sa(dp12
g6
L10L
sg7
L363L
sa(dp13
g6
L10L
sg7
L371L
sass."
EndChar

StartChar: figuredash
Encoding: 706 8210 113
GlifName: figuredash
Width: 660
VWidth: 0
Flags: MW
LayerCount: 2
Fore
SplineSet
100 395 m 1
 566 395 l 1
 554 325 l 1
 88 325 l 1
 100 395 l 1
EndSplineSet
PickledDataWithLists: "(dp0
Vcom.fontlab.hintData
p1
(dp2
Vvhints
p3
(lp4
(dp5
Vwidth
p6
L10L
sVposition
p7
L105L
sa(dp8
g6
L10L
sg7
L604L
sasVhhints
p9
(lp10
(dp11
g6
L10L
sg7
L301L
sa(dp12
g6
L10L
sg7
L364L
sa(dp13
g6
L10L
sg7
L371L
sass."
EndChar

StartChar: uni2015
Encoding: 709 8213 114
GlifName: uni2015
Width: 1200
VWidth: 0
Flags: MW
LayerCount: 2
Fore
SplineSet
100 395 m 1
 1106 395 l 1
 1094 325 l 1
 88 325 l 1
 100 395 l 1
EndSplineSet
PickledDataWithLists: "(dp0
Vcom.fontlab.hintData
p1
(dp2
Vvhints
p3
(lp4
(dp5
Vwidth
p6
L10L
sVposition
p7
L90L
sa(dp8
g6
L10L
sg7
L1099L
sasVhhints
p9
(lp10
(dp11
g6
L10L
sg7
L299L
sa(dp12
g6
L10L
sg7
L304L
sa(dp13
g6
L10L
sg7
L309L
sa(dp14
g6
L10L
sg7
L361L
sa(dp15
g6
L10L
sg7
L366L
sa(dp16
g6
L10L
sg7
L371L
sass."
EndChar

StartChar: endash
Encoding: 707 8211 115
GlifName: endash
Width: 660
VWidth: 0
Flags: MW
LayerCount: 2
Fore
SplineSet
100 395 m 1
 566 395 l 1
 554 325 l 1
 88 325 l 1
 100 395 l 1
EndSplineSet
PickledDataWithLists: "(dp0
Vcom.fontlab.hintData
p1
(dp2
Vvhints
p3
(lp4
(dp5
Vwidth
p6
L10L
sVposition
p7
L75L
sa(dp8
g6
L10L
sg7
L574L
sasVhhints
p9
(lp10
(dp11
g6
L10L
sg7
L301L
sa(dp12
g6
L10L
sg7
L364L
sa(dp13
g6
L10L
sg7
L371L
sass."
EndChar

StartChar: emdash
Encoding: 708 8212 116
GlifName: emdash
Width: 1200
VWidth: 0
Flags: MW
LayerCount: 2
Fore
SplineSet
100 395 m 1
 1106 395 l 1
 1094 325 l 1
 88 325 l 1
 100 395 l 1
EndSplineSet
PickledDataWithLists: "(dp0
Vcom.fontlab.hintData
p1
(dp2
Vvhints
p3
(lp4
(dp5
Vwidth
p6
L10L
sVposition
p7
L90L
sa(dp8
g6
L10L
sg7
L1099L
sasVhhints
p9
(lp10
(dp11
g6
L10L
sg7
L299L
sa(dp12
g6
L10L
sg7
L304L
sa(dp13
g6
L10L
sg7
L309L
sa(dp14
g6
L10L
sg7
L361L
sa(dp15
g6
L10L
sg7
L366L
sa(dp16
g6
L10L
sg7
L371L
sass."
EndChar

StartChar: quoteleft
Encoding: 710 8216 117
GlifName: quoteleft
Width: 330
VWidth: 0
Flags: MW
LayerCount: 2
Fore
SplineSet
280 647 m 0
 274 606 241 577 197 577 c 0
 145 577 124 614 124 659 c 0
 124 667 125 676 126 685 c 0
 142 789 222 862 293 905 c 1
 315 866 l 1
 261 833 212 782 193 709 c 1
 201 712 211 713 221 713 c 0
 257 713 281 691 281 658 c 0
 281 654 281 651 280 647 c 0
EndSplineSet
PickledDataWithLists: "(dp0
Vcom.fontlab.hintData
p1
(dp2
Vvhints
p3
(lp4
(dp5
Vwidth
p6
L10L
sVposition
p7
L69L
sa(dp8
g6
L10L
sg7
L150L
sa(dp9
g6
L10L
sg7
L255L
sasVhhints
p10
(lp11
(dp12
g6
L10L
sg7
L533L
sa(dp13
g6
L10L
sg7
L602L
sa(dp14
g6
L10L
sg7
L832L
sass."
EndChar

StartChar: quoteright
Encoding: 711 8217 118
GlifName: quoteright
Width: 330
VWidth: 0
Flags: MW
LayerCount: 2
Fore
SplineSet
159 803 m 0
 165 844 198 873 242 873 c 0
 294 873 315 836 315 791 c 0
 315 783 314 774 313 765 c 0
 297 661 217 588 146 545 c 1
 124 584 l 1
 178 617 227 668 246 741 c 1
 238 738 229 737 219 737 c 0
 183 737 158 758 158 792 c 0
 158 796 158 799 159 803 c 0
EndSplineSet
PickledDataWithLists: "(dp0
Vcom.fontlab.hintData
p1
(dp2
Vvhints
p3
(lp4
(dp5
Vwidth
p6
L10L
sVposition
p7
L61L
sa(dp8
g6
L10L
sg7
L170L
sa(dp9
g6
L10L
sg7
L251L
sasVhhints
p10
(lp11
(dp12
g6
L10L
sg7
L538L
sa(dp13
g6
L10L
sg7
L768L
sa(dp14
g6
L10L
sg7
L837L
sass."
EndChar

StartChar: quotedblleft
Encoding: 712 8220 119
GlifName: quotedblleft
Width: 570
VWidth: 0
Flags: MW
LayerCount: 2
Fore
SplineSet
295 647 m 0
 289 606 256 577 212 577 c 0
 160 577 139 614 139 659 c 0
 139 667 140 676 141 685 c 0
 157 789 237 862 308 905 c 1
 330 866 l 1
 276 833 227 782 208 709 c 1
 216 712 226 713 236 713 c 0
 272 713 296 691 296 658 c 0
 296 654 296 651 295 647 c 0
505 647 m 0
 499 606 466 577 422 577 c 0
 370 577 349 614 349 659 c 0
 349 667 350 676 351 685 c 0
 367 789 447 862 518 905 c 1
 540 866 l 1
 486 833 437 782 418 709 c 1
 426 712 436 713 446 713 c 0
 482 713 506 691 506 658 c 0
 506 654 506 651 505 647 c 0
EndSplineSet
PickledDataWithLists: "(dp0
Vcom.fontlab.hintData
p1
(dp2
Vvhints
p3
(lp4
(dp5
Vwidth
p6
L10L
sVposition
p7
L69L
sa(dp8
g6
L10L
sg7
L150L
sa(dp9
g6
L10L
sg7
L255L
sa(dp10
g6
L10L
sg7
L309L
sa(dp11
g6
L10L
sg7
L390L
sa(dp12
g6
L10L
sg7
L495L
sasVhhints
p13
(lp14
(dp15
g6
L10L
sg7
L533L
sa(dp16
g6
L10L
sg7
L602L
sa(dp17
g6
L10L
sg7
L832L
sass."
EndChar

StartChar: quotedblright
Encoding: 713 8221 120
GlifName: quotedblright
Width: 570
VWidth: 0
Flags: MW
LayerCount: 2
Fore
SplineSet
174 803 m 0
 180 844 213 873 257 873 c 0
 309 873 330 836 330 791 c 0
 330 783 329 774 328 765 c 0
 312 661 232 588 161 545 c 1
 139 584 l 1
 193 617 242 668 261 741 c 1
 253 738 244 737 234 737 c 0
 198 737 173 758 173 792 c 0
 173 796 173 799 174 803 c 0
384 803 m 0
 390 844 423 873 467 873 c 0
 519 873 540 836 540 791 c 0
 540 783 539 774 538 765 c 0
 522 661 442 588 371 545 c 1
 349 584 l 1
 403 617 452 668 471 741 c 1
 463 738 454 737 444 737 c 0
 408 737 383 758 383 792 c 0
 383 796 383 799 384 803 c 0
EndSplineSet
PickledDataWithLists: "(dp0
Vcom.fontlab.hintData
p1
(dp2
Vvhints
p3
(lp4
(dp5
Vwidth
p6
L10L
sVposition
p7
L61L
sa(dp8
g6
L10L
sg7
L170L
sa(dp9
g6
L10L
sg7
L251L
sa(dp10
g6
L10L
sg7
L301L
sa(dp11
g6
L10L
sg7
L410L
sa(dp12
g6
L10L
sg7
L491L
sasVhhints
p13
(lp14
(dp15
g6
L10L
sg7
L538L
sa(dp16
g6
L10L
sg7
L768L
sa(dp17
g6
L10L
sg7
L837L
sass."
EndChar

StartChar: bullet
Encoding: 718 8226 121
GlifName: bullet
Width: 660
VWidth: 0
Flags: MW
LayerCount: 2
Fore
SplineSet
203 360 m 0
 214 430 275 475 345 475 c 0
 408 475 453 439 453 380 c 0
 453 374 452 367 451 360 c 0
 440 290 379 245 309 245 c 0
 246 245 201 281 201 340 c 0
 201 346 202 353 203 360 c 0
EndSplineSet
PickledDataWithLists: "(dp0
Vcom.fontlab.hintData
p1
(dp2
Vvhints
p3
(lp4
(dp5
Vwidth
p6
L10L
sVposition
p7
L231L
sa(dp8
g6
L10L
sg7
L479L
sasVhhints
p9
(lp10
(dp11
g6
L10L
sg7
L234L
sa(dp12
g6
L10L
sg7
L456L
sass."
EndChar

StartChar: ellipsis
Encoding: 720 8230 122
GlifName: ellipsis
Width: 870
VWidth: 0
GlyphClass: 3
Flags: MW
LayerCount: 2
Fore
SplineSet
126 133 m 0
 163 133 188 112 188 78 c 0
 188 74 188 69 187 65 c 0
 180 23 146 -3 105 -3 c 0
 68 -3 42 18 42 53 c 0
 42 57 42 61 43 65 c 0
 50 107 85 133 126 133 c 0
396 133 m 0
 433 133 458 112 458 78 c 0
 458 74 458 69 457 65 c 0
 450 23 416 -3 375 -3 c 0
 338 -3 312 18 312 53 c 0
 312 57 312 61 313 65 c 0
 320 107 355 133 396 133 c 0
666 133 m 0
 703 133 728 112 728 78 c 0
 728 74 728 69 727 65 c 0
 720 23 686 -3 645 -3 c 0
 608 -3 582 18 582 53 c 0
 582 57 582 61 583 65 c 0
 590 107 625 133 666 133 c 0
EndSplineSet
PickledDataWithLists: "(dp0
Vcom.fontlab.hintData
p1
(dp2
Vvhints
p3
(lp4
(dp5
Vwidth
p6
L10L
sVposition
p7
L60L
sa(dp8
g6
L10L
sg7
L200L
sa(dp9
g6
L10L
sg7
L285L
sa(dp10
g6
L10L
sg7
L425L
sa(dp11
g6
L10L
sg7
L510L
sa(dp12
g6
L10L
sg7
L650L
sasVhhints
p13
(lp14
(dp15
g6
L10L
sg7
L2L
sa(dp16
g6
L10L
sg7
L115L
sass."
Ligature2: "Latin.liga subtable" period uni200D period uni200D period
Ligature2: "Latin.liga subtable" period period period
EndChar

StartChar: Euro
Encoding: 756 8364 124
GlifName: E_uro
Width: 660
VWidth: 0
Flags: MW
LayerCount: 2
Fore
SplineSet
31 438 m 1
 40 492 l 1
 114 492 l 1
 156 649 248 798 434 798 c 0
 595 798 641 669 641 595 c 0
 641 594 641 594 641 593 c 1
 550 584 l 1
 550 585 550 585 550 586 c 0
 550 652 510 729 423 729 c 0
 320 729 245 638 205 492 c 1
 490 492 l 1
 481 438 l 1
 192 438 l 1
 190 428 188 418 186 407 c 2
 181 373 l 2
 179 362 179 352 177 342 c 1
 466 342 l 1
 458 288 l 1
 173 288 l 1
 173 280 172 271 172 263 c 0
 172 131 219 51 316 51 c 0
 404 51 468 129 489 196 c 1
 577 187 l 1
 554 113 468 -18 305 -18 c 0
 132 -18 81 111 81 255 c 0
 81 266 81 277 82 288 c 1
 8 288 l 1
 16 342 l 1
 87 342 l 1
 89 352 89 363 91 373 c 2
 96 407 l 2
 98 417 100 428 102 438 c 1
 31 438 l 1
EndSplineSet
PickledDataWithLists: "(dp0
Vcom.fontlab.hintData
p1
(dp2
Vvhints
p3
(lp4
(dp5
Vwidth
p6
L10L
sVposition
p7
L21L
sa(dp8
g6
L10L
sg7
L115L
sa(dp9
g6
L10L
sg7
L203L
sa(dp10
g6
L10L
sg7
L484L
sa(dp11
g6
L10L
sg7
L659L
sasVhhints
p12
(lp13
(dp14
g6
L10L
sg7
L-15L
sa(dp15
g6
L9L
sg7
L48L
sa(dp16
g6
L10L
sg7
L165L
sa(dp17
g6
L10L
sg7
L268L
sa(dp18
g6
L10L
sg7
L323L
sa(dp19
g6
L10L
sg7
L448L
sa(dp20
g6
L10L
sg7
L453L
sa(dp21
g6
L10L
sg7
L503L
sa(dp22
g6
L10L
sg7
L590L
sa(dp23
g6
L10L
sg7
L745L
sa(dp24
g6
L10L
sg7
L806L
sass."
EndChar

StartChar: trademark
Encoding: 767 8482 125
GlifName: trademark
Width: 765
VWidth: 0
Flags: MW
LayerCount: 2
Fore
SplineSet
94 856 m 1
 101 900 l 1
 381 900 l 1
 374 856 l 1
 264 856 l 1
 209 510 l 1
 149 510 l 1
 204 856 l 1
 94 856 l 1
736 510 m 1
 677 510 l 1
 721 787 l 1
 590 608 l 1
 562 608 l 1
 489 787 l 1
 445 510 l 1
 386 510 l 1
 447 894 l 1
 498 900 l 1
 586 669 l 1
 748 900 l 1
 797 894 l 1
 736 510 l 1
EndSplineSet
PickledDataWithLists: "(dp0
Vcom.fontlab.hintData
p1
(dp2
Vvhints
p3
(lp4
(dp5
Vwidth
p6
L10L
sVposition
p7
L39L
sa(dp8
g6
L10L
sg7
L180L
sa(dp9
g6
L10L
sg7
L251L
sa(dp10
g6
L10L
sg7
L383L
sa(dp11
g6
L10L
sg7
L421L
sa(dp12
g6
L10L
sg7
L440L
sa(dp13
g6
L10L
sg7
L504L
sa(dp14
g6
L10L
sg7
L735L
sa(dp15
g6
L10L
sg7
L800L
sa(dp16
g6
L10L
sg7
L819L
sasVhhints
p17
(lp18
(dp19
g6
L10L
sg7
L381L
sa(dp20
g6
L10L
sg7
L390L
sa(dp21
g6
L10L
sg7
L395L
sa(dp22
g6
L10L
sg7
L473L
sa(dp23
g6
L10L
sg7
L745L
sa(dp24
g6
L10L
sg7
L751L
sa(dp25
g6
L10L
sg7
L803L
sass."
EndChar

StartChar: uni25CC
Encoding: 806 9676 126
GlifName: uni25C_C_
Width: 720
VWidth: 0
GlyphClass: 2
Flags: MW
AnchorPoint: "LatinCedilla.mark" 320 0 basechar 0
AnchorPoint: "LatinBelow.mark" 300 0 basechar 0
AnchorPoint: "LatinAbove.mark" 300 0 basechar 0
LayerCount: 2
Fore
SplineSet
332 15 m 0
 329 -2 315 -15 298 -15 c 0
 283 -15 272 -4 272 10 c 0
 272 12 272 13 272 15 c 0
 275 32 290 45 307 45 c 0
 322 45 332 34 332 20 c 0
 332 18 332 17 332 15 c 0
423 585 m 0
 420 568 405 555 388 555 c 0
 373 555 363 566 363 580 c 0
 363 582 363 583 363 585 c 0
 366 602 380 615 397 615 c 0
 412 615 423 604 423 590 c 0
 423 588 423 587 423 585 c 0
637 330 m 0
 652 330 663 319 663 305 c 0
 663 303 663 302 663 300 c 0
 660 283 645 270 628 270 c 0
 613 270 603 281 603 295 c 0
 603 297 603 298 603 300 c 0
 606 317 620 330 637 330 c 0
67 330 m 0
 82 330 93 319 93 305 c 0
 93 303 93 302 93 300 c 0
 90 283 75 270 58 270 c 0
 43 270 33 281 33 295 c 0
 33 297 33 298 33 300 c 0
 36 317 50 330 67 330 c 0
107 439 m 0
 122 439 132 428 132 414 c 0
 132 412 132 411 132 409 c 0
 129 392 114 379 97 379 c 0
 82 379 72 390 72 404 c 0
 72 406 72 407 72 409 c 0
 75 426 90 439 107 439 c 0
72 221 m 0
 87 221 97 210 97 196 c 0
 97 194 97 193 97 191 c 0
 94 174 79 161 62 161 c 0
 47 161 37 172 37 186 c 0
 37 188 37 189 37 191 c 0
 40 208 55 221 72 221 c 0
633 439 m 0
 648 439 658 428 658 414 c 0
 658 412 658 411 658 409 c 0
 655 392 640 379 623 379 c 0
 608 379 598 390 598 404 c 0
 598 406 598 407 598 409 c 0
 601 426 616 439 633 439 c 0
598 221 m 0
 613 221 623 210 623 196 c 0
 623 194 623 193 623 191 c 0
 620 174 605 161 588 161 c 0
 573 161 563 172 563 186 c 0
 563 188 563 189 563 191 c 0
 566 208 581 221 598 221 c 0
182 531 m 0
 197 531 207 520 207 506 c 0
 207 504 207 503 207 501 c 0
 204 484 190 471 173 471 c 0
 158 471 147 482 147 496 c 0
 147 498 147 499 147 501 c 0
 150 518 165 531 182 531 c 0
585 531 m 0
 600 531 610 520 610 506 c 0
 610 504 610 503 610 501 c 0
 607 484 593 471 576 471 c 0
 561 471 550 482 550 496 c 0
 550 498 550 499 550 501 c 0
 553 518 568 531 585 531 c 0
118 128 m 0
 133 128 144 117 144 103 c 0
 144 101 144 100 144 98 c 0
 141 81 126 68 109 68 c 0
 94 68 84 79 84 93 c 0
 84 95 84 96 84 98 c 0
 87 115 101 128 118 128 c 0
521 128 m 0
 536 128 547 117 547 103 c 0
 547 101 547 100 547 98 c 0
 544 81 529 68 512 68 c 0
 497 68 487 79 487 93 c 0
 487 95 487 96 487 98 c 0
 490 115 504 128 521 128 c 0
420 67 m 0
 435 67 445 56 445 42 c 0
 445 40 445 39 445 37 c 0
 442 20 427 7 410 7 c 0
 395 7 385 18 385 32 c 0
 385 34 385 35 385 37 c 0
 388 54 403 67 420 67 c 0
202 67 m 0
 217 67 227 56 227 42 c 0
 227 40 227 39 227 37 c 0
 224 20 209 7 192 7 c 0
 177 7 167 18 167 32 c 0
 167 34 167 35 167 37 c 0
 170 54 185 67 202 67 c 0
503 593 m 0
 518 593 528 582 528 568 c 0
 528 566 528 565 528 563 c 0
 525 546 510 533 493 533 c 0
 478 533 468 544 468 558 c 0
 468 560 468 561 468 563 c 0
 471 580 486 593 503 593 c 0
285 593 m 0
 300 593 310 582 310 568 c 0
 310 566 310 565 310 563 c 0
 307 546 292 533 275 533 c 0
 260 533 250 544 250 558 c 0
 250 560 250 561 250 563 c 0
 253 580 268 593 285 593 c 0
EndSplineSet
PickledDataWithLists: "(dp0
Vcom.fontlab.hintData
p1
(dp2
Vvhints
p3
(lp4
(dp5
Vwidth
p6
L10L
sVposition
p7
L40L
sa(dp8
g6
L10L
sg7
L76L
sa(dp9
g6
L10L
sg7
L90L
sa(dp10
g6
L10L
sg7
L132L
sa(dp11
g6
L10L
sg7
L180L
sa(dp12
g6
L10L
sg7
L238L
sa(dp13
g6
L10L
sg7
L325L
sa(dp14
g6
L10L
sg7
L385L
sa(dp15
g6
L10L
sg7
L472L
sa(dp16
g6
L10L
sg7
L528L
sa(dp17
g6
L10L
sg7
L581L
sa(dp18
g6
L10L
sg7
L620L
sa(dp19
g6
L10L
sg7
L631L
sa(dp20
g6
L10L
sg7
L670L
sasVhhints
p21
(lp22
(dp23
g6
L10L
sg7
L-20L
sa(dp24
g6
L10L
sg7
L16L
sa(dp25
g6
L10L
sg7
L30L
sa(dp26
g6
L10L
sg7
L69L
sa(dp27
g6
L10L
sg7
L122L
sa(dp28
g6
L10L
sg7
L178L
sa(dp29
g6
L10L
sg7
L265L
sa(dp30
g6
L10L
sg7
L325L
sa(dp31
g6
L10L
sg7
L410L
sa(dp32
g6
L10L
sg7
L468L
sa(dp33
g6
L10L
sg7
L518L
sa(dp34
g6
L10L
sg7
L560L
sa(dp35
g6
L10L
sg7
L574L
sa(dp36
g6
L10L
sg7
L610L
sass."
Colour: ff00
EndChar

StartChar: uni0E01
Encoding: 401 3585 127
GlifName: uni0E_01
Width: 655
VWidth: 0
GlyphClass: 2
Flags: MW
LayerCount: 2
Fore
SplineSet
48 0 m 25
 95 297 l 2
 103 350 135 382 181 396 c 1
 63 419 l 1
 93 523 195 618 353 618 c 0
 494 618 579 545 579 438 c 0
 579 427 578 415 576 403 c 2
 512 0 l 1
 427 0 l 1
 491 403 l 2
 493 414 494 423 494 433 c 0
 494 513 435 554 343 554 c 0
 254 554 189 510 158 441 c 1
 304 411 l 1
 289 374 l 2
 286 374 268 377 258 377 c 0
 215 377 189 353 181 305 c 2
 133 0 l 25
 48 0 l 25
EndSplineSet
PickledDataWithLists: "(dp0
Vcom.fontlab.hintData
p1
(dp2
Vvhints
p3
(lp4
(dp5
Vwidth
p6
L10L
sVposition
p7
L91L
sa(dp8
g6
L10L
sg7
L105L
sa(dp9
g6
L10L
sg7
L179L
sa(dp10
g6
L10L
sg7
L193L
sa(dp11
g6
L10L
sg7
L467L
sa(dp12
g6
L10L
sg7
L476L
sa(dp13
g6
L10L
sg7
L559L
sa(dp14
g6
L10L
sg7
L564L
sasVhhints
p15
(lp16
(dp17
g6
L10L
sg7
L-16L
sa(dp18
g6
L10L
sg7
L4L
sa(dp19
g6
L10L
sg7
L544L
sa(dp20
g6
L10L
sg7
L606L
sass."
EndChar

StartChar: uni0E02
Encoding: 402 3586 128
GlifName: uni0E_02
Width: 635
VWidth: 0
GlyphClass: 2
Flags: MW
LayerCount: 2
Fore
SplineSet
150 528 m 0
 119 528 94 506 89 476 c 0
 88 473 88 469 88 466 c 0
 88 441 105 424 133 424 c 0
 164 424 188 446 193 476 c 0
 194 479 194 483 194 486 c 0
 194 511 177 528 150 528 c 0
38 476 m 0
 49 548 122 612 232 612 c 0
 329 612 384 566 384 494 c 0
 384 486 383 478 382 469 c 0
 359 323 195 293 173 155 c 0
 172 148 171 141 171 135 c 0
 171 78 215 46 282 46 c 0
 355 46 417 87 431 174 c 2
 498 600 l 1
 583 600 l 1
 516 174 l 2
 499 66 404 -18 272 -18 c 0
 154 -18 85 41 85 124 c 0
 85 132 86 140 87 149 c 0
 115 323 298 344 319 474 c 0
 320 480 321 486 321 492 c 0
 321 541 282 567 217 567 c 0
 209 567 202 567 195 566 c 1
 227 555 245 529 245 494 c 0
 245 488 245 482 244 476 c 0
 235 419 186 380 126 380 c 0
 72 380 37 411 37 459 c 0
 37 464 37 470 38 476 c 0
EndSplineSet
PickledDataWithLists: "(dp0
Vcom.fontlab.hintData
p1
(dp2
Vvhints
p3
(lp4
(dp5
Vwidth
p6
L10L
sVposition
p7
L14L
sa(dp8
g6
L10L
sg7
L547L
sasVhhints
p9
(lp10
(dp11
g6
L10L
sg7
L-19L
sa(dp12
g6
L10L
sg7
L432L
sa(dp13
g6
L10L
sg7
L584L
sa(dp14
g6
L10L
sg7
L594L
sass."
EndChar

StartChar: uni0E03
Encoding: 403 3587 129
GlifName: uni0E_03
Width: 635
VWidth: 0
GlyphClass: 2
Flags: MW
LayerCount: 2
Fore
SplineSet
154 564 m 0
 123 564 99 542 94 512 c 0
 93 509 93 505 93 502 c 0
 93 477 110 460 138 460 c 0
 169 460 193 482 198 512 c 0
 199 515 199 519 199 522 c 0
 199 547 182 564 154 564 c 0
85 148 m 0
 113 322 302 350 324 490 c 0
 325 495 325 500 326 504 c 1
 291 448 236 405 151 405 c 0
 76 405 41 441 41 492 c 0
 41 498 42 505 43 512 c 0
 52 569 101 608 161 608 c 0
 215 608 250 577 250 529 c 0
 250 524 250 518 249 512 c 0
 246 490 236 471 223 456 c 1
 274 484 313 541 332 599 c 1
 366 603 l 1
 377 581 387 555 387 517 c 0
 387 506 386 493 384 480 c 0
 361 334 193 292 171 154 c 0
 170 147 169 141 169 135 c 0
 169 77 215 46 282 46 c 0
 355 46 415 86 429 173 c 2
 497 600 l 1
 582 600 l 1
 514 173 l 2
 497 65 404 -18 272 -18 c 0
 153 -18 83 40 83 123 c 0
 83 131 84 140 85 148 c 0
EndSplineSet
PickledDataWithLists: "(dp0
Vcom.fontlab.hintData
p1
(dp2
Vvhints
p3
(lp4
(dp5
Vwidth
p6
L10L
sVposition
p7
L11L
sa(dp8
g6
L10L
sg7
L224L
sa(dp9
g6
L10L
sg7
L230L
sa(dp10
g6
L10L
sg7
L297L
sasVhhints
p11
(lp12
(dp13
g6
L10L
sg7
L-24L
sa(dp14
g6
L10L
sg7
L400L
sa(dp15
g6
L10L
sg7
L584L
sa(dp16
g6
L10L
sg7
L603L
sass."
EndChar

StartChar: uni0E04
Encoding: 404 3588 130
GlifName: uni0E_04
Width: 665
VWidth: 0
GlyphClass: 2
Flags: MW
LayerCount: 2
Fore
SplineSet
329 373 m 0
 298 373 274 351 269 321 c 0
 268 318 268 314 268 311 c 0
 268 286 285 269 313 269 c 0
 344 269 368 291 373 321 c 0
 374 324 374 328 374 331 c 0
 374 356 357 373 329 373 c 0
336 417 m 0
 390 417 426 385 426 337 c 0
 426 332 426 327 425 321 c 0
 416 264 366 225 306 225 c 0
 264 225 234 244 223 275 c 1
 194 234 166 178 147 105 c 1
 126 0 l 1
 33 0 l 1
 33 0 55 73 62 120 c 0
 68 162 69 190 69 220 c 0
 69 227 69 235 69 243 c 0
 69 281 70 326 82 403 c 0
 102 529 215 618 368 618 c 0
 506 618 590 545 590 438 c 0
 590 427 589 415 587 403 c 2
 523 0 l 1
 438 0 l 1
 455 105 l 2
 461 145 490 307 505 403 c 0
 507 414 508 423 508 433 c 0
 508 513 449 554 358 554 c 0
 256 554 180 503 164 403 c 0
 149 307 146 255 145 214 c 1
 173 286 213 352 260 389 c 0
 281 406 306 417 336 417 c 0
EndSplineSet
PickledDataWithLists: "(dp0
Vcom.fontlab.hintData
p1
(dp2
Vvhints
p3
(lp4
(dp5
Vwidth
p6
L10L
sVposition
p7
L59L
sa(dp8
g6
L10L
sg7
L142L
sa(dp9
g6
L10L
sg7
L381L
sa(dp10
g6
L10L
sg7
L439L
sa(dp11
g6
L10L
sg7
L508L
sa(dp12
g6
L10L
sg7
L590L
sasVhhints
p13
(lp14
(dp15
g6
L10L
sg7
L-19L
sa(dp16
g6
L10L
sg7
L-4L
sa(dp17
g6
L10L
sg7
L363L
sa(dp18
g6
L10L
sg7
L551L
sa(dp19
g6
L10L
sg7
L608L
sass."
EndChar

StartChar: uni0E05
Encoding: 405 3589 131
GlifName: uni0E_05
Width: 665
VWidth: 0
GlyphClass: 2
Flags: MW
LayerCount: 2
Fore
SplineSet
329 373 m 0
 298 373 274 351 269 321 c 0
 268 318 268 314 268 311 c 0
 268 286 285 269 313 269 c 0
 344 269 368 291 373 321 c 0
 374 324 374 328 374 331 c 0
 374 356 357 373 329 373 c 0
336 417 m 0
 390 417 426 385 426 337 c 0
 426 332 426 327 425 321 c 0
 416 264 366 225 306 225 c 0
 264 225 234 244 223 275 c 1
 194 234 166 178 147 105 c 1
 126 0 l 1
 33 0 l 1
 33 0 55 73 62 120 c 0
 68 162 69 190 69 220 c 0
 69 227 69 235 69 243 c 0
 69 281 70 326 82 403 c 0
 95 487 143 612 276 612 c 1
 354 530 l 1
 458 612 l 1
 564 612 591 532 591 457 c 0
 591 438 590 420 587 403 c 2
 523 0 l 1
 438 0 l 1
 455 105 l 2
 461 145 490 307 505 403 c 0
 508 422 510 440 510 456 c 0
 510 513 490 546 455 551 c 1
 356 477 l 1
 346 477 l 1
 336 477 l 1
 259 551 l 1
 211 545 175 492 161 403 c 0
 145 305 145 254 144 213 c 1
 172 285 213 352 260 389 c 0
 281 406 306 417 336 417 c 0
EndSplineSet
PickledDataWithLists: "(dp0
Vcom.fontlab.hintData
p1
(dp2
Vvhints
p3
(lp4
(dp5
Vwidth
p6
L10L
sVposition
p7
L60L
sa(dp8
g6
L10L
sg7
L142L
sa(dp9
g6
L10L
sg7
L444L
sa(dp10
g6
L10L
sg7
L508L
sa(dp11
g6
L10L
sg7
L590L
sasVhhints
p12
(lp13
(dp14
g6
L10L
sg7
L-18L
sa(dp15
g6
L10L
sg7
L-4L
sa(dp16
g6
L10L
sg7
L363L
sa(dp17
g6
L10L
sg7
L469L
sa(dp18
g6
L10L
sg7
L549L
sa(dp19
g6
L10L
sg7
L606L
sass."
EndChar

StartChar: uni0E06
Encoding: 406 3590 132
GlifName: uni0E_06
Width: 650
VWidth: 0
GlyphClass: 2
Flags: MW
LayerCount: 2
Fore
SplineSet
123 140 m 0
 92 140 68 118 63 88 c 0
 62 85 62 81 62 78 c 0
 62 53 79 36 107 36 c 0
 138 36 162 58 167 88 c 0
 168 91 168 95 168 98 c 0
 168 123 151 140 123 140 c 0
165 564 m 0
 134 564 110 542 105 512 c 0
 104 509 104 505 104 502 c 0
 104 477 121 460 149 460 c 0
 180 460 204 482 209 512 c 0
 210 515 210 519 210 522 c 0
 210 547 193 564 165 564 c 0
172 608 m 0
 226 608 261 577 261 529 c 0
 261 524 261 518 260 512 c 0
 257 490 247 471 234 456 c 1
 285 484 324 541 343 599 c 1
 376 603 l 1
 387 581 397 555 397 517 c 0
 397 506 396 493 394 480 c 0
 372 344 227 299 189 184 c 1
 304 176 379 127 428 76 c 1
 432 106 435 140 440 170 c 2
 508 600 l 1
 593 600 l 1
 498 0 l 1
 420 0 l 1
 382 57 314 115 216 130 c 1
 218 123 219 114 219 106 c 0
 219 100 219 94 218 88 c 0
 209 31 160 -8 100 -8 c 0
 46 -8 11 23 11 71 c 0
 11 76 11 82 12 88 c 0
 20 136 56 171 104 181 c 1
 149 324 314 359 335 490 c 0
 336 495 336 500 337 504 c 1
 302 448 247 405 162 405 c 0
 87 405 52 441 52 492 c 0
 52 498 53 505 54 512 c 0
 63 569 112 608 172 608 c 0
EndSplineSet
PickledDataWithLists: "(dp0
Vcom.fontlab.hintData
p1
(dp2
Vvhints
p3
(lp4
(dp5
Vwidth
p6
L10L
sVposition
p7
L11L
sa(dp8
g6
L10L
sg7
L35L
sa(dp9
g6
L10L
sg7
L110L
sa(dp10
g6
L10L
sg7
L239L
sa(dp11
g6
L10L
sg7
L251L
sa(dp12
g6
L10L
sg7
L317L
sa(dp13
g6
L10L
sg7
L325L
sa(dp14
g6
L10L
sg7
L486L
sa(dp15
g6
L10L
sg7
L494L
sa(dp16
g6
L10L
sg7
L566L
sa(dp17
g6
L10L
sg7
L576L
sasVhhints
p18
(lp19
(dp20
g6
L10L
sg7
L-27L
sa(dp21
g6
L10L
sg7
L223L
sa(dp22
g6
L10L
sg7
L277L
sa(dp23
g6
L10L
sg7
L403L
sa(dp24
g6
L10L
sg7
L598L
sa(dp25
g6
L10L
sg7
L608L
sass."
EndChar

StartChar: uni0E07
Encoding: 407 3591 133
GlifName: uni0E_07
Width: 525
VWidth: 0
GlyphClass: 2
Flags: MW
AnchorPoint: "ThaiAbove.mark" 485 0 basechar 0
LayerCount: 2
Fore
SplineSet
335 564 m 0
 304 564 280 542 275 512 c 0
 274 509 274 505 274 502 c 0
 274 477 291 460 319 460 c 0
 350 460 374 482 379 512 c 0
 380 515 380 519 380 522 c 0
 380 547 363 564 335 564 c 0
11 333 m 1
 70 381 l 1
 317 68 l 1
 315 78 314 93 314 109 c 0
 314 122 315 135 317 150 c 2
 342 308 l 2
 352 370 367 392 378 434 c 1
 359 422 337 416 312 416 c 0
 258 416 223 447 223 495 c 0
 223 500 223 506 224 512 c 0
 233 569 282 608 342 608 c 0
 420 608 460 568 460 500 c 0
 460 490 459 479 457 467 c 0
 448 410 435 371 424 300 c 2
 376 0 l 1
 285 0 l 1
 11 333 l 1
EndSplineSet
PickledDataWithLists: "(dp0
Vcom.fontlab.hintData
p1
(dp2
Vvhints
p3
(lp4
(dp5
Vwidth
p6
L10L
sVposition
p7
L41L
sa(dp8
g6
L10L
sg7
L151L
sa(dp9
g6
L10L
sg7
L381L
sa(dp10
g6
L10L
sg7
L469L
sasVhhints
p11
(lp12
(dp13
g6
L10L
sg7
L-26L
sa(dp14
g6
L10L
sg7
L355L
sa(dp15
g6
L10L
sg7
L504L
sa(dp16
g6
L10L
sg7
L549L
sa(dp17
g6
L10L
sg7
L611L
sass."
EndChar

StartChar: uni0E08
Encoding: 408 3592 134
GlifName: uni0E_08
Width: 590
VWidth: 0
GlyphClass: 2
Flags: MW
AnchorPoint: "ThaiBelow.mark" 500 0 basechar 0
LayerCount: 2
Fore
SplineSet
47 434 m 1
 74 530 167 618 313 618 c 0
 443 618 522 550 522 451 c 0
 522 441 522 431 520 420 c 0
 496 268 424 198 407 90 c 2
 393 0 l 1
 301 0 l 1
 303 20 304 39 304 58 c 0
 304 123 293 183 273 226 c 1
 252 191 213 168 168 168 c 0
 114 168 79 199 79 247 c 0
 79 252 79 258 80 264 c 0
 89 321 138 360 198 360 c 0
 305 360 341 245 347 132 c 1
 366 236 414 289 435 420 c 0
 436 429 437 439 437 447 c 0
 437 519 385 554 303 554 c 0
 215 554 153 506 131 428 c 1
 47 434 l 1
175 212 m 0
 206 212 230 234 235 264 c 0
 236 267 236 271 236 274 c 0
 236 299 219 316 191 316 c 0
 160 316 136 294 131 264 c 0
 130 261 130 257 130 254 c 0
 130 229 147 212 175 212 c 0
EndSplineSet
PickledDataWithLists: "(dp0
Vcom.fontlab.hintData
p1
(dp2
Vvhints
p3
(lp4
(dp5
Vwidth
p6
L10L
sVposition
p7
L31L
sa(dp8
g6
L10L
sg7
L101L
sa(dp9
g6
L10L
sg7
L444L
sa(dp10
g6
L10L
sg7
L529L
sasVhhints
p11
(lp12
(dp13
g6
L10L
sg7
L-11L
sa(dp14
g6
L10L
sg7
L229L
sa(dp15
g6
L10L
sg7
L307L
sa(dp16
g6
L10L
sg7
L429L
sa(dp17
g6
L9L
sg7
L552L
sa(dp18
g6
L10L
sg7
L614L
sass."
EndChar

StartChar: uni0E09
Encoding: 409 3593 135
GlifName: uni0E_09
Width: 645
VWidth: 0
GlyphClass: 2
Flags: MW
LayerCount: 2
Fore
SplineSet
88 0 m 1
 106 114 l 2
 109 136 119 154 129 168 c 1
 127 168 124 168 122 168 c 0
 68 168 33 199 33 247 c 0
 33 252 33 258 34 264 c 0
 43 321 92 360 152 360 c 0
 206 360 241 329 241 281 c 0
 241 276 241 270 240 264 c 0
 231 210 200 189 191 135 c 2
 182 74 l 1
 243 128 323 182 425 187 c 1
 433 196 440 205 442 218 c 2
 472 412 l 2
 474 422 474 432 474 441 c 0
 474 516 420 554 333 554 c 0
 238 554 174 502 149 420 c 1
 64 426 l 1
 94 526 191 618 343 618 c 0
 478 618 560 549 560 445 c 0
 560 434 559 423 557 412 c 2
 529 232 l 2
 525 209 510 192 491 180 c 1
 527 170 549 143 549 104 c 0
 549 99 549 94 548 88 c 0
 539 31 490 -8 430 -8 c 0
 376 -8 341 23 341 71 c 0
 341 76 341 82 342 88 c 0
 344 102 348 115 355 126 c 1
 281 104 215 52 166 0 c 1
 88 0 l 1
453 140 m 0
 422 140 398 118 393 88 c 0
 392 85 392 81 392 78 c 0
 392 53 409 36 437 36 c 0
 468 36 492 58 497 88 c 0
 498 91 498 95 498 98 c 0
 498 123 481 140 453 140 c 0
145 316 m 0
 114 316 90 294 85 264 c 0
 84 261 84 257 84 254 c 0
 84 229 101 212 129 212 c 0
 160 212 184 234 189 264 c 0
 190 267 190 271 190 274 c 0
 190 299 173 316 145 316 c 0
EndSplineSet
PickledDataWithLists: "(dp0
Vcom.fontlab.hintData
p1
(dp2
Vvhints
p3
(lp4
(dp5
Vwidth
p6
L10L
sVposition
p7
L33L
sa(dp8
g6
L10L
sg7
L87L
sa(dp9
g6
L10L
sg7
L156L
sa(dp10
g6
L10L
sg7
L410L
sa(dp11
g6
L10L
sg7
L426L
sa(dp12
g6
L10L
sg7
L480L
sa(dp13
g6
L10L
sg7
L498L
sa(dp14
g6
L10L
sg7
L570L
sa(dp15
g6
L10L
sg7
L640L
sasVhhints
p16
(lp17
(dp18
g6
L10L
sg7
L-19L
sa(dp19
g6
L10L
sg7
L29L
sa(dp20
g6
L10L
sg7
L231L
sa(dp21
g6
L10L
sg7
L279L
sa(dp22
g6
L10L
sg7
L318L
sa(dp23
g6
L10L
sg7
L431L
sa(dp24
g6
L10L
sg7
L557L
sa(dp25
g6
L10L
sg7
L616L
sass."
EndChar

StartChar: uni0E0A
Encoding: 410 3594 136
GlifName: uni0E_0A_
Width: 640
VWidth: 0
GlyphClass: 2
Flags: MW
LayerCount: 2
Fore
SplineSet
150 528 m 0
 119 528 94 506 89 476 c 0
 88 473 88 469 88 466 c 0
 88 441 105 424 133 424 c 0
 164 424 188 446 193 476 c 0
 194 479 194 483 194 486 c 0
 194 511 177 528 150 528 c 0
384 479 m 1
 473 489 536 541 553 622 c 1
 635 615 l 1
 619 539 550 479 463 456 c 1
 512 443 546 417 546 374 c 0
 546 370 546 365 545 360 c 2
 516 174 l 2
 499 66 404 -18 272 -18 c 0
 154 -18 85 41 85 124 c 0
 85 132 86 140 87 149 c 0
 115 323 298 344 319 474 c 0
 320 480 321 486 321 492 c 0
 321 541 282 567 217 567 c 0
 209 567 202 567 195 566 c 1
 227 555 245 529 245 494 c 0
 245 488 245 482 244 476 c 0
 235 419 186 380 126 380 c 0
 72 380 37 411 37 459 c 0
 37 464 37 470 38 476 c 0
 49 548 122 612 232 612 c 0
 329 612 385 566 385 494 c 0
 385 489 385 484 384 479 c 1
372 432 m 1
 330 317 193 280 173 155 c 0
 172 148 171 141 171 135 c 0
 171 78 215 46 282 46 c 0
 355 46 417 87 431 174 c 2
 460 360 l 2
 461 364 461 368 461 372 c 0
 461 406 436 428 372 432 c 1
EndSplineSet
PickledDataWithLists: "(dp0
Vcom.fontlab.hintData
p1
(dp2
Vvhints
p3
(lp4
(dp5
Vwidth
p6
L10L
sVposition
p7
L44L
sa(dp8
g6
L10L
sg7
L186L
sa(dp9
g6
L10L
sg7
L197L
sa(dp10
g6
L10L
sg7
L268L
sa(dp11
g6
L10L
sg7
L279L
sa(dp12
g6
L10L
sg7
L473L
sa(dp13
g6
L10L
sg7
L555L
sa(dp14
g6
L10L
sg7
L586L
sasVhhints
p15
(lp16
(dp17
g6
L10L
sg7
L-29L
sa(dp18
g6
L10L
sg7
L29L
sa(dp19
g6
L10L
sg7
L437L
sa(dp20
g6
L10L
sg7
L599L
sa(dp21
g6
L10L
sg7
L644L
sass."
EndChar

StartChar: uni0E0B
Encoding: 411 3595 137
GlifName: uni0E_0B_
Width: 640
VWidth: 0
GlyphClass: 2
Flags: MW
LayerCount: 2
Fore
SplineSet
85 148 m 0
 113 322 302 350 324 490 c 0
 325 495 325 500 326 504 c 1
 291 448 236 405 151 405 c 0
 76 405 41 441 41 492 c 0
 41 498 42 505 43 512 c 0
 52 569 101 608 161 608 c 0
 215 608 250 577 250 529 c 0
 250 524 250 518 249 512 c 0
 246 490 236 471 223 456 c 1
 274 484 313 541 332 599 c 1
 366 603 l 1
 377 581 387 555 387 517 c 0
 387 506 386 493 384 480 c 0
 384 479 l 1
 473 490 535 541 552 622 c 1
 634 615 l 1
 618 539 549 479 462 456 c 1
 511 443 545 417 545 374 c 0
 545 370 545 365 544 360 c 2
 514 173 l 2
 497 65 404 -18 272 -18 c 0
 153 -18 83 40 83 123 c 0
 83 131 84 140 85 148 c 0
154 564 m 0
 123 564 99 542 94 512 c 0
 93 509 93 505 93 502 c 0
 93 477 110 460 138 460 c 0
 169 460 193 482 198 512 c 0
 199 515 199 519 199 522 c 0
 199 547 182 564 154 564 c 0
459 360 m 2
 460 364 460 368 460 372 c 0
 460 406 435 428 370 432 c 1
 323 323 190 276 171 154 c 0
 170 147 169 141 169 135 c 0
 169 77 215 46 282 46 c 0
 355 46 415 86 429 173 c 2
 459 360 l 2
EndSplineSet
PickledDataWithLists: "(dp0
Vcom.fontlab.hintData
p1
(dp2
Vvhints
p3
(lp4
(dp5
Vwidth
p6
L10L
sVposition
p7
L11L
sa(dp8
g6
L10L
sg7
L199L
sa(dp9
g6
L10L
sg7
L226L
sa(dp10
g6
L10L
sg7
L278L
sa(dp11
g6
L10L
sg7
L296L
sa(dp12
g6
L10L
sg7
L474L
sa(dp13
g6
L10L
sg7
L556L
sa(dp14
g6
L10L
sg7
L586L
sasVhhints
p15
(lp16
(dp17
g6
L10L
sg7
L-24L
sa(dp18
g6
L10L
sg7
L34L
sa(dp19
g6
L10L
sg7
L398L
sa(dp20
g6
L10L
sg7
L603L
sa(dp21
g6
L10L
sg7
L608L
sa(dp22
g6
L10L
sg7
L644L
sass."
EndChar

StartChar: uni0E0C
Encoding: 412 3596 138
GlifName: uni0E_0C_
Width: 950
VWidth: 0
GlyphClass: 2
Flags: MW
LayerCount: 2
Fore
SplineSet
160 140 m 0
 129 140 105 118 100 88 c 0
 99 85 99 81 99 78 c 0
 99 53 116 36 144 36 c 0
 175 36 199 58 204 88 c 0
 205 91 205 95 205 98 c 0
 205 123 188 140 160 140 c 0
167 184 m 0
 221 184 256 153 256 105 c 0
 256 100 256 94 255 88 c 0
 246 31 197 -8 137 -8 c 0
 83 -8 48 23 48 71 c 0
 48 76 48 82 49 88 c 0
 56 134 74 166 81 210 c 2
 95 297 l 2
 103 350 135 382 181 396 c 1
 63 419 l 1
 93 523 195 618 353 618 c 0
 494 618 579 545 579 438 c 0
 579 427 578 415 576 403 c 2
 547 218 l 2
 545 203 544 190 544 179 c 1
 632 169 690 123 727 75 c 1
 731 105 734 140 739 170 c 2
 807 600 l 1
 892 600 l 1
 797 0 l 1
 719 0 l 1
 684 58 632 113 550 127 c 1
 550 116 550 103 548 88 c 0
 539 31 490 -8 430 -8 c 0
 376 -8 341 23 341 71 c 0
 341 76 341 82 342 88 c 0
 351 145 400 184 460 184 c 0
 463 184 467 184 470 184 c 1
 466 194 463 206 463 220 c 0
 463 226 464 233 465 240 c 2
 491 403 l 2
 493 414 494 423 494 433 c 0
 494 513 435 554 343 554 c 0
 254 554 189 510 158 441 c 1
 304 411 l 1
 289 374 l 2
 286 374 268 377 258 377 c 0
 215 377 189 353 181 305 c 2
 171 240 l 2
 167 217 160 198 151 183 c 1
 156 184 161 184 167 184 c 0
453 140 m 0
 422 140 398 118 393 88 c 0
 392 85 392 81 392 78 c 0
 392 53 409 36 437 36 c 0
 468 36 492 58 497 88 c 0
 498 91 498 95 498 98 c 0
 498 123 481 140 453 140 c 0
EndSplineSet
PickledDataWithLists: "(dp0
Vcom.fontlab.hintData
p1
(dp2
Vvhints
p3
(lp4
(dp5
Vwidth
p6
L10L
sVposition
p7
L84L
sa(dp8
g6
L10L
sg7
L93L
sa(dp9
g6
L10L
sg7
L114L
sa(dp10
g6
L10L
sg7
L166L
sa(dp11
g6
L10L
sg7
L196L
sa(dp12
g6
L10L
sg7
L343L
sa(dp13
g6
L10L
sg7
L414L
sa(dp14
g6
L10L
sg7
L502L
sa(dp15
g6
L10L
sg7
L507L
sa(dp16
g6
L10L
sg7
L576L
sa(dp17
g6
L10L
sg7
L780L
sa(dp18
g6
L10L
sg7
L789L
sa(dp19
g6
L10L
sg7
L861L
sa(dp20
g6
L10L
sg7
L871L
sasVhhints
p21
(lp22
(dp23
g6
L10L
sg7
L-26L
sa(dp24
g6
L10L
sg7
L-17L
sa(dp25
g6
L10L
sg7
L41L
sa(dp26
g6
L10L
sg7
L234L
sa(dp27
g6
L10L
sg7
L286L
sa(dp28
g6
L10L
sg7
L546L
sa(dp29
g6
L10L
sg7
L593L
sa(dp30
g6
L10L
sg7
L604L
sass."
EndChar

StartChar: uni0E0D
Encoding: 413 3597 139
GlifName: uni0E_0D_
Width: 950
VWidth: 0
GlyphClass: 2
Flags: MW
LayerCount: 2
Fore
SplineSet
160 140 m 0
 129 140 105 118 100 88 c 0
 99 85 99 81 99 78 c 0
 99 53 116 36 144 36 c 0
 175 36 199 58 204 88 c 0
 205 91 205 95 205 98 c 0
 205 123 188 140 160 140 c 0
167 184 m 0
 221 184 256 153 256 105 c 0
 256 100 256 94 255 88 c 0
 246 31 197 -8 137 -8 c 0
 83 -8 48 23 48 71 c 0
 48 76 48 82 49 88 c 0
 56 134 74 166 81 210 c 2
 95 297 l 2
 103 350 135 382 181 396 c 1
 63 419 l 1
 93 523 195 618 353 618 c 0
 494 618 579 545 579 438 c 0
 579 427 578 415 576 403 c 2
 536 150 l 2
 535 142 534 134 534 127 c 0
 534 71 570 46 621 46 c 0
 679 46 730 78 741 150 c 2
 812 600 l 1
 897 600 l 1
 826 150 l 2
 811 56 727 -18 611 -18 c 0
 507 -18 449 42 449 122 c 0
 449 131 449 140 451 150 c 2
 491 403 l 2
 493 414 494 423 494 433 c 0
 494 513 435 554 343 554 c 0
 254 554 189 510 158 441 c 1
 304 411 l 1
 289 374 l 2
 286 374 268 377 258 377 c 0
 215 377 189 353 181 305 c 2
 171 240 l 2
 167 217 160 198 151 183 c 1
 156 184 161 184 167 184 c 0
500 -109 m 0
 476 -109 456 -126 452 -150 c 0
 452 -153 451 -156 451 -158 c 0
 451 -178 466 -191 487 -191 c 0
 511 -191 530 -174 534 -150 c 0
 534 -147 535 -145 535 -142 c 0
 535 -122 521 -109 500 -109 c 0
506 -71 m 0
 551 -71 579 -96 579 -135 c 0
 579 -140 579 -145 578 -150 c 0
 574 -176 561 -197 541 -211 c 1
 547 -211 553 -211 559 -211 c 2
 584 -211 l 2
 648 -211 704 -178 719 -84 c 1
 783 -91 l 1
 767 -193 687 -254 587 -254 c 2
 532 -254 l 2
 454 -254 407 -223 407 -167 c 0
 407 -162 407 -156 408 -150 c 0
 416 -102 456 -71 506 -71 c 0
EndSplineSet
PickledDataWithLists: "(dp0
Vcom.fontlab.hintData
p1
(dp2
Vvhints
p3
(lp4
(dp5
Vwidth
p6
L10L
sVposition
p7
L81L
sa(dp8
g6
L10L
sg7
L101L
sa(dp9
g6
L10L
sg7
L169L
sa(dp10
g6
L10L
sg7
L189L
sa(dp11
g6
L10L
sg7
L315L
sa(dp12
g6
L10L
sg7
L471L
sa(dp13
g6
L10L
sg7
L476L
sa(dp14
g6
L10L
sg7
L513L
sa(dp15
g6
L10L
sg7
L559L
sa(dp16
g6
L10L
sg7
L564L
sa(dp17
g6
L10L
sg7
L591L
sa(dp18
g6
L10L
sg7
L771L
sa(dp19
g6
L10L
sg7
L781L
sa(dp20
g6
L10L
sg7
L859L
sa(dp21
g6
L10L
sg7
L869L
sa(dp22
g6
L10L
sg7
L879L
sasVhhints
p23
(lp24
(dp25
g6
L10L
sg7
L-252L
sa(dp26
g6
L10L
sg7
L-197L
sa(dp27
g6
L10L
sg7
L-98L
sa(dp28
g6
L10L
sg7
L-19L
sa(dp29
g6
L10L
sg7
L43L
sa(dp30
g6
L10L
sg7
L56L
sa(dp31
g6
L10L
sg7
L544L
sa(dp32
g6
L10L
sg7
L595L
sa(dp33
g6
L10L
sg7
L606L
sass."
Substitution2: "ThaiRC.rd subtable" uni0E0D.rd
Colour: ff00ff
EndChar

StartChar: uni0E0D.rd
Encoding: 832 63642 140
GlifName: uni0E_0D_.rd
Width: 950
VWidth: 0
GlyphClass: 2
Flags: MW
LayerCount: 2
Fore
SplineSet
160 140 m 0
 129 140 105 118 100 88 c 0
 99 85 99 81 99 78 c 0
 99 53 116 36 144 36 c 0
 175 36 199 58 204 88 c 0
 205 91 205 95 205 98 c 0
 205 123 188 140 160 140 c 0
167 184 m 0
 221 184 256 153 256 105 c 0
 256 100 256 94 255 88 c 0
 246 31 197 -8 137 -8 c 0
 83 -8 48 23 48 71 c 0
 48 76 48 82 49 88 c 0
 56 134 74 166 81 210 c 2
 95 297 l 2
 103 350 135 382 181 396 c 1
 63 419 l 1
 93 523 195 618 353 618 c 0
 494 618 579 545 579 438 c 0
 579 427 578 415 576 403 c 2
 536 150 l 2
 535 142 534 134 534 127 c 0
 534 71 570 46 621 46 c 0
 679 46 730 78 741 150 c 2
 812 600 l 1
 897 600 l 1
 826 150 l 2
 811 56 727 -18 611 -18 c 0
 507 -18 449 42 449 122 c 0
 449 131 449 140 451 150 c 2
 491 403 l 2
 493 414 494 423 494 433 c 0
 494 513 435 554 343 554 c 0
 254 554 189 510 158 441 c 1
 304 411 l 1
 289 374 l 2
 286 374 268 377 258 377 c 0
 215 377 189 353 181 305 c 2
 171 240 l 2
 167 217 160 198 151 183 c 1
 156 184 161 184 167 184 c 0
EndSplineSet
PickledDataWithLists: "(dp0
Vcom.fontlab.hintData
p1
(dp2
Vvhints
p3
(lp4
(dp5
Vwidth
p6
L10L
sVposition
p7
L81L
sa(dp8
g6
L10L
sg7
L101L
sa(dp9
g6
L10L
sg7
L169L
sa(dp10
g6
L10L
sg7
L189L
sa(dp11
g6
L10L
sg7
L315L
sa(dp12
g6
L10L
sg7
L471L
sa(dp13
g6
L10L
sg7
L476L
sa(dp14
g6
L10L
sg7
L559L
sa(dp15
g6
L10L
sg7
L564L
sa(dp16
g6
L10L
sg7
L771L
sa(dp17
g6
L10L
sg7
L781L
sa(dp18
g6
L10L
sg7
L859L
sa(dp19
g6
L10L
sg7
L869L
sasVhhints
p20
(lp21
(dp22
g6
L10L
sg7
L-19L
sa(dp23
g6
L10L
sg7
L43L
sa(dp24
g6
L10L
sg7
L56L
sa(dp25
g6
L10L
sg7
L544L
sa(dp26
g6
L10L
sg7
L595L
sa(dp27
g6
L10L
sg7
L606L
sass."
EndChar

StartChar: uni0E0E
Encoding: 414 3598 141
GlifName: uni0E_0E_
Width: 665
VWidth: 0
GlyphClass: 2
Flags: MW
LayerCount: 2
Fore
SplineSet
176 -111 m 1
 165 -109 156 -108 147 -108 c 0
 121 -108 92 -123 87 -157 c 0
 86 -160 86 -163 86 -166 c 0
 86 -192 106 -206 128 -206 c 0
 158 -206 184 -185 188 -157 c 0
 189 -153 189 -149 189 -146 c 0
 189 -130 183 -119 176 -111 c 1
363 618 m 0
 504 618 589 545 589 438 c 0
 589 427 588 415 586 403 c 2
 509 -80 l 1
 485 -235 l 1
 408 -235 l 1
 358 -197 291 -153 230 -128 c 1
 233 -136 233 -146 231 -157 c 0
 224 -201 181 -246 119 -246 c 0
 67 -246 35 -216 35 -172 c 0
 35 -167 35 -162 36 -157 c 0
 45 -103 91 -68 150 -68 c 0
 232 -68 334 -125 412 -179 c 1
 414 -154 418 -121 424 -80 c 2
 501 403 l 2
 503 414 504 423 504 433 c 0
 504 513 445 554 353 554 c 0
 264 554 201 511 169 442 c 1
 339 411 l 1
 324 374 l 2
 321 374 303 377 293 377 c 0
 250 377 224 353 216 305 c 2
 201 210 l 2
 200 201 199 191 199 183 c 0
 199 160 203 140 203 116 c 0
 203 107 202 98 201 88 c 0
 192 31 143 -8 83 -8 c 0
 29 -8 -6 23 -6 71 c 0
 -6 76 -6 82 -5 88 c 0
 4 145 53 184 113 184 c 0
 117 184 120 184 124 184 c 1
 121 193 119 205 119 217 c 0
 119 224 120 232 121 240 c 2
 130 297 l 2
 138 349 170 381 215 395 c 1
 73 419 l 1
 103 523 205 618 363 618 c 0
106 140 m 0
 75 140 51 118 46 88 c 0
 45 85 45 81 45 78 c 0
 45 53 62 36 90 36 c 0
 121 36 145 58 150 88 c 0
 151 91 151 95 151 98 c 0
 151 123 134 140 106 140 c 0
EndSplineSet
PickledDataWithLists: "(dp0
Vcom.fontlab.hintData
p1
(dp2
Vvhints
p3
(lp4
(dp5
Vwidth
p6
L10L
sVposition
p7
L26L
sa(dp8
g6
L10L
sg7
L81L
sa(dp9
g6
L10L
sg7
L126L
sa(dp10
g6
L10L
sg7
L219L
sa(dp11
g6
L10L
sg7
L470L
sa(dp12
g6
L10L
sg7
L476L
sa(dp13
g6
L10L
sg7
L556L
sa(dp14
g6
L10L
sg7
L564L
sasVhhints
p15
(lp16
(dp17
g6
L10L
sg7
L-242L
sa(dp18
g6
L10L
sg7
L-235L
sa(dp19
g6
L10L
sg7
L-137L
sa(dp20
g6
L10L
sg7
L-87L
sa(dp21
g6
L10L
sg7
L-16L
sa(dp22
g6
L10L
sg7
L66L
sa(dp23
g6
L10L
sg7
L544L
sa(dp24
g6
L10L
sg7
L606L
sass."
EndChar

StartChar: uni0E0F
Encoding: 415 3599 142
GlifName: uni0E_0F_
Width: 665
VWidth: 0
GlyphClass: 2
Flags: MW
LayerCount: 2
Fore
SplineSet
106 140 m 0
 75 140 51 118 46 88 c 0
 45 85 45 81 45 78 c 0
 45 53 62 36 90 36 c 0
 121 36 145 58 150 88 c 0
 151 91 151 95 151 98 c 0
 151 123 134 140 106 140 c 0
363 618 m 0
 504 618 589 545 589 438 c 0
 589 427 588 415 586 403 c 2
 509 -80 l 1
 485 -235 l 1
 408 -235 l 1
 295 -134 l 1
 281 -154 259 -178 232 -199 c 0
 198 -225 154 -246 108 -246 c 0
 55 -246 21 -218 21 -173 c 0
 21 -168 21 -163 22 -157 c 0
 30 -105 75 -68 133 -68 c 0
 189 -68 218 -105 218 -144 c 0
 218 -148 218 -153 217 -157 c 0
 217 -160 216 -163 216 -165 c 1
 247 -137 270 -97 279 -80 c 1
 306 -80 l 1
 412 -178 l 1
 414 -153 418 -120 424 -80 c 2
 501 403 l 2
 503 414 504 423 504 433 c 0
 504 513 445 554 353 554 c 0
 264 554 201 511 169 442 c 1
 339 411 l 1
 324 374 l 2
 321 374 303 377 293 377 c 0
 250 377 224 353 216 305 c 2
 201 210 l 2
 200 201 199 191 199 183 c 0
 199 160 203 140 203 116 c 0
 203 107 202 98 201 88 c 0
 192 31 143 -8 83 -8 c 0
 29 -8 -6 23 -6 71 c 0
 -6 76 -6 82 -5 88 c 0
 4 145 53 184 113 184 c 0
 117 184 120 184 124 184 c 1
 121 193 119 205 119 217 c 0
 119 224 120 232 121 240 c 2
 130 297 l 2
 138 349 170 381 215 395 c 1
 73 419 l 1
 103 523 205 618 363 618 c 0
73 -157 m 0
 73 -160 72 -163 72 -166 c 0
 72 -193 93 -206 116 -206 c 0
 127 -206 139 -205 149 -202 c 1
 161 -192 171 -177 174 -157 c 0
 174 -154 175 -151 175 -149 c 0
 175 -125 157 -108 130 -108 c 0
 105 -108 78 -125 73 -157 c 0
EndSplineSet
PickledDataWithLists: "(dp0
Vcom.fontlab.hintData
p1
(dp2
Vvhints
p3
(lp4
(dp5
Vwidth
p6
L10L
sVposition
p7
L26L
sa(dp8
g6
L10L
sg7
L81L
sa(dp9
g6
L10L
sg7
L97L
sa(dp10
g6
L10L
sg7
L131L
sa(dp11
g6
L10L
sg7
L166L
sa(dp12
g6
L10L
sg7
L179L
sa(dp13
g6
L10L
sg7
L221L
sa(dp14
g6
L10L
sg7
L470L
sa(dp15
g6
L10L
sg7
L476L
sa(dp16
g6
L10L
sg7
L553L
sa(dp17
g6
L10L
sg7
L564L
sasVhhints
p18
(lp19
(dp20
g6
L10L
sg7
L-240L
sa(dp21
g6
L10L
sg7
L-234L
sa(dp22
g6
L10L
sg7
L-191L
sa(dp23
g6
L10L
sg7
L-88L
sa(dp24
g6
L10L
sg7
L-83L
sa(dp25
g6
L10L
sg7
L-16L
sa(dp26
g6
L10L
sg7
L66L
sa(dp27
g6
L10L
sg7
L544L
sa(dp28
g6
L10L
sg7
L606L
sass."
EndChar

StartChar: uni0E10
Encoding: 416 3600 143
GlifName: uni0E_10
Width: 555
VWidth: 0
GlyphClass: 2
Flags: MW
AnchorPoint: "ThaiTone.mark" 475 0 basechar 0
AnchorPoint: "ThaiAbove.mark" 515 0 basechar 0
LayerCount: 2
Fore
SplineSet
145 286 m 0
 114 286 90 264 85 234 c 0
 84 231 84 227 84 224 c 0
 84 199 101 182 129 182 c 0
 160 182 184 204 189 234 c 0
 190 237 190 241 190 244 c 0
 190 269 173 286 145 286 c 0
152 330 m 0
 263 330 298 211 304 104 c 1
 318 167 358 234 368 300 c 0
 369 304 369 309 369 313 c 0
 369 380 277 408 62 408 c 1
 65 428 l 2
 83 543 180 618 300 618 c 0
 382 618 429 583 453 553 c 1
 456 558 459 563 461 566 c 2
 496 612 l 1
 558 600 l 1
 557 596 l 1
 461 492 l 1
 434 492 l 1
 422 515 386 560 304 560 c 0
 236 560 170 527 149 449 c 1
 341 443 452 413 452 328 c 0
 452 322 452 316 451 310 c 0
 438 227 375 140 362 60 c 2
 352 0 l 1
 261 0 l 1
 263 16 263 33 263 49 c 0
 263 108 253 164 232 206 c 1
 214 165 171 138 122 138 c 0
 68 138 33 169 33 217 c 0
 33 222 33 228 34 234 c 0
 43 291 92 330 152 330 c 0
38 -157 m 0
 38 -160 37 -163 37 -166 c 0
 37 -193 58 -206 81 -206 c 0
 92 -206 104 -205 114 -202 c 1
 126 -192 136 -177 139 -157 c 0
 139 -154 140 -151 140 -149 c 0
 140 -125 122 -108 95 -108 c 0
 70 -108 43 -125 38 -157 c 0
181 -165 m 1
 212 -137 235 -97 244 -80 c 1
 271 -80 l 1
 347 -171 l 1
 350 -147 353 -117 359 -80 c 1
 424 -80 l 1
 400 -235 l 1
 343 -235 l 1
 257 -136 l 1
 243 -156 223 -179 197 -199 c 0
 163 -225 119 -246 73 -246 c 0
 20 -246 -14 -218 -14 -173 c 0
 -14 -168 -14 -163 -13 -157 c 0
 -5 -105 40 -68 98 -68 c 0
 154 -68 183 -105 183 -144 c 0
 183 -148 183 -153 182 -157 c 0
 182 -160 181 -163 181 -165 c 1
EndSplineSet
PickledDataWithLists: "(dp0
Vcom.fontlab.hintData
p1
(dp2
Vvhints
p3
(lp4
(dp5
Vwidth
p6
L10L
sVposition
p7
L30L
sa(dp8
g6
L10L
sg7
L80L
sa(dp9
g6
L10L
sg7
L89L
sa(dp10
g6
L10L
sg7
L110L
sa(dp11
g6
L10L
sg7
L149L
sa(dp12
g6
L10L
sg7
L160L
sa(dp13
g6
L10L
sg7
L434L
sa(dp14
g6
L10L
sg7
L504L
sa(dp15
g6
L10L
sg7
L510L
sa(dp16
g6
L10L
sg7
L516L
sa(dp17
g6
L10L
sg7
L569L
sasVhhints
p18
(lp19
(dp20
g6
L10L
sg7
L-237L
sa(dp21
g6
L10L
sg7
L-229L
sa(dp22
g6
L10L
sg7
L-189L
sa(dp23
g6
L10L
sg7
L-92L
sa(dp24
g6
L10L
sg7
L-87L
sa(dp25
g6
L10L
sg7
L-72L
sa(dp26
g6
L10L
sg7
L-9L
sa(dp27
g6
L10L
sg7
L197L
sa(dp28
g6
L10L
sg7
L215L
sa(dp29
g6
L10L
sg7
L272L
sa(dp30
g6
L10L
sg7
L366L
sa(dp31
g6
L10L
sg7
L420L
sa(dp32
g6
L10L
sg7
L558L
sa(dp33
g6
L10L
sg7
L612L
sa(dp34
g6
L10L
sg7
L652L
sass."
Substitution2: "ThaiRC.rd subtable" uni0E10.rd
Colour: ff00ff
EndChar

StartChar: uni0E10.rd
Encoding: 836 63646 144
GlifName: uni0E_10.rd
Width: 555
VWidth: 0
GlyphClass: 2
Flags: MW
AnchorPoint: "ThaiBelow.mark" 450 0 basechar 0
AnchorPoint: "ThaiTone.mark" 475 0 basechar 0
AnchorPoint: "ThaiAbove.mark" 515 0 basechar 0
LayerCount: 2
Fore
SplineSet
145 286 m 0
 114 286 90 264 85 234 c 0
 84 231 84 227 84 224 c 0
 84 199 101 182 129 182 c 0
 160 182 184 204 189 234 c 0
 190 237 190 241 190 244 c 0
 190 269 173 286 145 286 c 0
152 330 m 0
 263 330 298 211 304 104 c 1
 318 167 358 234 368 300 c 0
 369 304 369 309 369 313 c 0
 369 380 277 408 62 408 c 1
 65 428 l 2
 83 543 180 618 300 618 c 0
 382 618 429 583 453 553 c 1
 456 558 459 563 461 566 c 2
 496 612 l 1
 558 600 l 1
 557 596 l 1
 461 492 l 1
 434 492 l 1
 422 515 386 560 304 560 c 0
 236 560 170 527 149 449 c 1
 341 443 452 413 452 328 c 0
 452 322 452 316 451 310 c 0
 438 227 375 140 362 60 c 2
 352 0 l 1
 261 0 l 1
 263 16 263 33 263 49 c 0
 263 108 253 164 232 206 c 1
 214 165 171 138 122 138 c 0
 68 138 33 169 33 217 c 0
 33 222 33 228 34 234 c 0
 43 291 92 330 152 330 c 0
EndSplineSet
PickledDataWithLists: "(dp0
Vcom.fontlab.hintData
p1
(dp2
Vvhints
p3
(lp4
(dp5
Vwidth
p6
L10L
sVposition
p7
L30L
sa(dp8
g6
L10L
sg7
L89L
sa(dp9
g6
L10L
sg7
L110L
sa(dp10
g6
L10L
sg7
L430L
sa(dp11
g6
L10L
sg7
L510L
sa(dp12
g6
L10L
sg7
L569L
sasVhhints
p13
(lp14
(dp15
g6
L10L
sg7
L-9L
sa(dp16
g6
L10L
sg7
L197L
sa(dp17
g6
L10L
sg7
L215L
sa(dp18
g6
L10L
sg7
L272L
sa(dp19
g6
L10L
sg7
L366L
sa(dp20
g6
L10L
sg7
L420L
sa(dp21
g6
L10L
sg7
L558L
sa(dp22
g6
L10L
sg7
L612L
sa(dp23
g6
L10L
sg7
L652L
sass."
EndChar

StartChar: uni0E11
Encoding: 417 3601 145
GlifName: uni0E_11
Width: 665
VWidth: 0
GlyphClass: 2
Flags: MW
LayerCount: 2
Fore
SplineSet
155 564 m 0
 124 564 100 542 95 512 c 0
 94 509 94 505 94 502 c 0
 94 477 111 460 139 460 c 0
 170 460 194 482 199 512 c 0
 200 515 200 519 200 522 c 0
 200 547 183 564 155 564 c 0
162 608 m 0
 216 608 251 577 251 529 c 0
 251 524 251 518 250 512 c 0
 247 490 237 471 224 456 c 1
 275 484 314 541 333 599 c 1
 366 603 l 1
 376 582 386 555 386 517 c 0
 386 514 386 510 386 507 c 1
 429 560 482 608 529 608 c 0
 585 608 599 567 599 527 c 0
 599 514 598 502 596 490 c 2
 518 0 l 1
 433 0 l 1
 508 476 l 2
 509 485 510 494 510 502 c 0
 510 522 505 536 488 537 c 1
 456 530 401 469 367 424 c 1
 321 321 207 273 188 155 c 2
 163 0 l 1
 78 0 l 1
 102 149 l 2
 130 323 303 350 325 490 c 0
 326 495 326 500 327 504 c 1
 292 448 237 405 152 405 c 0
 77 405 42 441 42 492 c 0
 42 498 43 505 44 512 c 0
 53 569 102 608 162 608 c 0
EndSplineSet
PickledDataWithLists: "(dp0
Vcom.fontlab.hintData
p1
(dp2
Vvhints
p3
(lp4
(dp5
Vwidth
p6
L10L
sVposition
p7
L11L
sa(dp8
g6
L10L
sg7
L161L
sa(dp9
g6
L10L
sg7
L235L
sa(dp10
g6
L10L
sg7
L283L
sa(dp11
g6
L10L
sg7
L524L
sa(dp12
g6
L10L
sg7
L529L
sa(dp13
g6
L10L
sg7
L606L
sa(dp14
g6
L10L
sg7
L608L
sasVhhints
p15
(lp16
(dp17
g6
L10L
sg7
L-15L
sa(dp18
g6
L10L
sg7
L-8L
sa(dp19
g6
L10L
sg7
L398L
sa(dp20
g6
L10L
sg7
L602L
sa(dp21
g6
L10L
sg7
L611L
sass."
EndChar

StartChar: uni0E12
Encoding: 418 3602 146
GlifName: uni0E_12
Width: 960
VWidth: 0
GlyphClass: 2
Flags: MW
LayerCount: 2
Fore
SplineSet
329 373 m 0
 298 373 274 351 269 321 c 0
 268 318 268 314 268 311 c 0
 268 286 285 269 313 269 c 0
 344 269 368 291 373 321 c 0
 374 324 374 328 374 331 c 0
 374 356 357 373 329 373 c 0
464 140 m 0
 433 140 409 118 404 88 c 0
 403 85 403 81 403 78 c 0
 403 53 420 36 448 36 c 0
 479 36 503 58 508 88 c 0
 509 91 509 95 509 98 c 0
 509 123 492 140 464 140 c 0
276 612 m 1
 354 530 l 1
 458 612 l 1
 564 612 591 532 591 457 c 0
 591 438 590 420 587 403 c 2
 558 218 l 2
 556 203 555 190 555 179 c 1
 643 169 701 123 738 75 c 1
 742 105 745 140 750 170 c 2
 818 600 l 1
 903 600 l 1
 808 0 l 1
 730 0 l 1
 695 58 643 113 561 127 c 1
 561 116 561 103 559 88 c 0
 550 31 501 -8 441 -8 c 0
 387 -8 352 23 352 71 c 0
 352 76 352 82 353 88 c 0
 362 145 411 184 471 184 c 0
 475 184 479 183 483 183 c 1
 479 193 477 204 477 217 c 0
 477 224 478 232 479 240 c 2
 505 403 l 2
 508 422 510 440 510 456 c 0
 510 513 490 546 455 551 c 1
 356 477 l 1
 346 477 l 1
 336 477 l 1
 259 551 l 1
 211 545 175 492 161 403 c 0
 148 321 147 274 147 237 c 0
 147 234 147 230 147 227 c 0
 147 203 147 181 143 155 c 2
 131 84 l 1
 190 144 271 178 326 227 c 1
 319 226 313 225 306 225 c 0
 252 225 217 256 217 304 c 0
 217 309 217 315 218 321 c 0
 227 378 276 417 336 417 c 0
 390 417 425 386 425 338 c 0
 425 333 425 327 424 321 c 0
 399 163 185 124 130 0 c 1
 33 0 l 1
 33 0 55 73 62 120 c 0
 68 162 69 190 69 220 c 0
 69 227 69 235 69 243 c 0
 69 281 70 326 82 403 c 0
 95 487 143 612 276 612 c 1
EndSplineSet
PickledDataWithLists: "(dp0
Vcom.fontlab.hintData
p1
(dp2
Vvhints
p3
(lp4
(dp5
Vwidth
p6
L10L
sVposition
p7
L64L
sa(dp8
g6
L10L
sg7
L146L
sa(dp9
g6
L10L
sg7
L322L
sa(dp10
g6
L10L
sg7
L328L
sa(dp11
g6
L10L
sg7
L375L
sa(dp12
g6
L10L
sg7
L445L
sa(dp13
g6
L10L
sg7
L535L
sa(dp14
g6
L10L
sg7
L605L
sa(dp15
g6
L10L
sg7
L781L
sa(dp16
g6
L10L
sg7
L789L
sa(dp17
g6
L10L
sg7
L861L
sa(dp18
g6
L10L
sg7
L871L
sasVhhints
p19
(lp20
(dp21
g6
L10L
sg7
L-19L
sa(dp22
g6
L10L
sg7
L-15L
sa(dp23
g6
L10L
sg7
L37L
sa(dp24
g6
L10L
sg7
L241L
sa(dp25
g6
L10L
sg7
L289L
sa(dp26
g6
L10L
sg7
L412L
sa(dp27
g6
L10L
sg7
L546L
sa(dp28
g6
L10L
sg7
L587L
sa(dp29
g6
L10L
sg7
L593L
sa(dp30
g6
L10L
sg7
L603L
sass."
EndChar

StartChar: uni0E13
Encoding: 419 3603 147
GlifName: uni0E_13
Width: 960
VWidth: 0
GlyphClass: 2
Flags: MW
LayerCount: 2
Fore
SplineSet
160 140 m 0
 129 140 105 118 100 88 c 0
 99 85 99 81 99 78 c 0
 99 53 116 36 144 36 c 0
 175 36 199 58 204 88 c 0
 205 91 205 95 205 98 c 0
 205 123 188 140 160 140 c 0
167 184 m 0
 221 184 256 153 256 105 c 0
 256 100 256 94 255 88 c 0
 246 31 197 -8 137 -8 c 0
 83 -8 48 23 48 71 c 0
 48 76 48 82 49 88 c 0
 56 134 74 166 81 210 c 2
 95 297 l 2
 103 350 135 382 181 396 c 1
 63 419 l 1
 93 523 195 618 353 618 c 0
 494 618 579 545 579 438 c 0
 579 427 578 415 576 403 c 2
 539 170 l 2
 535 143 528 112 523 84 c 1
 576 136 646 182 735 187 c 1
 743 196 750 205 752 218 c 2
 812 600 l 1
 897 600 l 1
 839 232 l 2
 835 209 820 192 801 180 c 1
 837 170 859 143 859 104 c 0
 859 99 859 94 858 88 c 0
 849 31 800 -8 740 -8 c 0
 686 -8 651 23 651 71 c 0
 651 76 651 82 652 88 c 0
 654 101 658 113 664 124 c 1
 602 102 547 54 505 0 c 1
 427 0 l 1
 491 403 l 2
 493 414 494 423 494 433 c 0
 494 513 435 554 343 554 c 0
 254 554 189 510 158 441 c 1
 304 411 l 1
 289 374 l 2
 286 374 268 377 258 377 c 0
 215 377 189 353 181 305 c 2
 171 240 l 2
 167 217 160 198 151 183 c 1
 156 184 161 184 167 184 c 0
763 140 m 0
 732 140 708 118 703 88 c 0
 702 85 702 81 702 78 c 0
 702 53 719 36 747 36 c 0
 778 36 802 58 807 88 c 0
 808 91 808 95 808 98 c 0
 808 123 791 140 763 140 c 0
EndSplineSet
PickledDataWithLists: "(dp0
Vcom.fontlab.hintData
p1
(dp2
Vvhints
p3
(lp4
(dp5
Vwidth
p6
L10L
sVposition
p7
L84L
sa(dp8
g6
L10L
sg7
L104L
sa(dp9
g6
L10L
sg7
L166L
sa(dp10
g6
L10L
sg7
L186L
sa(dp11
g6
L10L
sg7
L311L
sa(dp12
g6
L10L
sg7
L454L
sa(dp13
g6
L10L
sg7
L469L
sa(dp14
g6
L10L
sg7
L540L
sa(dp15
g6
L10L
sg7
L551L
sa(dp16
g6
L10L
sg7
L709L
sa(dp17
g6
L10L
sg7
L780L
sa(dp18
g6
L10L
sg7
L816L
sa(dp19
g6
L10L
sg7
L865L
sa(dp20
g6
L10L
sg7
L935L
sasVhhints
p21
(lp22
(dp23
g6
L10L
sg7
L-17L
sa(dp24
g6
L10L
sg7
L29L
sa(dp25
g6
L10L
sg7
L41L
sa(dp26
g6
L10L
sg7
L54L
sa(dp27
g6
L10L
sg7
L241L
sa(dp28
g6
L10L
sg7
L289L
sa(dp29
g6
L10L
sg7
L546L
sa(dp30
g6
L10L
sg7
L594L
sa(dp31
g6
L10L
sg7
L604L
sass."
EndChar

StartChar: uni0E14
Encoding: 420 3604 148
GlifName: uni0E_14
Width: 665
VWidth: 0
GlyphClass: 2
Flags: MW
LayerCount: 2
Fore
SplineSet
438 0 m 1
 455 105 l 2
 461 145 490 307 505 403 c 0
 507 414 508 423 508 433 c 0
 508 513 449 554 358 554 c 0
 256 554 177 503 161 403 c 0
 148 321 147 274 147 237 c 0
 147 234 147 230 147 227 c 0
 147 203 147 181 143 155 c 2
 131 84 l 1
 190 144 271 178 326 227 c 1
 319 226 313 225 306 225 c 0
 252 225 217 256 217 304 c 0
 217 309 217 315 218 321 c 0
 227 378 276 417 336 417 c 0
 390 417 425 386 425 338 c 0
 425 333 425 327 424 321 c 0
 399 163 185 124 130 0 c 1
 33 0 l 1
 33 0 55 73 62 120 c 0
 68 162 69 190 69 220 c 0
 69 227 69 235 69 243 c 0
 69 281 70 326 82 403 c 0
 102 529 215 618 368 618 c 0
 506 618 590 545 590 438 c 0
 590 427 589 415 587 403 c 2
 523 0 l 1
 438 0 l 1
329 373 m 0
 298 373 274 351 269 321 c 0
 268 318 268 314 268 311 c 0
 268 286 285 269 313 269 c 0
 344 269 368 291 373 321 c 0
 374 324 374 328 374 331 c 0
 374 356 357 373 329 373 c 0
EndSplineSet
PickledDataWithLists: "(dp0
Vcom.fontlab.hintData
p1
(dp2
Vvhints
p3
(lp4
(dp5
Vwidth
p6
L10L
sVposition
p7
L60L
sa(dp8
g6
L10L
sg7
L149L
sa(dp9
g6
L10L
sg7
L306L
sa(dp10
g6
L10L
sg7
L394L
sa(dp11
g6
L10L
sg7
L495L
sa(dp12
g6
L10L
sg7
L501L
sa(dp13
g6
L10L
sg7
L584L
sa(dp14
g6
L10L
sg7
L589L
sasVhhints
p15
(lp16
(dp17
g6
L10L
sg7
L-23L
sa(dp18
g6
L10L
sg7
L-15L
sa(dp19
g6
L10L
sg7
L40L
sa(dp20
g6
L10L
sg7
L140L
sa(dp21
g6
L10L
sg7
L547L
sa(dp22
g6
L10L
sg7
L609L
sass."
EndChar

StartChar: uni0E15
Encoding: 421 3605 149
GlifName: uni0E_15
Width: 665
VWidth: 0
GlyphClass: 2
Flags: MW
LayerCount: 2
Fore
SplineSet
438 0 m 1
 455 105 l 2
 461 145 490 307 505 403 c 0
 508 422 510 440 510 456 c 0
 510 513 490 546 455 551 c 1
 356 477 l 1
 346 477 l 1
 336 477 l 1
 259 551 l 1
 211 545 175 492 161 403 c 0
 148 321 147 274 147 237 c 0
 147 234 147 230 147 227 c 0
 147 203 147 181 143 155 c 2
 131 84 l 1
 190 144 271 178 326 227 c 1
 319 226 313 225 306 225 c 0
 252 225 217 256 217 304 c 0
 217 309 217 315 218 321 c 0
 227 378 276 417 336 417 c 0
 390 417 425 386 425 338 c 0
 425 333 425 327 424 321 c 0
 399 163 185 124 130 0 c 1
 33 0 l 1
 33 0 55 73 62 120 c 0
 68 162 69 190 69 220 c 0
 69 227 69 235 69 243 c 0
 69 281 70 326 82 403 c 0
 95 487 143 612 276 612 c 1
 354 530 l 1
 458 612 l 1
 564 612 591 532 591 457 c 0
 591 438 590 420 587 403 c 2
 523 0 l 1
 438 0 l 1
329 373 m 0
 298 373 274 351 269 321 c 0
 268 318 268 314 268 311 c 0
 268 286 285 269 313 269 c 0
 344 269 368 291 373 321 c 0
 374 324 374 328 374 331 c 0
 374 356 357 373 329 373 c 0
EndSplineSet
PickledDataWithLists: "(dp0
Vcom.fontlab.hintData
p1
(dp2
Vvhints
p3
(lp4
(dp5
Vwidth
p6
L10L
sVposition
p7
L64L
sa(dp8
g6
L10L
sg7
L146L
sa(dp9
g6
L10L
sg7
L309L
sa(dp10
g6
L10L
sg7
L332L
sa(dp11
g6
L10L
sg7
L337L
sa(dp12
g6
L10L
sg7
L391L
sa(dp13
g6
L10L
sg7
L405L
sa(dp14
g6
L10L
sg7
L513L
sa(dp15
g6
L10L
sg7
L597L
sa(dp16
g6
L10L
sg7
L602L
sasVhhints
p17
(lp18
(dp19
g6
L10L
sg7
L-21L
sa(dp20
g6
L10L
sg7
L-13L
sa(dp21
g6
L10L
sg7
L36L
sa(dp22
g6
L10L
sg7
L133L
sa(dp23
g6
L10L
sg7
L412L
sa(dp24
g6
L10L
sg7
L546L
sa(dp25
g6
L10L
sg7
L590L
sa(dp26
g6
L10L
sg7
L603L
sass."
EndChar

StartChar: uni0E16
Encoding: 422 3606 150
GlifName: uni0E_16
Width: 655
VWidth: 0
GlyphClass: 2
Flags: MW
LayerCount: 2
Fore
SplineSet
353 618 m 0
 494 618 579 545 579 438 c 0
 579 427 578 415 576 403 c 2
 512 0 l 1
 427 0 l 1
 491 403 l 2
 493 414 494 423 494 433 c 0
 494 513 435 554 343 554 c 0
 254 554 189 510 158 441 c 1
 304 411 l 1
 289 374 l 2
 286 374 268 377 258 377 c 0
 215 377 189 353 181 305 c 2
 171 240 l 2
 167 217 160 198 151 183 c 1
 156 184 161 184 167 184 c 0
 221 184 256 153 256 105 c 0
 256 100 256 94 255 88 c 0
 246 31 197 -8 137 -8 c 0
 83 -8 48 23 48 71 c 0
 48 76 48 82 49 88 c 0
 56 134 74 166 81 210 c 2
 95 297 l 2
 103 350 135 382 181 396 c 1
 63 419 l 1
 93 523 195 618 353 618 c 0
160 140 m 0
 129 140 105 118 100 88 c 0
 99 85 99 81 99 78 c 0
 99 53 116 36 144 36 c 0
 175 36 199 58 204 88 c 0
 205 91 205 95 205 98 c 0
 205 123 188 140 160 140 c 0
EndSplineSet
PickledDataWithLists: "(dp0
Vcom.fontlab.hintData
p1
(dp2
Vvhints
p3
(lp4
(dp5
Vwidth
p6
L10L
sVposition
p7
L81L
sa(dp8
g6
L10L
sg7
L86L
sa(dp9
g6
L10L
sg7
L111L
sa(dp10
g6
L10L
sg7
L169L
sa(dp11
g6
L10L
sg7
L199L
sa(dp12
g6
L10L
sg7
L315L
sa(dp13
g6
L10L
sg7
L465L
sa(dp14
g6
L10L
sg7
L476L
sa(dp15
g6
L10L
sg7
L556L
sa(dp16
g6
L10L
sg7
L564L
sasVhhints
p17
(lp18
(dp19
g6
L10L
sg7
L-19L
sa(dp20
g6
L10L
sg7
L43L
sa(dp21
g6
L10L
sg7
L56L
sa(dp22
g6
L10L
sg7
L544L
sa(dp23
g6
L10L
sg7
L606L
sass."
EndChar

StartChar: uni0E17
Encoding: 423 3607 151
GlifName: uni0E_17
Width: 660
VWidth: 0
GlyphClass: 2
Flags: MW
LayerCount: 2
Fore
SplineSet
145 460 m 0
 176 460 200 482 205 512 c 0
 206 515 206 519 206 522 c 0
 206 547 189 564 161 564 c 0
 130 564 106 542 101 512 c 0
 100 509 100 505 100 502 c 0
 100 477 117 460 145 460 c 0
138 416 m 0
 84 416 49 447 49 495 c 0
 49 500 49 506 50 512 c 0
 59 569 108 608 168 608 c 0
 222 608 257 577 257 529 c 0
 257 524 257 518 256 512 c 0
 249 466 222 434 215 390 c 2
 193 253 l 1
 262 401 378 608 499 608 c 0
 571 608 592 557 592 512 c 0
 592 504 591 495 590 488 c 2
 513 0 l 1
 427 0 l 1
 502 474 l 2
 503 480 503 486 503 492 c 0
 503 516 495 534 472 536 c 1
 371 512 219 231 171 115 c 1
 153 0 l 1
 68 0 l 1
 125 360 l 2
 128 382 137 401 147 416 c 1
 144 416 141 416 138 416 c 0
EndSplineSet
PickledDataWithLists: "(dp0
Vcom.fontlab.hintData
p1
(dp2
Vvhints
p3
(lp4
(dp5
Vwidth
p6
L10L
sVposition
p7
L58L
sa(dp8
g6
L10L
sg7
L104L
sa(dp9
g6
L10L
sg7
L479L
sa(dp10
g6
L10L
sg7
L484L
sa(dp11
g6
L10L
sg7
L561L
sa(dp12
g6
L10L
sg7
L566L
sasVhhints
p13
(lp14
(dp15
g6
L10L
sg7
L-13L
sa(dp16
g6
L10L
sg7
L-8L
sa(dp17
g6
L10L
sg7
L546L
sa(dp18
g6
L10L
sg7
L604L
sass."
EndChar

StartChar: uni0E18
Encoding: 424 3608 152
GlifName: uni0E_18
Width: 585
VWidth: 0
GlyphClass: 2
Flags: MW
AnchorPoint: "ThaiTone.mark" 505 0 basechar 0
LayerCount: 2
Fore
SplineSet
50 174 m 2
 70 300 l 1
 155 300 l 1
 135 174 l 2
 133 164 133 155 133 146 c 0
 133 78 178 46 242 46 c 0
 314 46 376 87 390 174 c 2
 408 288 l 2
 409 292 409 296 409 300 c 0
 409 370 302 403 76 403 c 1
 80 428 l 2
 98 543 195 618 315 618 c 0
 397 618 444 583 468 553 c 1
 471 558 474 563 476 566 c 2
 511 612 l 1
 573 600 l 1
 572 596 l 1
 476 492 l 1
 449 492 l 1
 437 515 401 560 319 560 c 0
 250 560 185 526 164 447 c 1
 369 440 495 404 495 314 c 0
 495 309 495 304 494 298 c 2
 475 174 l 2
 458 66 364 -18 232 -18 c 0
 114 -18 47 50 47 142 c 0
 47 152 48 163 50 174 c 2
EndSplineSet
PickledDataWithLists: "(dp0
Vcom.fontlab.hintData
p1
(dp2
Vvhints
p3
(lp4
(dp5
Vwidth
p6
L10L
sVposition
p7
L64L
sa(dp8
g6
L10L
sg7
L109L
sa(dp9
g6
L10L
sg7
L146L
sa(dp10
g6
L10L
sg7
L195L
sa(dp11
g6
L10L
sg7
L430L
sa(dp12
g6
L10L
sg7
L513L
sasVhhints
p13
(lp14
(dp15
g6
L10L
sg7
L-14L
sa(dp16
g6
L10L
sg7
L44L
sa(dp17
g6
L10L
sg7
L294L
sa(dp18
g6
L10L
sg7
L496L
sa(dp19
g6
L10L
sg7
L555L
sa(dp20
g6
L10L
sg7
L612L
sass."
EndChar

StartChar: uni0E19
Encoding: 425 3609 153
GlifName: uni0E_19
Width: 650
VWidth: 0
GlyphClass: 2
Flags: MW
LayerCount: 2
Fore
SplineSet
68 0 m 1
 125 360 l 2
 129 383 138 401 148 416 c 1
 145 416 141 416 138 416 c 0
 84 416 49 447 49 495 c 0
 49 500 49 506 50 512 c 0
 59 569 108 608 168 608 c 0
 222 608 257 577 257 529 c 0
 257 524 257 518 256 512 c 0
 247 458 223 436 214 382 c 2
 180 170 l 2
 175 141 168 107 162 77 c 1
 226 130 317 182 427 187 c 1
 435 196 441 205 443 218 c 2
 503 600 l 1
 588 600 l 1
 530 232 l 2
 526 209 511 192 492 180 c 1
 528 170 550 143 550 104 c 0
 550 99 550 94 549 88 c 0
 540 31 491 -8 431 -8 c 0
 377 -8 342 23 342 71 c 0
 342 76 342 82 343 88 c 0
 345 103 350 116 357 128 c 1
 272 107 198 53 146 0 c 1
 68 0 l 1
454 140 m 0
 423 140 399 118 394 88 c 0
 393 85 393 81 393 78 c 0
 393 53 410 36 438 36 c 0
 469 36 493 58 498 88 c 0
 499 91 499 95 499 98 c 0
 499 123 482 140 454 140 c 0
145 460 m 0
 176 460 200 482 205 512 c 0
 206 515 206 519 206 522 c 0
 206 547 189 564 161 564 c 0
 130 564 106 542 101 512 c 0
 100 509 100 505 100 502 c 0
 100 477 117 460 145 460 c 0
EndSplineSet
PickledDataWithLists: "(dp0
Vcom.fontlab.hintData
p1
(dp2
Vvhints
p3
(lp4
(dp5
Vwidth
p6
L10L
sVposition
p7
L64L
sa(dp8
g6
L10L
sg7
L84L
sa(dp9
g6
L10L
sg7
L168L
sa(dp10
g6
L10L
sg7
L387L
sa(dp11
g6
L10L
sg7
L457L
sa(dp12
g6
L10L
sg7
L491L
sa(dp13
g6
L10L
sg7
L550L
sa(dp14
g6
L10L
sg7
L625L
sasVhhints
p15
(lp16
(dp17
g6
L10L
sg7
L-27L
sa(dp18
g6
L10L
sg7
L-20L
sa(dp19
g6
L10L
sg7
L22L
sa(dp20
g6
L10L
sg7
L248L
sa(dp21
g6
L10L
sg7
L307L
sa(dp22
g6
L10L
sg7
L589L
sa(dp23
g6
L10L
sg7
L598L
sass."
EndChar

StartChar: uni0E1A
Encoding: 426 3610 154
GlifName: uni0E_1A_
Width: 700
VWidth: 0
GlyphClass: 2
Flags: MW
LayerCount: 2
Fore
SplineSet
140 460 m 0
 171 460 195 482 200 512 c 0
 201 515 201 519 201 522 c 0
 201 547 184 564 156 564 c 0
 125 564 101 542 96 512 c 0
 95 509 95 505 95 502 c 0
 95 477 112 460 140 460 c 0
133 416 m 0
 79 416 44 447 44 495 c 0
 44 500 44 506 45 512 c 0
 54 569 103 608 163 608 c 0
 217 608 252 577 252 529 c 0
 252 524 252 518 251 512 c 0
 244 466 217 434 210 390 c 2
 177 184 l 2
 175 174 175 165 175 156 c 0
 175 83 228 46 312 46 c 0
 406 46 477 92 492 184 c 2
 558 600 l 1
 643 600 l 1
 577 184 l 2
 558 66 448 -18 302 -18 c 0
 170 -18 89 50 89 151 c 0
 89 162 90 173 92 184 c 2
 120 360 l 2
 123 382 132 401 142 416 c 1
 139 416 136 416 133 416 c 0
EndSplineSet
PickledDataWithLists: "(dp0
Vcom.fontlab.hintData
p1
(dp2
Vvhints
p3
(lp4
(dp5
Vwidth
p6
L10L
sVposition
p7
L81L
sa(dp8
g6
L10L
sg7
L106L
sa(dp9
g6
L10L
sg7
L194L
sa(dp10
g6
L10L
sg7
L511L
sa(dp11
g6
L10L
sg7
L516L
sa(dp12
g6
L10L
sg7
L599L
sa(dp13
g6
L10L
sg7
L604L
sasVhhints
p14
(lp15
(dp16
g6
L10L
sg7
L-26L
sa(dp17
g6
L10L
sg7
L36L
sa(dp18
g6
L10L
sg7
L596L
sass."
EndChar

StartChar: uni0E1B
Encoding: 427 3611 155
GlifName: uni0E_1B_
Width: 700
VWidth: 0
GlyphClass: 2
Flags: MW
LayerCount: 2
Fore
SplineSet
140 460 m 0
 171 460 195 482 200 512 c 0
 201 515 201 519 201 522 c 0
 201 547 184 564 156 564 c 0
 125 564 101 542 96 512 c 0
 95 509 95 505 95 502 c 0
 95 477 112 460 140 460 c 0
133 416 m 0
 79 416 44 447 44 495 c 0
 44 500 44 506 45 512 c 0
 54 569 103 608 163 608 c 0
 217 608 252 577 252 529 c 0
 252 524 252 518 251 512 c 0
 244 466 217 434 210 390 c 2
 177 184 l 2
 175 174 175 165 175 156 c 0
 175 83 228 46 312 46 c 0
 406 46 477 92 492 184 c 2
 591 810 l 1
 676 810 l 1
 577 184 l 2
 558 66 448 -18 302 -18 c 0
 170 -18 89 50 89 151 c 0
 89 162 90 173 92 184 c 2
 120 360 l 2
 123 382 132 401 142 416 c 1
 139 416 136 416 133 416 c 0
EndSplineSet
PickledDataWithLists: "(dp0
Vcom.fontlab.hintData
p1
(dp2
Vvhints
p3
(lp4
(dp5
Vwidth
p6
L10L
sVposition
p7
L81L
sa(dp8
g6
L10L
sg7
L106L
sa(dp9
g6
L10L
sg7
L194L
sa(dp10
g6
L10L
sg7
L521L
sa(dp11
g6
L10L
sg7
L526L
sa(dp12
g6
L10L
sg7
L609L
sa(dp13
g6
L10L
sg7
L614L
sasVhhints
p14
(lp15
(dp16
g6
L10L
sg7
L-26L
sa(dp17
g6
L10L
sg7
L36L
sa(dp18
g6
L10L
sg7
L600L
sa(dp19
g6
L10L
sg7
L836L
sass."
EndChar

StartChar: uni0E1C
Encoding: 428 3612 156
GlifName: uni0E_1C_
Width: 715
VWidth: 0
GlyphClass: 2
Flags: MW
LayerCount: 2
Fore
SplineSet
506 162 m 2
 575 600 l 1
 658 600 l 1
 563 0 l 1
 484 0 l 1
 345 298 l 1
 112 0 l 1
 32 0 l 1
 80 300 l 2
 92 373 83 410 92 467 c 0
 106 554 164 608 254 608 c 0
 308 608 343 577 343 529 c 0
 343 524 343 518 342 512 c 0
 333 455 284 416 224 416 c 0
 198 416 176 424 160 437 c 1
 160 435 160 433 160 431 c 0
 160 402 167 383 167 351 c 0
 167 339 166 325 163 308 c 2
 140 162 l 2
 136 139 130 116 124 97 c 1
 329 360 l 1
 355 360 l 1
 379 360 l 1
 501 97 l 1
 501 116 502 139 506 162 c 2
231 460 m 0
 262 460 286 482 291 512 c 0
 292 515 292 519 292 522 c 0
 292 547 275 564 247 564 c 0
 216 564 192 542 187 512 c 0
 186 509 186 505 186 502 c 0
 186 477 203 460 231 460 c 0
EndSplineSet
PickledDataWithLists: "(dp0
Vcom.fontlab.hintData
p1
(dp2
Vvhints
p3
(lp4
(dp5
Vwidth
p6
L10L
sVposition
p7
L64L
sa(dp8
g6
L10L
sg7
L148L
sa(dp9
g6
L10L
sg7
L372L
sa(dp10
g6
L10L
sg7
L559L
sa(dp11
g6
L10L
sg7
L643L
sa(dp12
g6
L10L
sg7
L653L
sasVhhints
p13
(lp14
(dp15
g6
L10L
sg7
L-14L
sa(dp16
g6
L10L
sg7
L-8L
sa(dp17
g6
L10L
sg7
L318L
sa(dp18
g6
L10L
sg7
L514L
sa(dp19
g6
L10L
sg7
L544L
sa(dp20
g6
L10L
sg7
L599L
sa(dp21
g6
L10L
sg7
L604L
sass."
EndChar

StartChar: uni0E1D
Encoding: 429 3613 157
GlifName: uni0E_1D_
Width: 715
VWidth: 0
GlyphClass: 2
Flags: MW
LayerCount: 2
Fore
SplineSet
506 162 m 2
 608 810 l 1
 691 810 l 1
 563 0 l 1
 484 0 l 1
 345 298 l 1
 112 0 l 1
 32 0 l 1
 80 300 l 2
 92 373 83 410 92 467 c 0
 106 554 164 608 254 608 c 0
 308 608 343 577 343 529 c 0
 343 524 343 518 342 512 c 0
 333 455 284 416 224 416 c 0
 198 416 176 424 160 437 c 1
 160 435 160 433 160 431 c 0
 160 402 167 383 167 351 c 0
 167 339 166 325 163 308 c 2
 140 162 l 2
 136 139 130 116 124 97 c 1
 329 360 l 1
 355 360 l 1
 379 360 l 1
 501 97 l 1
 501 116 502 139 506 162 c 2
231 460 m 0
 262 460 286 482 291 512 c 0
 292 515 292 519 292 522 c 0
 292 547 275 564 247 564 c 0
 216 564 192 542 187 512 c 0
 186 509 186 505 186 502 c 0
 186 477 203 460 231 460 c 0
EndSplineSet
PickledDataWithLists: "(dp0
Vcom.fontlab.hintData
p1
(dp2
Vvhints
p3
(lp4
(dp5
Vwidth
p6
L10L
sVposition
p7
L64L
sa(dp8
g6
L10L
sg7
L148L
sa(dp9
g6
L10L
sg7
L372L
sa(dp10
g6
L10L
sg7
L559L
sa(dp11
g6
L10L
sg7
L643L
sa(dp12
g6
L10L
sg7
L653L
sasVhhints
p13
(lp14
(dp15
g6
L10L
sg7
L-14L
sa(dp16
g6
L10L
sg7
L-8L
sa(dp17
g6
L10L
sg7
L318L
sa(dp18
g6
L10L
sg7
L514L
sa(dp19
g6
L10L
sg7
L544L
sa(dp20
g6
L10L
sg7
L604L
sa(dp21
g6
L10L
sg7
L834L
sass."
EndChar

StartChar: uni0E1E
Encoding: 430 3614 158
GlifName: uni0E_1E_
Width: 735
VWidth: 0
GlyphClass: 2
Flags: MW
LayerCount: 2
Fore
SplineSet
678 600 m 1
 583 0 l 1
 509 0 l 1
 389 410 l 1
 139 0 l 1
 67 0 l 1
 124 360 l 2
 128 383 137 401 147 416 c 1
 143 416 140 416 136 416 c 0
 82 416 47 447 47 495 c 0
 47 500 47 506 48 512 c 0
 57 569 106 608 166 608 c 0
 220 608 255 577 255 529 c 0
 255 524 255 518 254 512 c 0
 246 463 218 433 210 385 c 2
 179 192 l 2
 176 175 172 155 167 138 c 1
 381 495 l 1
 402 495 l 1
 423 495 l 1
 526 135 l 1
 527 152 528 174 531 192 c 2
 596 600 l 1
 678 600 l 1
143 460 m 0
 174 460 198 482 203 512 c 0
 204 515 204 519 204 522 c 0
 204 547 187 564 159 564 c 0
 128 564 104 542 99 512 c 0
 98 509 98 505 98 502 c 0
 98 477 115 460 143 460 c 0
EndSplineSet
PickledDataWithLists: "(dp0
Vcom.fontlab.hintData
p1
(dp2
Vvhints
p3
(lp4
(dp5
Vwidth
p6
L10L
sVposition
p7
L58L
sa(dp8
g6
L10L
sg7
L104L
sa(dp9
g6
L10L
sg7
L182L
sa(dp10
g6
L10L
sg7
L556L
sa(dp11
g6
L10L
sg7
L656L
sasVhhints
p12
(lp13
(dp14
g6
L10L
sg7
L-12L
sa(dp15
g6
L10L
sg7
L540L
sa(dp16
g6
L10L
sg7
L604L
sass."
EndChar

StartChar: uni0E1F
Encoding: 431 3615 159
GlifName: uni0E_1F_
Width: 735
VWidth: 0
GlyphClass: 2
Flags: MW
LayerCount: 2
Fore
SplineSet
711 810 m 1
 583 0 l 1
 509 0 l 1
 389 410 l 1
 139 0 l 1
 67 0 l 1
 124 360 l 2
 128 383 137 401 147 416 c 1
 143 416 140 416 136 416 c 0
 82 416 47 447 47 495 c 0
 47 500 47 506 48 512 c 0
 57 569 106 608 166 608 c 0
 220 608 255 577 255 529 c 0
 255 524 255 518 254 512 c 0
 246 463 218 433 210 385 c 2
 179 192 l 2
 176 175 172 155 167 138 c 1
 381 495 l 1
 402 495 l 1
 423 495 l 1
 526 135 l 1
 527 152 528 174 531 192 c 2
 629 810 l 1
 711 810 l 1
143 460 m 0
 174 460 198 482 203 512 c 0
 204 515 204 519 204 522 c 0
 204 547 187 564 159 564 c 0
 128 564 104 542 99 512 c 0
 98 509 98 505 98 502 c 0
 98 477 115 460 143 460 c 0
EndSplineSet
PickledDataWithLists: "(dp0
Vcom.fontlab.hintData
p1
(dp2
Vvhints
p3
(lp4
(dp5
Vwidth
p6
L10L
sVposition
p7
L58L
sa(dp8
g6
L10L
sg7
L104L
sa(dp9
g6
L10L
sg7
L182L
sa(dp10
g6
L10L
sg7
L565L
sa(dp11
g6
L9L
sg7
L641L
sa(dp12
g6
L11L
sg7
L686L
sasVhhints
p13
(lp14
(dp15
g6
L10L
sg7
L-12L
sa(dp16
g6
L10L
sg7
L540L
sa(dp17
g6
L10L
sg7
L604L
sa(dp18
g6
L10L
sg7
L834L
sass."
EndChar

StartChar: uni0E20
Encoding: 432 3616 160
GlifName: uni0E_20
Width: 665
VWidth: 0
GlyphClass: 2
Flags: MW
LayerCount: 2
Fore
SplineSet
106 140 m 0
 75 140 51 118 46 88 c 0
 45 85 45 81 45 78 c 0
 45 53 62 36 90 36 c 0
 121 36 145 58 150 88 c 0
 151 91 151 95 151 98 c 0
 151 123 134 140 106 140 c 0
363 618 m 0
 504 618 589 545 589 438 c 0
 589 427 588 415 586 403 c 2
 522 0 l 1
 437 0 l 1
 501 403 l 2
 503 414 504 423 504 433 c 0
 504 513 445 554 353 554 c 0
 264 554 201 511 169 442 c 1
 339 411 l 1
 324 374 l 2
 321 374 303 377 293 377 c 0
 250 377 224 353 216 305 c 2
 201 210 l 2
 200 201 199 191 199 183 c 0
 199 160 203 140 203 116 c 0
 203 107 202 98 201 88 c 0
 192 31 143 -8 83 -8 c 0
 29 -8 -6 23 -6 71 c 0
 -6 76 -6 82 -5 88 c 0
 4 145 53 184 113 184 c 0
 117 184 120 184 124 184 c 1
 121 193 119 205 119 217 c 0
 119 224 120 232 121 240 c 2
 130 297 l 2
 138 349 170 381 215 395 c 1
 73 419 l 1
 103 523 205 618 363 618 c 0
EndSplineSet
PickledDataWithLists: "(dp0
Vcom.fontlab.hintData
p1
(dp2
Vvhints
p3
(lp4
(dp5
Vwidth
p6
L10L
sVposition
p7
L26L
sa(dp8
g6
L10L
sg7
L81L
sa(dp9
g6
L10L
sg7
L131L
sa(dp10
g6
L10L
sg7
L219L
sa(dp11
g6
L10L
sg7
L465L
sa(dp12
g6
L10L
sg7
L476L
sa(dp13
g6
L10L
sg7
L556L
sa(dp14
g6
L10L
sg7
L564L
sasVhhints
p15
(lp16
(dp17
g6
L10L
sg7
L-16L
sa(dp18
g6
L10L
sg7
L66L
sa(dp19
g6
L10L
sg7
L544L
sa(dp20
g6
L10L
sg7
L606L
sass."
EndChar

StartChar: uni0E21
Encoding: 433 3617 161
GlifName: uni0E_21
Width: 645
VWidth: 0
GlyphClass: 2
Flags: MW
LayerCount: 2
Fore
SplineSet
114 140 m 0
 83 140 59 118 54 88 c 0
 53 85 53 81 53 78 c 0
 53 53 70 36 98 36 c 0
 129 36 153 58 158 88 c 0
 159 91 159 95 159 98 c 0
 159 123 142 140 114 140 c 0
155 460 m 0
 186 460 210 482 215 512 c 0
 216 515 216 519 216 522 c 0
 216 547 199 564 171 564 c 0
 140 564 116 542 111 512 c 0
 110 509 110 505 110 502 c 0
 110 477 127 460 155 460 c 0
148 416 m 0
 94 416 59 447 59 495 c 0
 59 500 59 506 60 512 c 0
 69 569 118 608 178 608 c 0
 232 608 267 577 267 529 c 0
 267 524 267 518 266 512 c 0
 257 458 233 436 224 382 c 2
 198 218 l 2
 196 204 196 193 197 182 c 1
 303 172 376 124 423 75 c 1
 427 105 430 140 435 170 c 2
 503 600 l 1
 588 600 l 1
 493 0 l 1
 415 0 l 1
 377 57 309 114 209 130 c 1
 210 123 211 116 211 108 c 0
 211 102 210 95 209 88 c 0
 200 31 151 -8 91 -8 c 0
 37 -8 2 23 2 71 c 0
 2 76 2 82 3 88 c 0
 12 145 61 184 121 184 c 0
 122 184 122 184 123 184 c 1
 118 195 114 207 114 222 c 0
 114 228 115 234 116 240 c 2
 135 360 l 2
 139 383 148 401 158 416 c 1
 155 416 151 416 148 416 c 0
EndSplineSet
PickledDataWithLists: "(dp0
Vcom.fontlab.hintData
p1
(dp2
Vvhints
p3
(lp4
(dp5
Vwidth
p6
L10L
sVposition
p7
L25L
sa(dp8
g6
L10L
sg7
L56L
sa(dp9
g6
L10L
sg7
L100L
sa(dp10
g6
L10L
sg7
L200L
sa(dp11
g6
L10L
sg7
L280L
sa(dp12
g6
L10L
sg7
L476L
sa(dp13
g6
L10L
sg7
L484L
sa(dp14
g6
L10L
sg7
L556L
sa(dp15
g6
L10L
sg7
L566L
sasVhhints
p16
(lp17
(dp18
g6
L10L
sg7
L-27L
sa(dp19
g6
L10L
sg7
L243L
sa(dp20
g6
L10L
sg7
L297L
sa(dp21
g6
L10L
sg7
L528L
sa(dp22
g6
L10L
sg7
L548L
sa(dp23
g6
L10L
sg7
L588L
sa(dp24
g6
L10L
sg7
L602L
sass."
EndChar

StartChar: uni0E22
Encoding: 434 3618 162
GlifName: uni0E_22
Width: 645
VWidth: 0
GlyphClass: 2
Flags: MW
LayerCount: 2
Fore
SplineSet
242 460 m 0
 273 460 297 482 302 512 c 0
 303 515 303 519 303 522 c 0
 303 547 286 564 258 564 c 0
 227 564 203 542 198 512 c 0
 197 509 197 505 197 502 c 0
 197 477 214 460 242 460 c 0
508 600 m 1
 593 600 l 1
 527 184 l 2
 508 66 398 -18 252 -18 c 0
 119 -18 39 47 39 144 c 0
 39 154 39 164 41 174 c 0
 54 253 111 295 176 313 c 1
 124 334 85 377 85 441 c 0
 85 449 86 458 87 467 c 0
 100 551 169 608 265 608 c 0
 319 608 354 577 354 529 c 0
 354 524 354 518 353 512 c 0
 344 455 295 416 235 416 c 0
 188 416 156 440 148 477 c 1
 148 475 146 472 146 470 c 0
 145 462 144 455 144 448 c 0
 144 371 217 340 319 340 c 1
 311 290 l 1
 217 290 139 260 126 178 c 0
 125 169 124 160 124 152 c 0
 124 81 178 46 262 46 c 0
 356 46 427 92 442 184 c 2
 508 600 l 1
EndSplineSet
PickledDataWithLists: "(dp0
Vcom.fontlab.hintData
p1
(dp2
Vvhints
p3
(lp4
(dp5
Vwidth
p6
L10L
sVposition
p7
L44L
sa(dp8
g6
L10L
sg7
L114L
sa(dp9
g6
L10L
sg7
L126L
sa(dp10
g6
L10L
sg7
L196L
sa(dp11
g6
L10L
sg7
L335L
sa(dp12
g6
L10L
sg7
L352L
sa(dp13
g6
L10L
sg7
L474L
sa(dp14
g6
L10L
sg7
L562L
sasVhhints
p15
(lp16
(dp17
g6
L10L
sg7
L-26L
sa(dp18
g6
L10L
sg7
L36L
sa(dp19
g6
L10L
sg7
L517L
sa(dp20
g6
L10L
sg7
L546L
sa(dp21
g6
L10L
sg7
L596L
sa(dp22
g6
L10L
sg7
L604L
sass."
EndChar

StartChar: uni0E23
Encoding: 435 3619 163
GlifName: uni0E_23
Width: 530
VWidth: 0
GlyphClass: 2
Flags: MW
AnchorPoint: "ThaiBelow.mark" 440 0 basechar 0
AnchorPoint: "ThaiTone.mark" 450 0 basechar 0
AnchorPoint: "ThaiAbove.mark" 500 0 basechar 0
LayerCount: 2
Fore
SplineSet
418 554 m 1
 421 559 424 563 426 566 c 2
 461 612 l 1
 523 600 l 1
 522 596 l 1
 427 493 l 1
 400 493 l 1
 388 516 355 560 275 560 c 0
 208 560 146 526 125 447 c 1
 292 441 399 413 399 329 c 0
 399 323 398 317 397 311 c 2
 377 180 l 1
 366 111 l 2
 355 41 303 -8 225 -8 c 0
 171 -8 136 23 136 71 c 0
 136 76 136 82 137 88 c 0
 146 145 195 184 255 184 c 0
 270 184 284 182 295 177 c 1
 295 180 295 184 295 187 c 0
 295 196 296 206 297 215 c 2
 311 301 l 2
 312 306 312 310 312 314 c 0
 312 380 223 403 37 403 c 1
 41 428 l 2
 59 543 153 618 271 618 c 0
 351 618 395 584 418 554 c 1
248 140 m 0
 217 140 193 118 188 88 c 0
 187 85 187 81 187 78 c 0
 187 53 204 36 232 36 c 0
 263 36 287 58 292 88 c 0
 293 91 293 95 293 98 c 0
 293 123 276 140 248 140 c 0
EndSplineSet
PickledDataWithLists: "(dp0
Vcom.fontlab.hintData
p1
(dp2
Vvhints
p3
(lp4
(dp5
Vwidth
p6
L10L
sVposition
p7
L31L
sa(dp8
g6
L10L
sg7
L111L
sa(dp9
g6
L10L
sg7
L116L
sa(dp10
g6
L10L
sg7
L362L
sa(dp11
g6
L10L
sg7
L446L
sa(dp12
g6
L10L
sg7
L479L
sasVhhints
p13
(lp14
(dp15
g6
L10L
sg7
L-16L
sa(dp16
g6
L10L
sg7
L46L
sa(dp17
g6
L10L
sg7
L91L
sa(dp18
g6
L10L
sg7
L494L
sa(dp19
g6
L10L
sg7
L548L
sa(dp20
g6
L10L
sg7
L610L
sass."
EndChar

StartChar: uni0E24
Encoding: 436 3620 164
GlifName: uni0E_24
Width: 655
VWidth: 0
GlyphClass: 2
Flags: MW
LayerCount: 2
Fore
SplineSet
353 618 m 0
 494 618 579 545 579 438 c 0
 579 427 578 415 576 403 c 2
 479 -210 l 1
 394 -210 l 1
 491 403 l 2
 493 414 494 423 494 433 c 0
 494 513 435 554 343 554 c 0
 254 554 189 510 158 441 c 1
 304 411 l 1
 289 374 l 2
 286 374 268 377 258 377 c 0
 215 377 189 353 181 305 c 2
 171 240 l 2
 167 217 160 198 151 183 c 1
 156 184 161 184 167 184 c 0
 221 184 256 153 256 105 c 0
 256 100 256 94 255 88 c 0
 246 31 197 -8 137 -8 c 0
 83 -8 48 23 48 71 c 0
 48 76 48 82 49 88 c 0
 56 134 74 166 81 210 c 2
 95 297 l 2
 103 350 135 382 181 396 c 1
 63 419 l 1
 93 523 195 618 353 618 c 0
160 140 m 0
 129 140 105 118 100 88 c 0
 99 85 99 81 99 78 c 0
 99 53 116 36 144 36 c 0
 175 36 199 58 204 88 c 0
 205 91 205 95 205 98 c 0
 205 123 188 140 160 140 c 0
EndSplineSet
PickledDataWithLists: "(dp0
Vcom.fontlab.hintData
p1
(dp2
Vvhints
p3
(lp4
(dp5
Vwidth
p6
L10L
sVposition
p7
L81L
sa(dp8
g6
L10L
sg7
L86L
sa(dp9
g6
L10L
sg7
L111L
sa(dp10
g6
L10L
sg7
L169L
sa(dp11
g6
L10L
sg7
L199L
sa(dp12
g6
L10L
sg7
L315L
sa(dp13
g6
L10L
sg7
L465L
sa(dp14
g6
L10L
sg7
L476L
sa(dp15
g6
L10L
sg7
L556L
sa(dp16
g6
L10L
sg7
L564L
sasVhhints
p17
(lp18
(dp19
g6
L10L
sg7
L-246L
sa(dp20
g6
L10L
sg7
L-19L
sa(dp21
g6
L10L
sg7
L43L
sa(dp22
g6
L10L
sg7
L56L
sa(dp23
g6
L10L
sg7
L544L
sa(dp24
g6
L10L
sg7
L606L
sass."
EndChar

StartChar: uni0E240E45.liga
Encoding: 808 63617 165
GlifName: uni0E_240E_45.liga
Width: 950
VWidth: 0
GlyphClass: 3
Flags: MW
LayerCount: 2
Fore
SplineSet
160 140 m 0
 129 140 105 118 100 88 c 0
 99 85 99 81 99 78 c 0
 99 53 116 36 144 36 c 0
 175 36 199 58 204 88 c 0
 205 91 205 95 205 98 c 0
 205 123 188 140 160 140 c 0
167 184 m 0
 221 184 256 153 256 105 c 0
 256 100 256 94 255 88 c 0
 246 31 197 -8 137 -8 c 0
 83 -8 48 23 48 71 c 0
 48 76 48 82 49 88 c 0
 56 134 74 166 81 210 c 2
 95 297 l 2
 103 350 135 382 181 396 c 1
 63 419 l 1
 93 523 195 618 353 618 c 0
 447 618 515 585 551 532 c 1
 585 577 640 612 716 612 c 0
 819 612 874 551 874 470 c 0
 874 460 874 450 872 440 c 2
 769 -210 l 1
 684 -210 l 1
 787 440 l 2
 788 449 789 458 789 466 c 0
 789 523 753 548 704 548 c 0
 641 548 598 501 578 448 c 1
 578 443 579 437 579 432 c 0
 579 423 578 413 576 403 c 2
 479 -210 l 1
 394 -210 l 1
 491 403 l 2
 493 414 494 423 494 433 c 0
 494 513 435 554 343 554 c 0
 254 554 189 510 158 441 c 1
 304 411 l 1
 289 374 l 2
 286 374 268 377 258 377 c 0
 215 377 189 353 181 305 c 2
 171 240 l 2
 167 217 160 198 151 183 c 1
 156 184 161 184 167 184 c 0
EndSplineSet
PickledDataWithLists: "(dp0
Vcom.fontlab.hintData
p1
(dp2
Vvhints
p3
(lp4
(dp5
Vwidth
p6
L10L
sVposition
p7
L81L
sa(dp8
g6
L10L
sg7
L86L
sa(dp9
g6
L10L
sg7
L111L
sa(dp10
g6
L10L
sg7
L169L
sa(dp11
g6
L10L
sg7
L199L
sa(dp12
g6
L10L
sg7
L315L
sa(dp13
g6
L10L
sg7
L465L
sa(dp14
g6
L10L
sg7
L476L
sa(dp15
g6
L10L
sg7
L556L
sa(dp16
g6
L10L
sg7
L563L
sa(dp17
g6
L10L
sg7
L756L
sa(dp18
g6
L10L
sg7
L782L
sa(dp19
g6
L10L
sg7
L844L
sa(dp20
g6
L10L
sg7
L870L
sasVhhints
p21
(lp22
(dp23
g6
L10L
sg7
L-245L
sa(dp24
g6
L10L
sg7
L-19L
sa(dp25
g6
L10L
sg7
L43L
sa(dp26
g6
L10L
sg7
L56L
sa(dp27
g6
L10L
sg7
L544L
sa(dp28
g6
L10L
sg7
L606L
sass."
Ligature2: "Thai.liga subtable" uni0E24 uni200D uni0E45
Ligature2: "Thai.liga subtable" uni0E24 uni0E45
Colour: ff00ff
EndChar

StartChar: uni0E25
Encoding: 437 3621 166
GlifName: uni0E_25
Width: 635
VWidth: 0
GlyphClass: 2
Flags: MW
LayerCount: 2
Fore
SplineSet
34 106 m 2
 50 206 l 2
 61 277 108 354 224 354 c 0
 335 354 403 280 440 209 c 1
 472 412 l 2
 474 422 474 432 474 441 c 0
 474 516 420 554 333 554 c 0
 238 554 174 502 149 420 c 1
 64 426 l 1
 94 526 191 618 343 618 c 0
 478 618 560 549 560 445 c 0
 560 434 559 423 557 412 c 2
 492 0 l 1
 407 0 l 1
 425 113 l 1
 409 180 339 296 220 296 c 0
 169 296 139 262 132 218 c 0
 129 198 124 184 121 176 c 1
 134 181 148 183 163 183 c 0
 217 183 252 152 252 104 c 0
 252 99 252 93 251 87 c 0
 242 30 193 -9 133 -9 c 0
 117 -9 102 -6 90 -1 c 0
 53 13 32 44 32 85 c 0
 32 92 33 99 34 106 c 2
156 139 m 0
 125 139 101 117 96 87 c 0
 95 84 95 80 95 77 c 0
 95 52 112 35 140 35 c 0
 171 35 195 57 200 87 c 0
 201 90 201 94 201 97 c 0
 201 122 184 139 156 139 c 0
EndSplineSet
PickledDataWithLists: "(dp0
Vcom.fontlab.hintData
p1
(dp2
Vvhints
p3
(lp4
(dp5
Vwidth
p6
L10L
sVposition
p7
L41L
sa(dp8
g6
L10L
sg7
L91L
sa(dp9
g6
L10L
sg7
L179L
sa(dp10
g6
L10L
sg7
L504L
sa(dp11
g6
L10L
sg7
L589L
sasVhhints
p12
(lp13
(dp14
g6
L10L
sg7
L-16L
sa(dp15
g6
L10L
sg7
L-6L
sa(dp16
g6
L10L
sg7
L296L
sa(dp17
g6
L10L
sg7
L414L
sa(dp18
g6
L10L
sg7
L549L
sa(dp19
g6
L10L
sg7
L610L
sass."
EndChar

StartChar: uni0E26
Encoding: 438 3622 167
GlifName: uni0E_26
Width: 670
VWidth: 0
GlyphClass: 2
Flags: MW
LayerCount: 2
Fore
SplineSet
106 140 m 0
 75 140 51 118 46 88 c 0
 45 85 45 81 45 78 c 0
 45 53 62 36 90 36 c 0
 121 36 145 58 150 88 c 0
 151 91 151 95 151 98 c 0
 151 123 134 140 106 140 c 0
363 618 m 0
 504 618 589 545 589 438 c 0
 589 427 588 415 586 403 c 2
 489 -210 l 1
 404 -210 l 1
 501 403 l 2
 503 414 504 423 504 433 c 0
 504 513 445 554 353 554 c 0
 264 554 201 511 169 442 c 1
 339 411 l 1
 324 374 l 2
 321 374 303 377 293 377 c 0
 250 377 224 353 216 305 c 2
 201 210 l 2
 200 201 199 191 199 183 c 0
 199 160 203 140 203 116 c 0
 203 107 202 98 201 88 c 0
 192 31 143 -8 83 -8 c 0
 29 -8 -6 23 -6 71 c 0
 -6 76 -6 82 -5 88 c 0
 4 145 53 184 113 184 c 0
 117 184 120 184 124 184 c 1
 121 193 119 205 119 217 c 0
 119 224 120 232 121 240 c 2
 130 297 l 2
 138 349 170 381 215 395 c 1
 73 419 l 1
 103 523 205 618 363 618 c 0
EndSplineSet
PickledDataWithLists: "(dp0
Vcom.fontlab.hintData
p1
(dp2
Vvhints
p3
(lp4
(dp5
Vwidth
p6
L10L
sVposition
p7
L26L
sa(dp8
g6
L10L
sg7
L81L
sa(dp9
g6
L10L
sg7
L131L
sa(dp10
g6
L10L
sg7
L219L
sa(dp11
g6
L10L
sg7
L465L
sa(dp12
g6
L10L
sg7
L476L
sa(dp13
g6
L10L
sg7
L556L
sa(dp14
g6
L10L
sg7
L564L
sasVhhints
p15
(lp16
(dp17
g6
L10L
sg7
L-246L
sa(dp18
g6
L10L
sg7
L-16L
sa(dp19
g6
L10L
sg7
L66L
sa(dp20
g6
L10L
sg7
L544L
sa(dp21
g6
L10L
sg7
L606L
sass."
EndChar

StartChar: uni0E260E45.liga
Encoding: 809 63618 168
GlifName: uni0E_260E_45.liga
Width: 960
VWidth: 0
GlyphClass: 3
Flags: MW
LayerCount: 2
Fore
SplineSet
106 140 m 0
 75 140 51 118 46 88 c 0
 45 85 45 81 45 78 c 0
 45 53 62 36 90 36 c 0
 121 36 145 58 150 88 c 0
 151 91 151 95 151 98 c 0
 151 123 134 140 106 140 c 0
73 419 m 1
 103 523 205 618 363 618 c 0
 457 618 525 585 561 532 c 1
 595 577 650 612 726 612 c 0
 829 612 884 551 884 470 c 0
 884 460 884 450 882 440 c 2
 779 -210 l 1
 694 -210 l 1
 797 440 l 2
 798 449 799 458 799 466 c 0
 799 523 763 548 714 548 c 0
 651 548 608 501 588 448 c 1
 588 443 589 437 589 432 c 0
 589 423 588 413 586 403 c 2
 489 -210 l 1
 404 -210 l 1
 501 403 l 2
 503 414 504 423 504 433 c 0
 504 513 445 554 353 554 c 0
 264 554 201 511 169 442 c 1
 339 411 l 1
 324 374 l 2
 321 374 303 377 293 377 c 0
 250 377 224 353 216 305 c 2
 201 210 l 2
 200 201 199 191 199 183 c 0
 199 160 203 140 203 116 c 0
 203 107 202 98 201 88 c 0
 192 31 143 -8 83 -8 c 0
 29 -8 -6 23 -6 71 c 0
 -6 76 -6 82 -5 88 c 0
 4 145 53 184 113 184 c 0
 117 184 120 184 124 184 c 1
 121 193 119 205 119 217 c 0
 119 224 120 232 121 240 c 2
 130 297 l 2
 138 349 170 381 215 395 c 1
 73 419 l 1
EndSplineSet
PickledDataWithLists: "(dp0
Vcom.fontlab.hintData
p1
(dp2
Vvhints
p3
(lp4
(dp5
Vwidth
p6
L10L
sVposition
p7
L26L
sa(dp8
g6
L10L
sg7
L81L
sa(dp9
g6
L10L
sg7
L131L
sa(dp10
g6
L10L
sg7
L219L
sa(dp11
g6
L10L
sg7
L465L
sa(dp12
g6
L10L
sg7
L476L
sa(dp13
g6
L10L
sg7
L556L
sa(dp14
g6
L10L
sg7
L563L
sa(dp15
g6
L10L
sg7
L756L
sa(dp16
g6
L10L
sg7
L782L
sa(dp17
g6
L10L
sg7
L844L
sa(dp18
g6
L10L
sg7
L870L
sasVhhints
p19
(lp20
(dp21
g6
L10L
sg7
L-245L
sa(dp22
g6
L10L
sg7
L-16L
sa(dp23
g6
L10L
sg7
L66L
sa(dp24
g6
L10L
sg7
L544L
sa(dp25
g6
L10L
sg7
L606L
sass."
Ligature2: "Thai.liga subtable" uni0E26 uni200D uni0E45
Ligature2: "Thai.liga subtable" uni0E26 uni0E45
Colour: ff00ff
EndChar

StartChar: uni0E27
Encoding: 439 3623 169
GlifName: uni0E_27
Width: 535
VWidth: 0
GlyphClass: 2
Flags: MW
AnchorPoint: "ThaiAbove.mark" 485 0 basechar 0
LayerCount: 2
Fore
SplineSet
35 454 m 1
 60 536 142 618 273 618 c 0
 391 618 458 550 458 458 c 0
 458 448 457 437 455 426 c 2
 417 180 l 1
 406 111 l 2
 395 41 343 -8 265 -8 c 0
 211 -8 176 23 176 71 c 0
 176 76 176 82 177 88 c 0
 186 145 235 184 295 184 c 0
 310 184 324 182 335 177 c 1
 335 180 335 184 335 187 c 0
 335 196 336 206 337 215 c 2
 370 426 l 2
 372 436 372 445 372 454 c 0
 372 522 327 554 263 554 c 0
 190 554 138 513 118 448 c 1
 35 454 l 1
288 140 m 0
 257 140 233 118 228 88 c 0
 227 85 227 81 227 78 c 0
 227 53 244 36 272 36 c 0
 303 36 327 58 332 88 c 0
 333 91 333 95 333 98 c 0
 333 123 316 140 288 140 c 0
EndSplineSet
PickledDataWithLists: "(dp0
Vcom.fontlab.hintData
p1
(dp2
Vvhints
p3
(lp4
(dp5
Vwidth
p6
L10L
sVposition
p7
L21L
sa(dp8
g6
L10L
sg7
L168L
sa(dp9
g6
L10L
sg7
L255L
sa(dp10
g6
L10L
sg7
L411L
sa(dp11
g6
L10L
sg7
L499L
sasVhhints
p12
(lp13
(dp14
g6
L10L
sg7
L-15L
sa(dp15
g6
L10L
sg7
L46L
sa(dp16
g6
L10L
sg7
L136L
sa(dp17
g6
L10L
sg7
L394L
sa(dp18
g6
L9L
sg7
L552L
sa(dp19
g6
L10L
sg7
L614L
sass."
EndChar

StartChar: uni0E28
Encoding: 440 3624 170
GlifName: uni0E_28
Width: 680
VWidth: 0
GlyphClass: 2
Flags: MW
LayerCount: 2
Fore
SplineSet
329 373 m 0
 298 373 274 351 269 321 c 0
 268 318 268 314 268 311 c 0
 268 286 285 269 313 269 c 0
 344 269 368 291 373 321 c 0
 374 324 374 328 374 331 c 0
 374 356 357 373 329 373 c 0
330 417 m 1
 373 452 421 490 467 523 c 1
 441 543 404 554 358 554 c 0
 256 554 180 503 164 403 c 0
 149 307 146 255 145 214 c 1
 173 286 213 352 260 389 c 0
 280 405 303 416 330 417 c 1
494 491 m 1
 456 465 416 437 380 409 c 1
 409 397 426 371 426 337 c 0
 426 332 426 326 425 321 c 0
 416 264 366 225 306 225 c 0
 264 225 234 244 223 275 c 1
 194 234 166 178 147 105 c 1
 126 0 l 1
 33 0 l 1
 33 0 55 73 62 120 c 0
 68 162 69 190 69 220 c 0
 69 227 69 235 69 243 c 0
 69 281 70 326 82 403 c 0
 102 529 215 618 368 618 c 0
 435 618 488 601 526 571 c 1
 565 603 613 636 670 642 c 1
 673 568 l 1
 634 566 597 554 562 533 c 1
 580 506 590 474 590 437 c 0
 590 426 589 414 587 403 c 2
 523 0 l 1
 438 0 l 1
 455 105 l 2
 461 145 490 307 505 403 c 0
 507 413 508 423 508 432 c 0
 508 455 503 475 494 491 c 1
EndSplineSet
PickledDataWithLists: "(dp0
Vcom.fontlab.hintData
p1
(dp2
Vvhints
p3
(lp4
(dp5
Vwidth
p6
L10L
sVposition
p7
L59L
sa(dp8
g6
L10L
sg7
L142L
sa(dp9
g6
L10L
sg7
L439L
sa(dp10
g6
L10L
sg7
L508L
sa(dp11
g6
L10L
sg7
L590L
sa(dp12
g6
L10L
sg7
L637L
sasVhhints
p13
(lp14
(dp15
g6
L10L
sg7
L-18L
sa(dp16
g6
L10L
sg7
L-4L
sa(dp17
g6
L10L
sg7
L551L
sa(dp18
g6
L10L
sg7
L608L
sa(dp19
g6
L10L
sg7
L654L
sass."
EndChar

StartChar: uni0E29
Encoding: 441 3625 171
GlifName: uni0E_29
Width: 710
VWidth: 0
GlyphClass: 2
Flags: MW
LayerCount: 2
Fore
SplineSet
140 460 m 0
 171 460 195 482 200 512 c 0
 201 515 201 519 201 522 c 0
 201 547 184 564 156 564 c 0
 125 564 101 542 96 512 c 0
 95 509 95 505 95 502 c 0
 95 477 112 460 140 460 c 0
133 416 m 0
 79 416 44 447 44 495 c 0
 44 500 44 506 45 512 c 0
 54 569 103 608 163 608 c 0
 217 608 252 577 252 529 c 0
 252 524 252 518 251 512 c 0
 244 466 217 434 210 390 c 2
 177 184 l 2
 175 174 175 165 175 156 c 0
 175 83 228 46 312 46 c 0
 406 46 477 92 492 184 c 2
 504 257 l 1
 474 253 443 251 410 251 c 0
 340 251 294 277 294 329 c 0
 294 334 294 340 295 345 c 0
 302 389 341 420 387 420 c 0
 428 420 456 395 456 358 c 0
 456 354 456 349 455 345 c 0
 452 323 439 304 423 291 c 1
 428 292 434 292 438 292 c 0
 462 292 486 294 510 298 c 1
 558 600 l 1
 643 600 l 1
 599 321 l 1
 630 331 657 342 681 354 c 1
 689 308 l 1
 660 296 627 283 591 274 c 1
 577 184 l 2
 558 66 448 -18 302 -18 c 0
 170 -18 89 50 89 151 c 0
 89 162 90 173 92 184 c 2
 120 360 l 2
 123 382 132 401 142 416 c 1
 139 416 136 416 133 416 c 0
381 385 m 0
 357 385 340 368 336 345 c 0
 335 342 335 340 335 337 c 0
 335 318 347 305 368 305 c 0
 392 305 410 322 414 345 c 0
 414 348 415 350 415 353 c 0
 415 372 402 385 381 385 c 0
EndSplineSet
PickledDataWithLists: "(dp0
Vcom.fontlab.hintData
p1
(dp2
Vvhints
p3
(lp4
(dp5
Vwidth
p6
L10L
sVposition
p7
L84L
sa(dp8
g6
L10L
sg7
L109L
sa(dp9
g6
L10L
sg7
L191L
sa(dp10
g6
L10L
sg7
L312L
sa(dp11
g6
L10L
sg7
L375L
sa(dp12
g6
L10L
sg7
L524L
sa(dp13
g6
L10L
sg7
L529L
sa(dp14
g6
L10L
sg7
L606L
sa(dp15
g6
L10L
sg7
L708L
sasVhhints
p16
(lp17
(dp18
g6
L10L
sg7
L-24L
sa(dp19
g6
L10L
sg7
L34L
sa(dp20
g6
L10L
sg7
L391L
sa(dp21
g6
L10L
sg7
L439L
sa(dp22
g6
L10L
sg7
L561L
sa(dp23
g6
L10L
sg7
L599L
sa(dp24
g6
L10L
sg7
L609L
sa(dp25
g6
L10L
sg7
L629L
sass."
EndChar

StartChar: uni0E2A
Encoding: 442 3626 172
GlifName: uni0E_2A_
Width: 650
VWidth: 0
GlyphClass: 2
Flags: MW
LayerCount: 2
Fore
SplineSet
34 106 m 2
 50 206 l 2
 61 277 108 354 224 354 c 0
 225 354 l 0
 278 402 361 470 438 525 c 1
 413 545 378 554 333 554 c 0
 238 554 174 502 149 420 c 1
 64 426 l 1
 94 526 191 618 343 618 c 0
 408 618 461 601 499 573 c 1
 538 604 583 637 639 642 c 1
 642 568 l 1
 604 566 569 555 535 535 c 1
 551 510 560 480 560 447 c 0
 560 436 559 424 557 412 c 2
 492 0 l 1
 407 0 l 1
 425 113 l 1
 409 180 339 296 220 296 c 0
 169 296 139 262 132 218 c 0
 129 198 124 184 121 176 c 1
 134 181 148 183 163 183 c 0
 217 183 252 152 252 104 c 0
 252 99 252 93 251 87 c 0
 242 30 193 -9 133 -9 c 0
 117 -9 102 -6 90 -1 c 0
 53 13 32 44 32 85 c 0
 32 92 33 99 34 106 c 2
156 139 m 0
 125 139 101 117 96 87 c 0
 95 84 95 80 95 77 c 0
 95 52 112 35 140 35 c 0
 171 35 195 57 200 87 c 0
 201 90 201 94 201 97 c 0
 201 122 184 139 156 139 c 0
275 348 m 1
 356 330 410 269 440 209 c 1
 472 412 l 2
 474 423 475 433 475 443 c 0
 475 462 471 478 464 492 c 1
 396 446 325 391 275 348 c 1
EndSplineSet
PickledDataWithLists: "(dp0
Vcom.fontlab.hintData
p1
(dp2
Vvhints
p3
(lp4
(dp5
Vwidth
p6
L10L
sVposition
p7
L54L
sa(dp8
g6
L10L
sg7
L94L
sa(dp9
g6
L10L
sg7
L136L
sa(dp10
g6
L10L
sg7
L176L
sa(dp11
g6
L10L
sg7
L504L
sa(dp12
g6
L10L
sg7
L586L
sa(dp13
g6
L10L
sg7
L616L
sasVhhints
p14
(lp15
(dp16
g6
L10L
sg7
L-14L
sa(dp17
g6
L10L
sg7
L-4L
sa(dp18
g6
L10L
sg7
L294L
sa(dp19
g6
L10L
sg7
L370L
sa(dp20
g6
L10L
sg7
L429L
sa(dp21
g6
L10L
sg7
L548L
sa(dp22
g6
L10L
sg7
L606L
sa(dp23
g6
L10L
sg7
L654L
sass."
EndChar

StartChar: uni0E2B
Encoding: 443 3627 173
GlifName: uni0E_2B_
Width: 660
VWidth: 0
GlyphClass: 2
Flags: MW
LayerCount: 2
Fore
SplineSet
505 460 m 0
 536 460 560 482 565 512 c 0
 566 515 566 519 566 522 c 0
 566 547 549 564 521 564 c 0
 490 564 466 542 461 512 c 0
 460 509 460 505 460 502 c 0
 460 477 477 460 505 460 c 0
145 460 m 0
 176 460 200 482 205 512 c 0
 206 515 206 519 206 522 c 0
 206 547 189 564 161 564 c 0
 130 564 106 542 101 512 c 0
 100 509 100 505 100 502 c 0
 100 477 117 460 145 460 c 0
138 416 m 0
 84 416 49 447 49 495 c 0
 49 500 49 506 50 512 c 0
 59 569 108 608 168 608 c 0
 222 608 257 577 257 529 c 0
 257 524 257 518 256 512 c 0
 249 466 222 434 215 390 c 2
 189 230 l 1
 251 316 340 399 437 435 c 1
 419 449 409 471 409 497 c 0
 409 502 409 507 410 512 c 0
 419 569 468 608 528 608 c 0
 582 608 617 577 617 529 c 0
 617 524 617 518 616 512 c 0
 609 467 577 433 535 421 c 1
 555 407 571 392 571 368 c 0
 571 365 570 363 570 360 c 2
 513 0 l 1
 428 0 l 1
 487 375 l 2
 488 382 488 389 486 395 c 1
 361 367 219 225 168 94 c 1
 153 0 l 1
 68 0 l 1
 125 360 l 2
 128 382 137 401 147 416 c 1
 144 416 141 416 138 416 c 0
EndSplineSet
PickledDataWithLists: "(dp0
Vcom.fontlab.hintData
p1
(dp2
Vvhints
p3
(lp4
(dp5
Vwidth
p6
L10L
sVposition
p7
L84L
sa(dp8
g6
L10L
sg7
L166L
sa(dp9
g6
L11L
sg7
L191L
sa(dp10
g6
L10L
sg7
L320L
sa(dp11
g6
L10L
sg7
L395L
sa(dp12
g6
L10L
sg7
L493L
sa(dp13
g6
L10L
sg7
L525L
sa(dp14
g6
L10L
sg7
L600L
sa(dp15
g6
L10L
sg7
L638L
sasVhhints
p16
(lp17
(dp18
g6
L10L
sg7
L-24L
sa(dp19
g6
L10L
sg7
L-12L
sa(dp20
g6
L10L
sg7
L553L
sa(dp21
g6
L10L
sg7
L589L
sa(dp22
g6
L10L
sg7
L602L
sass."
EndChar

StartChar: uni0E2C
Encoding: 444 3628 174
GlifName: uni0E_2C_
Width: 760
VWidth: 0
GlyphClass: 2
Flags: MW
AnchorPoint: "ThaiBelow.mark" 660 0 basechar 0
AnchorPoint: "ThaiTone.mark" 660 0 basechar 0
AnchorPoint: "ThaiAbove.mark" 660 0 basechar 0
LayerCount: 2
Fore
SplineSet
530 192 m 2
 567 420 l 2
 569 430 572 440 576 448 c 1
 569 447 562 446 555 446 c 0
 501 446 466 477 466 525 c 0
 466 530 466 536 467 542 c 0
 476 599 525 638 585 638 c 0
 639 638 674 607 674 559 c 0
 674 554 674 548 673 542 c 0
 673 540 672 537 672 535 c 1
 691 556 703 584 714 628 c 1
 766 622 l 1
 745 549 707 510 661 484 c 1
 658 470 654 456 651 435 c 2
 582 0 l 1
 509 0 l 1
 508 0 l 1
 508 2 l 1
 384 380 l 1
 139 0 l 1
 67 0 l 1
 124 360 l 2
 128 383 137 401 147 416 c 1
 143 416 140 416 136 416 c 0
 82 416 47 447 47 495 c 0
 47 500 47 506 48 512 c 0
 57 569 106 608 166 608 c 0
 220 608 255 577 255 529 c 0
 255 524 255 518 254 512 c 0
 246 463 218 433 210 385 c 2
 179 192 l 2
 176 171 169 147 163 129 c 1
 377 465 l 1
 398 465 l 1
 419 465 l 1
 524 129 l 1
 525 147 527 172 530 192 c 2
562 490 m 0
 593 490 617 512 622 542 c 0
 623 545 623 549 623 552 c 0
 623 577 606 594 578 594 c 0
 547 594 523 572 518 542 c 0
 517 539 517 535 517 532 c 0
 517 507 534 490 562 490 c 0
143 460 m 0
 174 460 198 482 203 512 c 0
 204 515 204 519 204 522 c 0
 204 547 187 564 159 564 c 0
 128 564 104 542 99 512 c 0
 98 509 98 505 98 502 c 0
 98 477 115 460 143 460 c 0
EndSplineSet
PickledDataWithLists: "(dp0
Vcom.fontlab.hintData
p1
(dp2
Vvhints
p3
(lp4
(dp5
Vwidth
p6
L10L
sVposition
p7
L58L
sa(dp8
g6
L10L
sg7
L104L
sa(dp9
g6
L10L
sg7
L185L
sa(dp10
g6
L10L
sg7
L367L
sa(dp11
g6
L10L
sg7
L430L
sa(dp12
g6
L10L
sg7
L587L
sa(dp13
g6
L10L
sg7
L661L
sa(dp14
g6
L10L
sg7
L760L
sasVhhints
p15
(lp16
(dp17
g6
L10L
sg7
L-18L
sa(dp18
g6
L10L
sg7
L-13L
sa(dp19
g6
L10L
sg7
L329L
sa(dp20
g6
L10L
sg7
L391L
sa(dp21
g6
L10L
sg7
L439L
sa(dp22
g6
L10L
sg7
L561L
sa(dp23
g6
L10L
sg7
L604L
sa(dp24
g6
L10L
sg7
L609L
sa(dp25
g6
L10L
sg7
L629L
sass."
EndChar

StartChar: uni0E2D
Encoding: 445 3629 175
GlifName: uni0E_2D_
Width: 635
VWidth: 0
GlyphClass: 2
Flags: MW
LayerCount: 2
Fore
SplineSet
64 426 m 1
 94 526 191 618 343 618 c 0
 478 618 560 549 560 445 c 0
 560 434 559 423 557 412 c 2
 521 180 l 2
 503 65 398 -18 256 -18 c 0
 128 -18 53 49 53 147 c 0
 53 158 54 169 56 180 c 2
 69 264 l 2
 78 321 127 360 187 360 c 0
 241 360 276 329 276 281 c 0
 276 276 276 270 275 264 c 0
 266 207 217 168 157 168 c 0
 149 168 141 169 134 170 c 1
 133 165 133 160 133 155 c 0
 133 82 188 46 266 46 c 0
 352 46 422 90 436 180 c 2
 472 412 l 2
 474 422 474 432 474 441 c 0
 474 516 420 554 333 554 c 0
 238 554 174 502 149 420 c 1
 64 426 l 1
180 316 m 0
 149 316 125 294 120 264 c 0
 119 261 119 257 119 254 c 0
 119 229 136 212 164 212 c 0
 195 212 219 234 224 264 c 0
 225 267 225 271 225 274 c 0
 225 299 208 316 180 316 c 0
EndSplineSet
PickledDataWithLists: "(dp0
Vcom.fontlab.hintData
p1
(dp2
Vvhints
p3
(lp4
(dp5
Vwidth
p6
L10L
sVposition
p7
L50L
sa(dp8
g6
L10L
sg7
L61L
sa(dp9
g6
L10L
sg7
L149L
sa(dp10
g6
L10L
sg7
L289L
sa(dp11
g6
L10L
sg7
L481L
sa(dp12
g6
L10L
sg7
L569L
sasVhhints
p13
(lp14
(dp15
g6
L10L
sg7
L-19L
sa(dp16
g6
L10L
sg7
L43L
sa(dp17
g6
L10L
sg7
L215L
sa(dp18
g6
L10L
sg7
L230L
sa(dp19
g6
L10L
sg7
L292L
sa(dp20
g6
L10L
sg7
L414L
sa(dp21
g6
L9L
sg7
L549L
sa(dp22
g6
L10L
sg7
L611L
sass."
EndChar

StartChar: uni0E2E
Encoding: 446 3630 176
GlifName: uni0E_2E_
Width: 640
VWidth: 0
GlyphClass: 2
Flags: MW
LayerCount: 2
Fore
SplineSet
176 316 m 0
 145 316 121 294 116 264 c 0
 115 261 115 257 115 254 c 0
 115 229 132 212 160 212 c 0
 191 212 215 234 220 264 c 0
 221 267 221 271 221 274 c 0
 221 299 204 316 176 316 c 0
183 360 m 0
 237 360 272 329 272 281 c 0
 272 276 272 270 271 264 c 0
 262 207 213 168 153 168 c 0
 145 168 137 169 130 170 c 1
 129 165 129 160 129 155 c 0
 129 82 184 46 262 46 c 0
 348 46 418 90 432 180 c 2
 451 300 l 2
 461 364 470 385 476 420 c 0
 477 426 477 431 477 437 c 1
 436 414 379 395 292 395 c 0
 162 395 80 434 80 485 c 0
 80 487 81 490 81 492 c 1
 81 493 l 0
 91 548 174 618 325 618 c 0
 434 618 494 574 520 535 c 1
 542 564 557 602 564 637 c 1
 638 630 l 1
 628 580 594 525 549 492 c 1
 554 479 557 462 557 444 c 0
 557 436 556 428 555 420 c 2
 517 180 l 2
 499 65 394 -18 252 -18 c 0
 124 -18 49 49 49 147 c 0
 49 158 50 169 52 180 c 2
 65 264 l 2
 74 321 123 360 183 360 c 0
161 490 m 0
 161 469 194 447 300 447 c 0
 382 447 435 464 470 487 c 1
 452 536 399 563 318 563 c 0
 224 563 161 529 161 490 c 0
EndSplineSet
PickledDataWithLists: "(dp0
Vcom.fontlab.hintData
p1
(dp2
Vvhints
p3
(lp4
(dp5
Vwidth
p6
L10L
sVposition
p7
L54L
sa(dp8
g6
L10L
sg7
L64L
sa(dp9
g6
L10L
sg7
L136L
sa(dp10
g6
L10L
sg7
L146L
sa(dp11
g6
L10L
sg7
L286L
sa(dp12
g6
L10L
sg7
L484L
sa(dp13
g6
L10L
sg7
L566L
sa(dp14
g6
L10L
sg7
L616L
sasVhhints
p15
(lp16
(dp17
g6
L10L
sg7
L-18L
sa(dp18
g6
L10L
sg7
L40L
sa(dp19
g6
L10L
sg7
L216L
sa(dp20
g6
L10L
sg7
L233L
sa(dp21
g6
L10L
sg7
L289L
sa(dp22
g6
L10L
sg7
L363L
sa(dp23
g6
L10L
sg7
L420L
sa(dp24
g6
L10L
sg7
L552L
sa(dp25
g6
L10L
sg7
L610L
sa(dp26
g6
L10L
sg7
L654L
sass."
EndChar

StartChar: uni0E2F
Encoding: 447 3631 177
GlifName: uni0E_2F_
Width: 495
VWidth: 0
GlyphClass: 2
Flags: MW
LayerCount: 2
Fore
SplineSet
179 564 m 0
 148 564 124 542 119 512 c 0
 118 509 118 505 118 502 c 0
 118 477 135 460 163 460 c 0
 194 460 218 482 223 512 c 0
 224 515 224 519 224 522 c 0
 224 547 207 564 179 564 c 0
186 608 m 0
 240 608 275 577 275 529 c 0
 275 524 275 518 274 512 c 0
 270 488 261 468 245 452 c 1
 318 473 362 532 383 596 c 1
 424 600 l 1
 432 588 435 572 435 552 c 0
 435 532 432 508 428 480 c 2
 375 145 l 2
 357 29 223 -4 99 -18 c 1
 96 44 l 1
 214 58 279 76 290 145 c 2
 332 410 l 2
 336 437 347 453 355 471 c 1
 314 432 255 405 181 405 c 0
 103 405 66 442 66 493 c 0
 66 499 67 505 68 512 c 0
 77 569 126 608 186 608 c 0
EndSplineSet
PickledDataWithLists: "(dp0
Vcom.fontlab.hintData
p1
(dp2
Vvhints
p3
(lp4
(dp5
Vwidth
p6
L10L
sVposition
p7
L31L
sa(dp8
g6
L10L
sg7
L119L
sa(dp9
g6
L10L
sg7
L153L
sa(dp10
g6
L10L
sg7
L356L
sa(dp11
g6
L10L
sg7
L356L
sa(dp12
g6
L10L
sg7
L434L
sa(dp13
g6
L10L
sg7
L439L
sasVhhints
p14
(lp15
(dp16
g6
L10L
sg7
L-16L
sa(dp17
g6
L10L
sg7
L394L
sa(dp18
g6
L10L
sg7
L456L
sa(dp19
g6
L10L
sg7
L589L
sa(dp20
g6
L10L
sg7
L596L
sass."
EndChar

StartChar: uni0E30
Encoding: 448 3632 178
GlifName: uni0E_30
Width: 540
VWidth: 0
GlyphClass: 2
Flags: MW
LayerCount: 2
Fore
SplineSet
191 512 m 0
 160 512 136 490 131 460 c 0
 130 457 130 453 130 450 c 0
 130 425 147 408 175 408 c 0
 206 408 230 430 235 460 c 0
 236 463 236 467 236 470 c 0
 236 495 219 512 191 512 c 0
198 556 m 0
 252 556 287 525 287 477 c 0
 287 472 287 466 286 460 c 0
 282 433 268 411 249 394 c 1
 289 394 l 2
 361 394 407 450 425 536 c 1
 495 527 l 1
 475 427 405 347 285 347 c 2
 209 347 l 2
 121 347 79 388 79 442 c 0
 79 448 79 454 80 460 c 0
 89 517 138 556 198 556 c 0
144 212 m 0
 113 212 88 190 83 160 c 0
 82 157 82 153 82 150 c 0
 82 125 99 108 127 108 c 0
 158 108 182 130 187 160 c 0
 188 163 188 167 188 170 c 0
 188 195 171 212 144 212 c 0
151 256 m 0
 205 256 239 225 239 177 c 0
 239 172 239 166 238 160 c 0
 234 133 221 111 202 94 c 1
 242 94 l 2
 314 94 359 150 377 236 c 1
 448 227 l 1
 428 127 357 47 237 47 c 2
 161 47 l 2
 73 47 31 88 31 142 c 0
 31 148 31 154 32 160 c 0
 41 217 91 256 151 256 c 0
EndSplineSet
PickledDataWithLists: "(dp0
Vcom.fontlab.hintData
p1
(dp2
Vvhints
p3
(lp4
(dp5
Vwidth
p6
L10L
sVposition
p7
L51L
sa(dp8
g6
L10L
sg7
L60L
sa(dp9
g6
L10L
sg7
L139L
sa(dp10
g6
L10L
sg7
L144L
sa(dp11
g6
L10L
sg7
L154L
sa(dp12
g6
L10L
sg7
L450L
sasVhhints
p13
(lp14
(dp15
g6
L10L
sg7
L60L
sa(dp16
g6
L10L
sg7
L122L
sa(dp17
g6
L10L
sg7
L228L
sa(dp18
g6
L10L
sg7
L360L
sa(dp19
g6
L10L
sg7
L421L
sa(dp20
g6
L10L
sg7
L536L
sass."
EndChar

StartChar: uni0E31
Encoding: 449 3633 179
GlifName: uni0E_31
Width: 0
VWidth: 0
GlyphClass: 4
Flags: MW
AnchorPoint: "ThaiExtendedAbove.mkmk" -60 0 basemark 0
AnchorPoint: "ThaiAbove.mark" -60 0 mark 0
LayerCount: 2
Fore
SplineSet
-195 851 m 0
 -219 851 -239 834 -243 810 c 0
 -243 807 -244 804 -244 802 c 0
 -244 782 -229 769 -208 769 c 0
 -184 769 -165 786 -161 810 c 0
 -161 813 -160 815 -160 818 c 0
 -160 838 -174 851 -195 851 c 0
-189 889 m 0
 -144 889 -116 864 -116 825 c 0
 -116 820 -116 815 -117 810 c 0
 -121 784 -134 763 -154 749 c 1
 -148 749 -142 749 -136 749 c 2
 -111 749 l 2
 -47 749 9 782 24 876 c 1
 88 869 l 1
 72 767 -8 706 -108 706 c 2
 -163 706 l 2
 -241 706 -288 737 -288 793 c 0
 -288 798 -288 804 -287 810 c 0
 -279 858 -239 889 -189 889 c 0
EndSplineSet
PickledDataWithLists: "(dp0
Vcom.fontlab.hintData
p1
(dp2
Vvhints
p3
(lp4
(dp5
Vwidth
p6
L10L
sVposition
p7
L-391L
sa(dp8
g6
L10L
sg7
L-313L
sa(dp9
g6
L10L
sg7
L-306L
sa(dp10
g6
L10L
sg7
L55L
sasVhhints
p11
(lp12
(dp13
g6
L10L
sg7
L717L
sa(dp14
g6
L10L
sg7
L772L
sa(dp15
g6
L10L
sg7
L882L
sa(dp16
g6
L10L
sg7
L952L
sass."
Substitution2: "Thai.sl subtable" uni0E31.sl
EndChar

StartChar: uni0E32
Encoding: 450 3634 180
GlifName: uni0E_32
Width: 485
VWidth: 0
GlyphClass: 2
Flags: MW
LayerCount: 2
Fore
SplineSet
37 472 m 1
 58 544 131 618 248 618 c 0
 354 618 410 558 410 476 c 0
 410 466 410 456 408 446 c 2
 337 0 l 1
 252 0 l 1
 323 446 l 2
 324 455 325 464 325 472 c 0
 325 530 288 554 238 554 c 0
 180 554 137 520 120 464 c 1
 37 472 l 1
EndSplineSet
PickledDataWithLists: "(dp0
Vcom.fontlab.hintData
p1
(dp2
Vvhints
p3
(lp4
(dp5
Vwidth
p6
L10L
sVposition
p7
L15L
sa(dp8
g6
L10L
sg7
L291L
sa(dp9
g6
L10L
sg7
L312L
sa(dp10
g6
L10L
sg7
L379L
sa(dp11
g6
L10L
sg7
L400L
sasVhhints
p12
(lp13
(dp14
g6
L10L
sg7
L-25L
sa(dp15
g6
L10L
sg7
L399L
sa(dp16
g6
L10L
sg7
L545L
sa(dp17
g6
L10L
sg7
L606L
sass."
EndChar

StartChar: uni0E34
Encoding: 452 3636 182
GlifName: uni0E_34
Width: 0
VWidth: 0
GlyphClass: 4
Flags: MW
AnchorPoint: "ThaiExtendedAbove.mkmk" -60 0 basemark 0
AnchorPoint: "ThaiAbove.mark" -60 0 mark 0
LayerCount: 2
Fore
SplineSet
-384 767 m 1
 -121 723 l 1
 -140 769 -183 838 -280 838 c 0
 -326 838 -367 814 -384 767 c 1
-62 695 m 1
 -72 680 l 1
 -460 740 l 1
 -448 814 -385 885 -275 885 c 0
 -109 885 -72 731 -62 695 c 1
EndSplineSet
PickledDataWithLists: "(dp0
Vcom.fontlab.hintData
p1
(dp2
Vvhints
p3
(lp4
(dp5
Vwidth
p6
L10L
sVposition
p7
L-534L
sa(dp8
g6
L10L
sg7
L-456L
sasVhhints
p9
(lp10
(dp11
g6
L10L
sg7
L682L
sa(dp12
g6
L9L
sg7
L871L
sa(dp13
g6
L10L
sg7
L919L
sass."
Substitution2: "Thai.sl subtable" uni0E34.sl
EndChar

StartChar: uni0E35
Encoding: 453 3637 183
GlifName: uni0E_35
Width: 0
VWidth: 0
GlyphClass: 4
Flags: MW
AnchorPoint: "ThaiExtendedAbove.mkmk" -60 0 basemark 0
AnchorPoint: "ThaiAbove.mark" -60 0 mark 0
LayerCount: 2
Fore
SplineSet
-98 810 m 2
 -85 890 l 1
 -23 878 l 1
 -53 687 l 1
 -65 675 l 1
 -461 735 l 1
 -449 809 -386 880 -281 880 c 0
 -175 880 -122 807 -96 750 c 1
 -98 763 -99 777 -99 790 c 0
 -99 797 -99 804 -98 810 c 2
-384 763 m 1
 -108 717 l 1
 -129 763 -178 833 -281 833 c 0
 -327 833 -367 810 -384 763 c 1
EndSplineSet
PickledDataWithLists: "(dp0
Vcom.fontlab.hintData
p1
(dp2
Vvhints
p3
(lp4
(dp5
Vwidth
p6
L10L
sVposition
p7
L-530L
sa(dp8
g6
L10L
sg7
L-460L
sa(dp9
g6
L10L
sg7
L-189L
sa(dp10
g6
L10L
sg7
L-175L
sa(dp11
g6
L10L
sg7
L-116L
sasVhhints
p12
(lp13
(dp14
g6
L10L
sg7
L691L
sa(dp15
g6
L10L
sg7
L861L
sa(dp16
g6
L10L
sg7
L909L
sa(dp17
g6
L10L
sg7
L929L
sass."
Substitution2: "Thai.sl subtable" uni0E35.sl
EndChar

StartChar: uni0E36
Encoding: 454 3638 184
GlifName: uni0E_36
Width: 0
VWidth: 0
GlyphClass: 4
Flags: MW
AnchorPoint: "ThaiExtendedAbove.mkmk" -60 0 basemark 0
AnchorPoint: "ThaiAbove.mark" -60 0 mark 0
LayerCount: 2
Fore
SplineSet
-112 837 m 0
 -143 837 -168 815 -173 785 c 0
 -174 782 -174 778 -174 775 c 0
 -174 750 -157 733 -129 733 c 0
 -98 733 -74 755 -69 785 c 0
 -68 788 -68 792 -68 795 c 0
 -68 820 -85 837 -112 837 c 0
-105 881 m 0
 -51 881 -17 850 -17 802 c 0
 -17 797 -17 791 -18 785 c 0
 -27 728 -76 689 -136 689 c 0
 -155 689 -171 693 -185 700 c 1
 -461 735 l 1
 -449 809 -386 880 -281 880 c 0
 -241 880 -213 866 -192 847 c 1
 -171 868 -139 881 -105 881 c 0
-215 813 m 1
 -231 825 -252 833 -281 833 c 0
 -327 833 -367 810 -384 763 c 1
 -220 739 l 1
 -223 748 -225 758 -225 769 c 0
 -225 774 -225 780 -224 785 c 0
 -222 795 -219 804 -215 813 c 1
EndSplineSet
PickledDataWithLists: "(dp0
Vcom.fontlab.hintData
p1
(dp2
Vvhints
p3
(lp4
(dp5
Vwidth
p6
L10L
sVposition
p7
L-544L
sa(dp8
g6
L10L
sg7
L-466L
sa(dp9
g6
L10L
sg7
L-208L
sa(dp10
g6
L10L
sg7
L-134L
sa(dp11
g6
L10L
sg7
L-84L
sasVhhints
p12
(lp13
(dp14
g6
L10L
sg7
L689L
sa(dp15
g6
L10L
sg7
L723L
sa(dp16
g6
L21L
sg7
L824L
sa(dp17
g6
L10L
sg7
L861L
sa(dp18
g6
L10L
sg7
L892L
sa(dp19
g6
L10L
sg7
L909L
sass."
Substitution2: "Thai.sl subtable" uni0E36.sl
EndChar

StartChar: uni0E37
Encoding: 455 3639 185
GlifName: uni0E_37
Width: 0
VWidth: 0
GlyphClass: 4
Flags: MW
AnchorPoint: "ThaiExtendedAbove.mkmk" -60 0 basemark 0
AnchorPoint: "ThaiAbove.mark" -60 0 mark 0
LayerCount: 2
Fore
SplineSet
-191 860 m 2
 -182 915 l 1
 -130 903 l 1
 -158 725 l 1
 -94 714 l 1
 -96 722 -97 731 -97 742 c 0
 -97 748 -97 753 -96 760 c 2
 -75 890 l 1
 -23 878 l 1
 -53 687 l 1
 -65 675 l 1
 -461 735 l 1
 -449 809 -391 880 -291 880 c 0
 -240 880 -210 859 -191 833 c 1
 -193 842 -192 852 -191 860 c 2
-179 728 m 1
 -189 777 -216 833 -291 833 c 0
 -333 833 -369 810 -385 763 c 1
 -179 728 l 1
EndSplineSet
PickledDataWithLists: "(dp0
Vcom.fontlab.hintData
p1
(dp2
Vvhints
p3
(lp4
(dp5
Vwidth
p6
L10L
sVposition
p7
L-554L
sa(dp8
g6
L10L
sg7
L-476L
sa(dp9
g6
L10L
sg7
L-280L
sa(dp10
g6
L10L
sg7
L-218L
sa(dp11
g6
L10L
sg7
L-159L
sa(dp12
g6
L10L
sg7
L-148L
sa(dp13
g6
L10L
sg7
L-100L
sasVhhints
p14
(lp15
(dp16
g6
L10L
sg7
L698L
sa(dp17
g6
L10L
sg7
L861L
sa(dp18
g6
L10L
sg7
L909L
sa(dp19
g6
L10L
sg7
L922L
sa(dp20
g6
L10L
sg7
L932L
sass."
Substitution2: "Thai.sl subtable" uni0E37.sl
EndChar

StartChar: uni0E38
Encoding: 456 3640 186
GlifName: uni0E_38
Width: 0
VWidth: 0
GlyphClass: 4
Flags: MW
AnchorPoint: "ThaiExtendedBelow.mkmk" -60 0 mark 0
AnchorPoint: "ThaiExtendedBelow.mkmk" -104 -280 basemark 0
AnchorPoint: "ThaiBelow.mark" -60 0 mark 0
LayerCount: 2
Fore
SplineSet
-257 -109 m 0
 -281 -109 -301 -126 -305 -150 c 0
 -305 -153 -306 -156 -306 -158 c 0
 -306 -178 -291 -191 -270 -191 c 0
 -246 -191 -227 -174 -223 -150 c 0
 -223 -147 -222 -145 -222 -142 c 0
 -222 -122 -236 -109 -257 -109 c 0
-271 -305 m 1
 -263 -250 l 2
 -262 -241 -258 -234 -254 -227 c 1
 -261 -228 -268 -229 -276 -229 c 0
 -321 -229 -350 -205 -350 -165 c 0
 -350 -160 -350 -155 -349 -150 c 0
 -341 -102 -301 -71 -251 -71 c 0
 -206 -71 -178 -96 -178 -135 c 0
 -178 -140 -178 -145 -179 -150 c 0
 -185 -191 -195 -204 -200 -236 c 2
 -211 -305 l 1
 -271 -305 l 1
EndSplineSet
PickledDataWithLists: "(dp0
Vcom.fontlab.hintData
p1
(dp2
Vvhints
p3
(lp4
(dp5
Vwidth
p6
L10L
sVposition
p7
L-285L
sa(dp8
g6
L10L
sg7
L-185L
sa(dp9
g6
L10L
sg7
L-104L
sasVhhints
p10
(lp11
(dp12
g6
L10L
sg7
L-322L
sa(dp13
g6
L10L
sg7
L-172L
sa(dp14
g6
L10L
sg7
L-98L
sass."
Substitution2: "ThaiBV.sd subtable" uni0E38.sd
EndChar

StartChar: uni0E39
Encoding: 457 3641 187
GlifName: uni0E_39
Width: 0
VWidth: 0
GlyphClass: 4
Flags: MW
AnchorPoint: "ThaiExtendedBelow.mkmk" -60 0 mark 0
AnchorPoint: "ThaiExtendedBelow.mkmk" -104 -280 basemark 0
AnchorPoint: "ThaiBelow.mark" -90 0 mark 0
LayerCount: 2
Fore
SplineSet
-417 -109 m 0
 -441 -109 -461 -126 -465 -150 c 0
 -465 -153 -466 -156 -466 -158 c 0
 -466 -178 -451 -191 -430 -191 c 0
 -406 -191 -387 -174 -383 -150 c 0
 -383 -147 -382 -145 -382 -142 c 0
 -382 -122 -396 -109 -417 -109 c 0
-339 -150 m 0
 -345 -188 -357 -199 -360 -221 c 2
 -363 -240 l 2
 -363 -242 -363 -243 -363 -245 c 0
 -363 -260 -350 -270 -315 -270 c 0
 -276 -270 -260 -257 -257 -240 c 2
 -231 -77 l 1
 -172 -77 l 1
 -199 -245 l 2
 -206 -289 -257 -310 -321 -310 c 0
 -381 -310 -423 -296 -423 -259 c 0
 -423 -256 -422 -253 -422 -250 c 2
 -418 -228 l 1
 -424 -229 -430 -229 -436 -229 c 0
 -481 -229 -510 -205 -510 -165 c 0
 -510 -160 -510 -155 -509 -150 c 0
 -501 -102 -461 -71 -411 -71 c 0
 -366 -71 -338 -96 -338 -135 c 0
 -338 -140 -338 -145 -339 -150 c 0
EndSplineSet
PickledDataWithLists: "(dp0
Vcom.fontlab.hintData
p1
(dp2
Vvhints
p3
(lp4
(dp5
Vwidth
p6
L10L
sVposition
p7
L-401L
sa(dp8
g6
L10L
sg7
L-115L
sasVhhints
p9
(lp10
(dp11
g6
L10L
sg7
L-331L
sa(dp12
g6
L21L
sg7
L-267L
sa(dp13
g6
L10L
sg7
L-154L
sa(dp14
g6
L10L
sg7
L-106L
sass."
Substitution2: "ThaiBV.sd subtable" uni0E39.sd
EndChar

StartChar: uni0E3A
Encoding: 458 3642 188
GlifName: uni0E_3A_
Width: 0
VWidth: 0
GlyphClass: 4
Flags: MW
AnchorPoint: "ThaiExtendedBelow.mkmk" -60 0 mark 0
AnchorPoint: "ThaiExtendedBelow.mkmk" -93 -210 basemark 0
AnchorPoint: "ThaiBelow.mark" -60 0 mark 0
LayerCount: 2
Fore
SplineSet
-223 -82 m 0
 -186 -82 -161 -103 -161 -137 c 0
 -161 -141 -161 -146 -162 -150 c 0
 -169 -192 -204 -218 -245 -218 c 0
 -282 -218 -307 -197 -307 -163 c 0
 -307 -159 -307 -154 -306 -150 c 0
 -299 -108 -264 -82 -223 -82 c 0
EndSplineSet
PickledDataWithLists: "(dp0
Vcom.fontlab.hintData
p1
(dp2
Vvhints
p3
(lp4
(dp5
Vwidth
p6
L10L
sVposition
p7
L-229L
sa(dp8
g6
L10L
sg7
L-81L
sasVhhints
p9
(lp10
(dp11
g6
L10L
sg7
L-231L
sa(dp12
g6
L10L
sg7
L-110L
sass."
Substitution2: "ThaiBV.sd subtable" uni0E3A.sd
EndChar

StartChar: uni0E3F
Encoding: 459 3647 189
GlifName: uni0E_3F_
Width: 720
VWidth: 0
GlyphClass: 2
Flags: MW
LayerCount: 2
Fore
SplineSet
463 430 m 1
 560 405 621 347 621 257 c 0
 621 246 620 234 618 221 c 0
 596 83 469 3 306 -8 c 1
 288 -120 l 1
 219 -120 l 1
 237 -9 l 1
 140 -8 63 -2 38 0 c 1
 162 780 l 1
 186 782 263 789 363 789 c 1
 381 900 l 1
 450 900 l 1
 431 784 l 1
 532 768 604 713 604 623 c 0
 604 614 604 604 602 594 c 0
 589 512 533 459 463 430 c 1
242 717 m 1
 198 440 l 1
 228 442 266 443 308 444 c 1
 352 721 l 2
 349 721 345 721 342 721 c 0
 299 721 266 719 242 717 c 1
138 64 m 1
 165 62 203 60 248 60 c 1
 298 380 l 1
 253 380 215 378 188 376 c 1
 138 64 l 1
378 451 m 1
 440 468 497 512 509 587 c 0
 510 595 511 603 511 610 c 0
 511 665 476 699 420 713 c 1
 378 451 l 1
317 62 m 1
 424 72 509 120 525 221 c 0
 527 231 527 239 527 248 c 0
 527 330 460 369 367 378 c 1
 317 62 l 1
EndSplineSet
PickledDataWithLists: "(dp0
Vcom.fontlab.hintData
p1
(dp2
Vvhints
p3
(lp4
(dp5
Vwidth
p6
L10L
sVposition
p7
L26L
sa(dp8
g6
L10L
sg7
L116L
sa(dp9
g6
L10L
sg7
L121L
sa(dp10
g6
L10L
sg7
L223L
sa(dp11
g6
L10L
sg7
L343L
sa(dp12
g6
L10L
sg7
L350L
sa(dp13
g6
L10L
sg7
L407L
sa(dp14
g6
L10L
sg7
L412L
sa(dp15
g6
L10L
sg7
L537L
sa(dp16
g6
L10L
sg7
L636L
sa(dp17
g6
L10L
sg7
L735L
sasVhhints
p18
(lp19
(dp20
g6
L10L
sg7
L-127L
sa(dp21
g6
L10L
sg7
L-22L
sa(dp22
g6
L10L
sg7
L49L
sa(dp23
g6
L10L
sg7
L395L
sa(dp24
g6
L10L
sg7
L634L
sa(dp25
g6
L10L
sg7
L661L
sa(dp26
g6
L10L
sg7
L916L
sass."
EndChar

StartChar: uni0E40
Encoding: 460 3648 190
GlifName: uni0E_40
Width: 330
VWidth: 0
GlyphClass: 2
Flags: MW
LayerCount: 2
Fore
SplineSet
162 140 m 0
 131 140 107 118 102 88 c 0
 101 85 101 81 101 78 c 0
 101 53 118 36 146 36 c 0
 177 36 201 58 206 88 c 0
 207 91 207 95 207 98 c 0
 207 123 190 140 162 140 c 0
169 184 m 0
 223 184 258 153 258 105 c 0
 258 100 258 94 257 88 c 0
 248 31 199 -8 139 -8 c 0
 85 -8 50 23 50 71 c 0
 50 76 50 82 51 88 c 0
 58 134 76 166 83 210 c 2
 145 600 l 1
 230 600 l 1
 173 240 l 2
 169 217 162 198 153 183 c 1
 158 184 163 184 169 184 c 0
EndSplineSet
PickledDataWithLists: "(dp0
Vcom.fontlab.hintData
p1
(dp2
Vvhints
p3
(lp4
(dp5
Vwidth
p6
L10L
sVposition
p7
L116L
sa(dp8
g6
L10L
sg7
L121L
sa(dp9
g6
L10L
sg7
L204L
sa(dp10
g6
L10L
sg7
L209L
sa(dp11
g6
L10L
sg7
L244L
sasVhhints
p12
(lp13
(dp14
g6
L10L
sg7
L-30L
sa(dp15
g6
L10L
sg7
L586L
sass."
EndChar

